<svg width="30" height="30" viewBox="0 0 30 30" fill="none" xmlns="http://www.w3.org/2000/svg">
<path d="M15 30C12.9688 30 11.0254 29.6045 9.16992 28.8135C7.31445 28.0225 5.71777 26.958 4.37988 25.6201C3.04199 24.2822 1.97754 22.6855 1.18652 20.8301C0.395508 18.9746 0 17.0312 0 15C0 12.9688 0.395508 11.0254 1.18652 9.16992C1.97754 7.31445 3.04199 5.71777 4.37988 4.37988C5.71777 3.04199 7.31445 1.97754 9.16992 1.18652C11.0254 0.395508 12.9688 0 15 0C17.0312 0 18.9746 0.395508 20.8301 1.18652C22.6855 1.97754 24.2822 3.04199 25.6201 4.37988C26.958 5.71777 28.0225 7.31445 28.8135 9.16992C29.6045 11.0254 30 12.9688 30 15C30 17.0312 29.6045 18.9746 28.8135 20.8301C28.0225 22.6855 26.958 24.2822 25.6201 25.6201C24.2822 26.958 22.6855 28.0225 20.8301 28.8135C18.9746 29.6045 17.0312 30 15 30ZM22.5 8.4375C22.5 8.18359 22.4072 7.96387 22.2217 7.77832C22.0361 7.59277 21.8164 7.5 21.5625 7.5H15.9375C15.6836 7.5 15.4639 7.59277 15.2783 7.77832C15.0928 7.96387 15 8.18359 15 8.4375C15 8.69141 15.0928 8.91113 15.2783 9.09668C15.4639 9.28223 15.6836 9.375 15.9375 9.375H19.1602L15.293 13.2422C15.0977 13.4375 15 13.6816 15 13.9746C15 14.2676 15.1025 14.5117 15.3076 14.707C15.5127 14.9023 15.7568 15 16.04 15C16.3232 15 16.5625 14.9023 16.7578 14.707L20.625 10.8398V14.0625C20.625 14.3164 20.7178 14.5361 20.9033 14.7217C21.0889 14.9072 21.3086 15 21.5625 15C21.8164 15 22.0361 14.9072 22.2217 14.7217C22.4072 14.5361 22.5 14.3164 22.5 14.0625V8.4375ZM22.5 18.75H18.75L16.875 20.625C15.625 20.293 14.1455 19.2676 12.4365 17.5488C10.7275 15.8301 9.70703 14.3555 9.375 13.125L11.25 11.25V7.5C10.7812 6.83594 10.2734 6.31836 9.72656 5.94727C9.17969 5.57617 8.76953 5.52734 8.49609 5.80078L6.5332 7.76367C5.45898 8.83789 5.30273 10.5273 6.06445 12.832C6.82617 15.1367 8.29102 17.373 10.459 19.541C12.627 21.709 14.8633 23.1738 17.168 23.9355C19.4727 24.6973 21.1621 24.541 22.2363 23.4668L24.1992 21.5039C24.4727 21.2305 24.4287 20.7812 24.0674 20.1562C23.7061 19.5312 23.1836 19.0625 22.5 18.75Z" fill="#17273F"/>
</svg>
