<svg width="30" height="29" viewBox="0 0 30 29" fill="none" xmlns="http://www.w3.org/2000/svg">
<path fill-rule="evenodd" clip-rule="evenodd" d="M30 14C30 21.2488 23.2838 27.125 15 27.125C13.5143 27.127 12.0349 26.9341 10.5994 26.5513C9.50437 27.1063 6.99 28.1713 2.76 28.865C2.385 28.925 2.1 28.535 2.24813 28.1863C2.91188 26.6188 3.51187 24.53 3.69187 22.625C1.395 20.3188 0 17.3 0 14C0 6.75125 6.71625 0.875 15 0.875C23.2838 0.875 30 6.75125 30 14ZM9.375 14C9.375 14.4973 9.17746 14.9742 8.82582 15.3258C8.47419 15.6775 7.99728 15.875 7.5 15.875C7.00272 15.875 6.52581 15.6775 6.17417 15.3258C5.82254 14.9742 5.625 14.4973 5.625 14C5.625 13.5027 5.82254 13.0258 6.17417 12.6742C6.52581 12.3225 7.00272 12.125 7.5 12.125C7.99728 12.125 8.47419 12.3225 8.82582 12.6742C9.17746 13.0258 9.375 13.5027 9.375 14ZM16.875 14C16.875 14.4973 16.6775 14.9742 16.3258 15.3258C15.9742 15.6775 15.4973 15.875 15 15.875C14.5027 15.875 14.0258 15.6775 13.6742 15.3258C13.3225 14.9742 13.125 14.4973 13.125 14C13.125 13.5027 13.3225 13.0258 13.6742 12.6742C14.0258 12.3225 14.5027 12.125 15 12.125C15.4973 12.125 15.9742 12.3225 16.3258 12.6742C16.6775 13.0258 16.875 13.5027 16.875 14ZM22.5 15.875C22.9973 15.875 23.4742 15.6775 23.8258 15.3258C24.1775 14.9742 24.375 14.4973 24.375 14C24.375 13.5027 24.1775 13.0258 23.8258 12.6742C23.4742 12.3225 22.9973 12.125 22.5 12.125C22.0027 12.125 21.5258 12.3225 21.1742 12.6742C20.8225 13.0258 20.625 13.5027 20.625 14C20.625 14.4973 20.8225 14.9742 21.1742 15.3258C21.5258 15.6775 22.0027 15.875 22.5 15.875Z" fill="#17273F"/>
</svg>
