<svg width="28" height="11" viewBox="0 0 28 11" fill="none" xmlns="http://www.w3.org/2000/svg">
<path d="M14 2.50033C12.1333 2.50033 10.325 2.79199 8.63333 3.34033V6.95699C8.63333 7.41199 8.365 7.82033 7.98 8.00699C6.83667 8.57866 5.79833 9.31366 4.87667 10.1653C4.66667 10.3753 4.375 10.492 4.06 10.492C3.73333 10.492 3.44167 10.3637 3.23167 10.1537L0.338333 7.26033C0.128333 7.06199 0 6.77033 0 6.44366C0 6.11699 0.128333 5.82533 0.338333 5.61533C3.89667 2.24366 8.70333 0.166992 14 0.166992C19.2967 0.166992 24.1033 2.24366 27.6617 5.61533C27.8717 5.82533 28 6.11699 28 6.44366C28 6.77033 27.8717 7.06199 27.6617 7.27199L24.7683 10.1653C24.5583 10.3753 24.2667 10.5037 23.94 10.5037C23.625 10.5037 23.3333 10.3753 23.1233 10.177C22.2017 9.31366 21.1517 8.59033 20.0083 8.01866C19.6233 7.83199 19.355 7.43533 19.355 6.96866V3.35199C17.675 2.79199 15.8667 2.50033 14 2.50033Z" fill="white"/>
</svg>
