<svg width="18" height="18" viewBox="0 0 18 18" fill="none" xmlns="http://www.w3.org/2000/svg">
<path d="M15.6486 14.5943H14.0675C13.9248 14.5943 13.8013 14.5422 13.697 14.4378C13.5926 14.3335 13.5405 14.21 13.5405 14.0673V8.79701C13.5405 8.65427 13.5926 8.53075 13.697 8.42644C13.8013 8.32213 13.9248 8.26998 14.0675 8.26998H14.5945C14.5945 6.64498 14.1416 5.36035 13.2358 4.41609C12.33 3.47184 11.0261 2.99971 9.32428 2.99971C7.62242 2.99971 6.31858 3.47184 5.41275 4.41609C4.50692 5.36035 4.05401 6.64498 4.05401 8.26998H4.58103C4.72377 8.26998 4.84729 8.32213 4.9516 8.42644C5.05591 8.53075 5.10806 8.65427 5.10806 8.79701V14.0673C5.10806 14.21 5.05591 14.3335 4.9516 14.4378C4.84729 14.5422 4.72377 14.5943 4.58103 14.5943H4.05401C4.05401 15.1762 4.25988 15.6731 4.67162 16.0848C5.08336 16.4965 5.58019 16.7024 6.16212 16.7024H7.21617C7.21617 16.406 7.31773 16.1562 7.52086 15.953C7.72398 15.7499 7.97377 15.6484 8.27022 15.6484H9.32428C9.62073 15.6484 9.87052 15.7499 10.0736 15.953C10.2768 16.1562 10.3783 16.4032 10.3783 16.6942C10.3783 16.9851 10.2768 17.2349 10.0736 17.4435C9.87052 17.6522 9.62073 17.7565 9.32428 17.7565H6.16212C5.28374 17.7565 4.53712 17.449 3.92225 16.8342C3.30739 16.2193 2.99995 15.4727 2.99995 14.5943C2.41803 14.5943 1.9212 14.2869 1.50946 13.672C1.09772 13.0571 0.891846 12.3105 0.891846 11.4321C0.891846 10.8612 0.987918 10.3342 1.18006 9.85106C1.37221 9.36795 1.62749 8.98915 1.9459 8.71466V8.26998C1.9459 7.27082 2.14079 6.31559 2.53057 5.40427C2.92035 4.49295 3.44463 3.7079 4.10342 3.04912C4.7622 2.39033 5.54725 1.86605 6.45857 1.47627C7.36989 1.08649 8.32512 0.891602 9.32428 0.891602C10.3234 0.891602 11.2787 1.08649 12.19 1.47627C13.1013 1.86605 13.8864 2.39033 14.5451 3.04912C15.2039 3.7079 15.7282 4.49295 16.118 5.40427C16.5078 6.31559 16.7027 7.27082 16.7027 8.26998V8.71466C17.0211 8.98915 17.2763 9.36795 17.4685 9.85106C17.6606 10.3342 17.7567 10.8612 17.7567 11.4321C17.7567 12.3105 17.5508 13.0571 17.1391 13.672C16.7274 14.2869 16.2305 14.5943 15.6486 14.5943Z" fill="#17273F"/>
</svg>
