<svg width="18" height="18" viewBox="0 0 18 18" fill="none" xmlns="http://www.w3.org/2000/svg">
<path d="M9.17906 0.375C4.52156 0.375 0.75 4.155 0.75 8.8125C0.75 13.47 4.52156 17.25 9.17906 17.25C13.845 17.25 17.625 13.47 17.625 8.8125C17.625 4.155 13.845 0.375 9.17906 0.375ZM15.0263 5.4375H12.5372C12.2731 4.39248 11.8821 3.38372 11.3728 2.43375C12.9119 2.96363 14.2088 4.02989 15.0263 5.4375ZM9.1875 2.09625C9.88781 3.10875 10.4362 4.23094 10.7991 5.4375H7.57594C7.93875 4.23094 8.48719 3.10875 9.1875 2.09625ZM2.65688 10.5C2.52188 9.96 2.4375 9.39469 2.4375 8.8125C2.4375 8.23031 2.52188 7.665 2.65688 7.125H5.50875C5.44125 7.68188 5.39062 8.23875 5.39062 8.8125C5.39062 9.38625 5.44125 9.94313 5.50875 10.5H2.65688ZM3.34875 12.1875H5.83781C6.10781 13.2422 6.49594 14.2547 7.00219 15.1912C5.46147 14.6643 4.16367 13.5973 3.34875 12.1875ZM5.83781 5.4375H3.34875C4.16367 4.02774 5.46147 2.96073 7.00219 2.43375C6.49292 3.38372 6.10189 4.39248 5.83781 5.4375ZM9.1875 15.5287C8.48719 14.5162 7.93875 13.3941 7.57594 12.1875H10.7991C10.4362 13.3941 9.88781 14.5162 9.1875 15.5287ZM11.1619 10.5H7.21312C7.13719 9.94313 7.07812 9.38625 7.07812 8.8125C7.07812 8.23875 7.13719 7.67344 7.21312 7.125H11.1619C11.2378 7.67344 11.2969 8.23875 11.2969 8.8125C11.2969 9.38625 11.2378 9.94313 11.1619 10.5ZM11.3728 15.1912C11.8791 14.2547 12.2672 13.2422 12.5372 12.1875H15.0263C14.2088 13.5951 12.9119 14.6614 11.3728 15.1912ZM12.8663 10.5C12.9338 9.94313 12.9844 9.38625 12.9844 8.8125C12.9844 8.23875 12.9338 7.68188 12.8663 7.125H15.7181C15.8531 7.665 15.9375 8.23031 15.9375 8.8125C15.9375 9.39469 15.8531 9.96 15.7181 10.5H12.8663Z" fill="#17273F"/>
</svg>
