<svg width="28" height="28" viewBox="0 0 28 28" fill="none" xmlns="http://www.w3.org/2000/svg">
<path d="M14.0002 16.333C15.9368 16.333 17.4885 14.7697 17.4885 12.833L17.5002 5.83301C17.5002 3.89634 15.9368 2.33301 14.0002 2.33301C12.0635 2.33301 10.5002 3.89634 10.5002 5.83301V12.833C10.5002 14.7697 12.0635 16.333 14.0002 16.333ZM20.1835 12.833C20.1835 16.333 17.2202 18.783 14.0002 18.783C10.7802 18.783 7.81683 16.333 7.81683 12.833H5.8335C5.8335 16.8113 9.00683 20.1013 12.8335 20.673V24.4997H15.1668V20.673C18.9935 20.113 22.1668 16.823 22.1668 12.833H20.1835Z" fill="#A8A8A8"/>
</svg>
