<svg width="24" height="22" viewBox="0 0 24 22" fill="none" xmlns="http://www.w3.org/2000/svg">
<path d="M20.8384 7.54883H9.68213C9.48797 7.54883 9.33057 7.70623 9.33057 7.90039C9.33057 8.09455 9.48797 8.25195 9.68213 8.25195H20.8384C21.0325 8.25195 21.1899 8.09455 21.1899 7.90039C21.1899 7.70623 21.0325 7.54883 20.8384 7.54883Z" fill="#8D8D8D"/>
<path d="M20.8384 10.2354H9.68213C9.48797 10.2354 9.33057 10.3928 9.33057 10.5869C9.33057 10.7811 9.48797 10.9385 9.68213 10.9385H20.8384C21.0325 10.9385 21.1899 10.7811 21.1899 10.5869C21.1899 10.3928 21.0325 10.2354 20.8384 10.2354Z" fill="#8D8D8D"/>
<path d="M20.8384 12.9229H9.68213C9.48797 12.9229 9.33057 13.0803 9.33057 13.2744C9.33057 13.4686 9.48797 13.626 9.68213 13.626H20.8384C21.0325 13.626 21.1899 13.4686 21.1899 13.2744C21.1899 13.0803 21.0325 12.9229 20.8384 12.9229Z" fill="#8D8D8D"/>
<path d="M21.9554 4.47363H8.56578C7.43829 4.47363 6.521 5.39088 6.521 6.51841V14.938C6.521 16.0654 7.43825 16.9827 8.56578 16.9827H17.9507C18.051 16.9827 18.1443 17.0279 18.2065 17.1067L21.2372 20.9435C21.3567 21.0948 21.5309 21.1772 21.7134 21.1772C21.7812 21.1772 21.8502 21.1658 21.9179 21.1422C22.1676 21.0555 22.329 20.8287 22.329 20.5644V16.9478C23.277 16.7707 24.0002 15.9326 24.0002 14.938V6.51837C24.0002 5.39088 23.083 4.47363 21.9554 4.47363ZM23.2971 14.938C23.2971 15.6681 22.703 16.2698 21.9729 16.2791C21.7805 16.2815 21.6258 16.4382 21.6258 16.6306V20.3012L18.7583 16.6708C18.5619 16.4222 18.2675 16.2796 17.9507 16.2796H8.56578C7.826 16.2796 7.22412 15.6777 7.22412 14.9379V6.51837C7.22412 5.77859 7.82595 5.17671 8.56578 5.17671H21.9554C22.6952 5.17671 23.2971 5.77859 23.2971 6.51837V14.938Z" fill="#8D8D8D"/>
<path d="M5.17941 10.2868C4.93894 10.3209 4.72359 10.4447 4.57303 10.6353L2.15798 13.6928V10.6285C2.15798 10.4361 2.0033 10.2794 1.81092 10.2769C1.20009 10.2691 0.703125 9.76584 0.703125 9.15497V1.82555C0.703125 1.20666 1.20666 0.703125 1.82555 0.703125H13.4816C14.1005 0.703125 14.604 1.20666 14.604 1.82555V3.18173C14.604 3.37589 14.7615 3.5333 14.9556 3.5333C15.1498 3.5333 15.3072 3.37589 15.3072 3.18173V1.82555C15.3072 0.818953 14.4882 0 13.4816 0H1.82555C0.818953 0 0 0.818953 0 1.82555V9.15497C0 10.03 0.626766 10.7693 1.45491 10.942V14.0529C1.45491 14.3027 1.60734 14.517 1.84331 14.599C1.9073 14.6212 1.97245 14.632 2.03658 14.632C2.20894 14.632 2.3737 14.5541 2.48653 14.4113L5.12484 11.0711C5.16291 11.0229 5.21742 10.9916 5.27827 10.9829C5.4705 10.9556 5.60423 10.7776 5.57691 10.5854C5.54962 10.3932 5.37192 10.2593 5.17941 10.2868Z" fill="#8D8D8D"/>
</svg>
