<svg width="29" height="20" viewBox="0 0 29 20" fill="none" xmlns="http://www.w3.org/2000/svg">
<path d="M28.9286 17.5003V4.64314C28.9286 4.64314 15.9286 13.7146 14.6643 14.1853C13.4215 13.736 0.357178 4.64314 0.357178 4.64314V17.5003C0.357178 19.286 0.735749 19.6431 2.50003 19.6431H26.7857C28.5922 19.6431 28.9286 19.3296 28.9286 17.5003ZM28.9079 2.12242C28.9079 0.821707 28.5286 0.357422 26.7857 0.357422H2.50003C0.707178 0.357422 0.357178 0.914565 0.357178 2.21457L0.378606 2.41456C0.378606 2.41456 13.285 11.3003 14.6643 11.786C16.1215 11.2217 28.9286 2.21457 28.9286 2.21457L28.9079 2.12242Z" fill="#17273F"/>
</svg>
