<svg width="7" height="13" viewBox="0 0 7 13" fill="none" xmlns="http://www.w3.org/2000/svg">
<path d="M2.18394 0.860681C2.59149 1.27091 6.57339 5.58136 6.57339 5.58136C6.6766 5.68405 6.75869 5.80713 6.81475 5.94326C6.87082 6.07939 6.89971 6.22577 6.89971 6.37367C6.89971 6.52156 6.87082 6.66795 6.81475 6.80407C6.75869 6.9402 6.6766 7.06328 6.57339 7.16598C6.57339 7.16598 2.59149 11.4784 2.18394 11.8867C1.77639 12.2969 1.04319 12.325 0.609319 11.8867C0.174469 11.4503 0.140344 10.84 0.609319 10.304L4.26264 6.37467L0.609319 2.4453C0.140344 1.90939 0.174469 1.29806 0.609319 0.860681C1.04319 0.422297 1.77639 0.449445 2.18394 0.860681Z" fill="#17273F"/>
</svg>
