<svg width="18" height="18" viewBox="0 0 18 18" fill="none" xmlns="http://www.w3.org/2000/svg">
<path d="M9.00008 0.666992C4.40008 0.666992 0.666748 4.40033 0.666748 9.00033C0.666748 13.6003 4.40008 17.3337 9.00008 17.3337C13.6001 17.3337 17.3334 13.6003 17.3334 9.00033C17.3334 4.40033 13.6001 0.666992 9.00008 0.666992ZM9.00008 3.16699C10.3834 3.16699 11.5001 4.28366 11.5001 5.66699C11.5001 7.05033 10.3834 8.16699 9.00008 8.16699C7.61675 8.16699 6.50008 7.05033 6.50008 5.66699C6.50008 4.28366 7.61675 3.16699 9.00008 3.16699ZM9.00008 15.0003C6.91675 15.0003 5.07508 13.9337 4.00008 12.317C4.02508 10.6587 7.33342 9.75033 9.00008 9.75033C10.6584 9.75033 13.9751 10.6587 14.0001 12.317C12.9251 13.9337 11.0834 15.0003 9.00008 15.0003Z" fill="#17273F"/>
</svg>
