<svg width="19" height="19" viewBox="0 0 19 19" fill="none" xmlns="http://www.w3.org/2000/svg">
<path d="M17.5289 14.4753L13.8854 12.0454C13.423 11.7396 12.8032 11.8402 12.4614 12.2767L11.4001 13.6413C11.2637 13.8212 11.0157 13.8733 10.8184 13.7637L10.6165 13.6524C9.94728 13.2876 9.11456 12.8335 7.43679 11.1551C5.75902 9.47674 5.30395 8.64339 4.93917 7.97537L4.82847 7.77348C4.71735 7.5762 4.76853 7.3272 4.94845 7.18972L6.31212 6.12872C6.74845 5.78685 6.84923 5.16723 6.54371 4.70472L4.1139 1.06119C3.80079 0.590205 3.1726 0.448818 2.68786 0.740205L1.16427 1.65543C0.685553 1.93687 0.334334 2.39267 0.184264 2.92732C-0.364378 4.92636 0.0483597 8.3764 5.13058 13.4592C9.17337 17.5017 12.183 18.5888 14.2517 18.5888C14.7278 18.5909 15.202 18.5289 15.6616 18.4046C16.1963 18.2548 16.6522 17.9035 16.9335 17.4246L17.8496 15.902C18.1414 15.4171 18.0001 14.7885 17.5289 14.4753ZM17.3327 15.5942L16.4187 17.1177C16.2167 17.4634 15.8889 17.7175 15.5038 17.8269C13.6583 18.3336 10.4342 17.9139 5.55502 13.0348C0.675886 8.15563 0.256258 4.93177 0.762926 3.08604C0.872464 2.70047 1.12691 2.37217 1.47296 2.1699L2.99655 1.25587C3.20687 1.12932 3.47952 1.19066 3.61539 1.39505L4.9353 3.37669L6.04313 5.03825C6.1758 5.23887 6.13221 5.50776 5.94294 5.65622L4.57895 6.71722C4.16386 7.03462 4.04532 7.60893 4.30088 8.06473L4.40919 8.26152C4.79258 8.96466 5.26922 9.83938 7.00939 11.5793C8.74956 13.3191 9.62401 13.7958 10.3268 14.1792L10.5239 14.2877C10.9797 14.5433 11.554 14.4248 11.8714 14.0097L12.9324 12.6457C13.0809 12.4565 13.3497 12.413 13.5504 12.5455L17.1936 14.9753C17.3981 15.1111 17.4595 15.3839 17.3327 15.5942Z" fill="#8D8D8D"/>
<path d="M10.2004 3.59016C13.0155 3.59329 15.2968 5.87465 15.3 8.68978C15.3 8.85546 15.4343 8.98975 15.5999 8.98975C15.7656 8.98975 15.8999 8.85546 15.8999 8.68978C15.8964 5.54344 13.3467 2.99368 10.2004 2.99023C10.0347 2.99023 9.90039 3.12452 9.90039 3.2902C9.90039 3.45588 10.0347 3.59016 10.2004 3.59016Z" fill="#8D8D8D"/>
<path d="M10.2004 5.38997C12.0219 5.39211 13.498 6.86821 13.5001 8.68973C13.5001 8.85541 13.6344 8.98969 13.8001 8.98969C13.9658 8.98969 14.1 8.85541 14.1 8.68973C14.0975 6.53699 12.3531 4.7925 10.2004 4.79004C10.0347 4.79004 9.90039 4.92433 9.90039 5.09C9.90039 5.25568 10.0347 5.38997 10.2004 5.38997Z" fill="#8D8D8D"/>
<path d="M10.2004 7.18977C11.0283 7.19076 11.6992 7.8617 11.7003 8.68967C11.7003 8.85535 11.8346 8.98964 12.0002 8.98964C12.1659 8.98964 12.3002 8.85535 12.3002 8.68967C12.2988 7.53052 11.3595 6.59114 10.2004 6.58984C10.0347 6.58984 9.90039 6.72413 9.90039 6.88981C9.90039 7.05549 10.0347 7.18977 10.2004 7.18977Z" fill="#8D8D8D"/>
</svg>
