<svg width="24" height="24" viewBox="0 0 24 24" fill="none" xmlns="http://www.w3.org/2000/svg">
<path d="M19.9994 15.4765V18.1862C20.0005 18.4377 19.9488 18.6867 19.8479 18.9172C19.7469 19.1477 19.5988 19.3546 19.413 19.5247C19.2273 19.6947 19.008 19.8242 18.7693 19.9048C18.5305 19.9854 18.2775 20.0153 18.0265 19.9927C15.2415 19.6907 12.5664 18.7409 10.216 17.2197C8.02929 15.8329 6.17534 13.9827 4.7858 11.8003C3.25627 9.44389 2.30442 6.76107 2.00735 3.96915C1.98473 3.71938 2.01447 3.46764 2.09468 3.22996C2.17489 2.99229 2.30381 2.77389 2.47323 2.58866C2.64265 2.40343 2.84885 2.25544 3.07872 2.15411C3.30858 2.05278 3.55707 2.00032 3.80837 2.00009H6.52347C6.96269 1.99577 7.3885 2.151 7.72152 2.43683C8.05455 2.72267 8.27207 3.11961 8.33354 3.55366C8.44814 4.42084 8.66067 5.27229 8.96707 6.09177C9.08883 6.41507 9.11519 6.76642 9.043 7.1042C8.97082 7.44198 8.80313 7.75203 8.5598 7.99761L7.41041 9.14473C8.69877 11.406 10.5748 13.2784 12.8406 14.5642L13.99 13.4171C14.2361 13.1742 14.5467 13.0069 14.8852 12.9348C15.2236 12.8628 15.5757 12.8891 15.8996 13.0106C16.7207 13.3164 17.5739 13.5285 18.4428 13.6429C18.8824 13.7048 19.2839 13.9258 19.5709 14.2639C19.858 14.6019 20.0105 15.0335 19.9994 15.4765Z" stroke="#17273F" stroke-width="2" stroke-linecap="round" stroke-linejoin="round"/>
</svg>
