<svg width="16" height="16" viewBox="0 0 16 16" fill="none" xmlns="http://www.w3.org/2000/svg">
<path d="M7.99999 0.941406C8.93604 0.941406 9.83376 1.31325 10.4957 1.97515C11.1575 2.63704 11.5294 3.53476 11.5294 4.47082C11.5294 5.40688 11.1575 6.3046 10.4957 6.96649C9.83376 7.62838 8.93604 8.00023 7.99999 8.00023C7.06393 8.00023 6.16621 7.62838 5.50431 6.96649C4.84242 6.3046 4.47057 5.40688 4.47057 4.47082C4.47057 3.53476 4.84242 2.63704 5.50431 1.97515C6.16621 1.31325 7.06393 0.941406 7.99999 0.941406ZM7.99999 9.76494C11.9 9.76494 15.0588 11.3443 15.0588 13.2943V15.0591H0.941162V13.2943C0.941162 11.3443 4.09999 9.76494 7.99999 9.76494Z" fill="#17273F"/>
</svg>
