<svg width="16" height="15" viewBox="0 0 16 15" fill="none" xmlns="http://www.w3.org/2000/svg">
<path d="M7.65813 2.58789L5.95098 6.0474L2.13159 6.60259L4.89486 9.29713L4.24202 13.1002L7.65813 11.3045L11.0742 13.0984L10.4214 9.29532L13.1847 6.60259L9.36528 6.0474L7.65813 2.58789Z" fill="#FFCC00"/>
<path d="M14.8214 5.52441L10.2298 4.85711L8.17729 0.695929C8.12123 0.581999 8.029 0.489769 7.91507 0.433708C7.62934 0.292651 7.28212 0.410199 7.13926 0.695929L5.0867 4.85711L0.495118 5.52441C0.368528 5.5425 0.252789 5.60218 0.164176 5.6926C0.0570486 5.8027 -0.00198367 5.95084 5.08997e-05 6.10445C0.00208547 6.25806 0.0650204 6.40458 0.175027 6.51181L3.4971 9.75069L2.71224 14.3242C2.69384 14.4306 2.70561 14.54 2.74623 14.64C2.78684 14.7401 2.85468 14.8267 2.94204 14.8902C3.02939 14.9536 3.13278 14.9913 3.24048 14.999C3.34818 15.0067 3.45587 14.984 3.55135 14.9336L7.65827 12.7744L11.7652 14.9336C11.8773 14.9933 12.0075 15.0132 12.1323 14.9915C12.447 14.9372 12.6586 14.6389 12.6043 14.3242L11.8195 9.75069L15.1415 6.51181C15.2319 6.4232 15.2916 6.30746 15.3097 6.18087C15.3585 5.8644 15.1379 5.57143 14.8214 5.52441ZM10.4215 9.29497L11.0744 13.0981L7.65827 11.3041L4.24217 13.0999L4.89501 9.29678L2.13174 6.60223L5.95112 6.04705L7.65827 2.58754L9.36542 6.04705L13.1848 6.60223L10.4215 9.29497Z" fill="#FBB709"/>
</svg>
