<svg width="24" height="24" viewBox="0 0 24 24" fill="none" xmlns="http://www.w3.org/2000/svg">
<path d="M13.9472 0.879139C13.6688 0.746339 13.3408 0.781539 13.1008 0.975139L5.3184 7.20074H1.6C0.7184 7.20074 0 7.91914 0 8.80074V15.2007C0 16.0839 0.7184 16.8007 1.6 16.8007H5.3184L13.0992 23.0263C13.2448 23.1415 13.4224 23.2007 13.6 23.2007C13.7184 23.2007 13.8368 23.1735 13.9472 23.1207C14.224 22.9879 14.4 22.7079 14.4 22.4007V1.60074C14.4 1.29354 14.224 1.01354 13.9472 0.879139Z" fill="#A8A8A8"/>
<path d="M18.4494 6.3435C18.1342 6.0331 17.6286 6.0379 17.3182 6.3499C17.0078 6.6651 17.011 7.1707 17.3246 7.4827C18.5342 8.6763 19.1998 10.2811 19.1998 12.0011C19.1998 13.7211 18.5342 15.3259 17.3246 16.5195C17.011 16.8283 17.0078 17.3355 17.3182 17.6507C17.475 17.8091 17.6814 17.8875 17.8862 17.8875C18.0894 17.8875 18.2926 17.8107 18.4494 17.6555C19.9662 16.1627 20.7998 14.1531 20.7998 12.0011C20.7998 9.8491 19.9662 7.8395 18.4494 6.3435Z" fill="#A8A8A8"/>
<path d="M20.7071 4.08865C20.3919 3.77665 19.8863 3.77985 19.5743 4.09345C19.2639 4.40705 19.2671 4.91426 19.5791 5.22466C21.3983 7.02785 22.3999 9.43426 22.3999 12.0007C22.3999 14.5671 21.3983 16.9719 19.5791 18.7751C19.2671 19.0871 19.2639 19.5943 19.5743 19.9079C19.7327 20.0647 19.9375 20.1431 20.1423 20.1431C20.3455 20.1431 20.5503 20.0663 20.7071 19.9111C22.8319 17.8071 23.9999 14.9975 23.9999 12.0007C23.9999 9.00386 22.8319 6.19425 20.7071 4.08865Z" fill="#A8A8A8"/>
</svg>
