<svg width="13" height="12" viewBox="0 0 13 12" fill="none" xmlns="http://www.w3.org/2000/svg">
<path d="M6.2828 1.81641L4.8822 4.6547L1.74866 5.11019L4.01573 7.32088L3.48012 10.4411L6.2828 8.96777L9.08548 10.4396L8.54987 7.3194L10.8169 5.11019L7.6834 4.6547L6.2828 1.81641Z" fill="#FFCC00"/>
<path d="M12.16 4.22554L8.39289 3.67806L6.70891 0.264102C6.66291 0.170629 6.58724 0.0949614 6.49377 0.0489671C6.25935 -0.0667604 5.97448 0.0296792 5.85727 0.264102L4.17329 3.67806L0.40621 4.22554C0.302352 4.24038 0.207396 4.28934 0.134695 4.36352C0.0468045 4.45386 -0.00162747 4.5754 4.17597e-05 4.70142C0.00171099 4.82745 0.0533448 4.94766 0.143598 5.03563L2.86913 7.69291L2.22521 11.4452C2.21011 11.5324 2.21977 11.6222 2.25309 11.7043C2.28641 11.7864 2.34207 11.8575 2.41374 11.9095C2.48541 11.9616 2.57024 11.9925 2.65859 11.9988C2.74695 12.0051 2.8353 11.9865 2.91364 11.9452L6.28309 10.1736L9.65254 11.9452C9.74453 11.9941 9.85135 12.0104 9.95373 11.9926C10.2119 11.9481 10.3855 11.7033 10.341 11.4452L9.69705 7.69291L12.4226 5.03563C12.4968 4.96293 12.5457 4.86798 12.5606 4.76412C12.6006 4.50447 12.4196 4.26412 12.16 4.22554ZM8.55016 7.31903L9.08577 10.4392L6.28309 8.9674L3.48041 10.4407L4.01602 7.32051L1.74895 5.10982L4.88249 4.65433L6.28309 1.81604L7.68369 4.65433L10.8172 5.10982L8.55016 7.31903Z" fill="#FBB709"/>
</svg>
