<svg width="27" height="26" viewBox="0 0 27 26" fill="none" xmlns="http://www.w3.org/2000/svg">
<path d="M25.4417 9.76405L17.6033 8.62487L14.0993 1.52121C14.0036 1.32672 13.8462 1.16927 13.6517 1.07357C13.1639 0.832767 12.5712 1.03344 12.3273 1.52121L8.82329 8.62487L0.984877 9.76405C0.768773 9.79492 0.571191 9.8968 0.419918 10.0512C0.237038 10.2391 0.136262 10.492 0.139735 10.7542C0.143209 11.0165 0.250647 11.2666 0.438442 11.4497L6.10964 16.9788L4.76979 24.7864C4.73837 24.968 4.75847 25.1548 4.8278 25.3256C4.89714 25.4964 5.01294 25.6443 5.16208 25.7526C5.31121 25.8609 5.48771 25.9253 5.67156 25.9384C5.85541 25.9515 6.03926 25.9128 6.20225 25.8268L13.2133 22.1407L20.2243 25.8268C20.4157 25.9287 20.638 25.9626 20.851 25.9256C21.3882 25.833 21.7494 25.3236 21.6568 24.7864L20.317 16.9788L25.9881 11.4497C26.1425 11.2984 26.2444 11.1008 26.2753 10.8847C26.3586 10.3444 25.982 9.84432 25.4417 9.76405ZM17.9305 16.2009L19.045 22.6933L13.2133 19.6308L7.38157 22.6964L8.49605 16.204L3.7788 11.604L10.299 10.6563L13.2133 4.75043L16.1276 10.6563L22.6478 11.604L17.9305 16.2009Z" fill="#FFF8E7"/>
</svg>
