<svg width="27" height="26" viewBox="0 0 27 26" fill="none" xmlns="http://www.w3.org/2000/svg">
<path d="M13.4999 4.75098L10.5856 10.6568L4.06543 11.6046L8.78268 16.2045L7.6682 22.6969L13.4999 19.6313L19.3317 22.6938L18.2172 16.2014L22.9344 11.6046L16.4143 10.6568L13.4999 4.75098Z" fill="#FFCC00"/>
<path d="M25.7288 9.76405L17.8904 8.62487L14.3864 1.52121C14.2907 1.32672 14.1333 1.16927 13.9388 1.07357C13.451 0.832767 12.8583 1.03344 12.6144 1.52121L9.1104 8.62487L1.27199 9.76405C1.05588 9.79492 0.858301 9.8968 0.707028 10.0512C0.524147 10.2391 0.423371 10.492 0.426845 10.7542C0.430318 11.0165 0.537756 11.2666 0.725551 11.4497L6.39675 16.9788L5.0569 24.7864C5.02548 24.968 5.04558 25.1548 5.11491 25.3256C5.18425 25.4964 5.30005 25.6443 5.44919 25.7526C5.59832 25.8609 5.77482 25.9253 5.95867 25.9384C6.14252 25.9515 6.32637 25.9128 6.48936 25.8268L13.5004 22.1407L20.5114 25.8268C20.7029 25.9287 20.9251 25.9626 21.1382 25.9256C21.6753 25.833 22.0365 25.3236 21.9439 24.7864L20.6041 16.9788L26.2753 11.4497C26.4296 11.2984 26.5315 11.1008 26.5624 10.8847C26.6457 10.3444 26.2691 9.84432 25.7288 9.76405ZM18.2177 16.2009L19.3321 22.6933L13.5004 19.6308L7.66867 22.6964L8.78316 16.204L4.06591 11.604L10.5861 10.6563L13.5004 4.75043L16.4147 10.6563L22.9349 11.604L18.2177 16.2009Z" fill="#FBB709"/>
</svg>
