<svg width="328" height="160" viewBox="0 0 328 160" fill="none" xmlns="http://www.w3.org/2000/svg">
<path d="M316.654 159.367L316.714 159.026L37.4819 159.061C37.4819 159.061 37.2577 158.531 37.2048 158.429C37.1864 158.394 37.1645 158.352 37.1392 158.304C37.1036 158.235 37.0622 158.153 37.0139 158.06C36.9978 158.027 36.9806 157.993 36.961 157.957C36.8978 157.829 36.8253 157.685 36.7448 157.519C36.6459 157.318 36.5367 157.09 36.4148 156.836V156.834C35.9629 155.885 35.3627 154.569 34.6809 152.934C34.4567 152.397 34.2255 151.824 33.9852 151.221C33.8898 150.979 33.7944 150.734 33.6978 150.483V150.482C33.6035 150.239 33.5092 149.992 33.4149 149.74C33.4115 149.732 33.4092 149.723 33.4057 149.715C33.3413 149.541 33.2746 149.366 33.2091 149.186C33.1401 149.003 33.0723 148.818 33.0033 148.63C32.6514 147.662 32.2915 146.634 31.9328 145.551C31.9236 145.522 31.9144 145.493 31.904 145.466C31.904 145.466 31.904 145.466 31.904 145.464C31.6695 144.755 31.436 144.023 31.2049 143.268C31.0773 142.853 30.952 142.432 30.8255 142.004C30.8186 141.978 30.8094 141.952 30.8025 141.924C30.7473 141.734 30.6921 141.544 30.6369 141.353C30.5909 141.19 30.5449 141.03 30.5001 140.866C30.4058 140.532 30.3115 140.192 30.2184 139.849C30.0988 139.409 29.9803 138.964 29.8642 138.512C29.7067 137.9 29.5526 137.276 29.4031 136.641C29.3583 136.451 29.3134 136.26 29.2686 136.069C29.1364 135.496 29.0064 134.915 28.8811 134.329C28.8409 134.139 28.8006 133.952 28.7615 133.761C28.7362 133.644 28.7121 133.527 28.6879 133.41C28.4982 132.481 28.3188 131.533 28.151 130.568C27.9658 129.506 27.7945 128.423 27.6416 127.323C27.5001 126.306 27.3725 125.274 27.2621 124.227C27.1575 123.239 27.069 122.239 26.9965 121.229C26.8252 118.862 26.7459 116.433 26.7792 113.959C26.8378 109.65 27.2414 105.205 28.1084 100.705C28.1395 100.542 28.1717 100.378 28.205 100.213C28.42 99.1426 28.6592 98.0693 28.9282 96.9948C29.1329 96.175 29.3537 95.3552 29.5905 94.5341C29.763 93.9396 29.9447 93.345 30.1356 92.7492C30.5668 91.4018 31.0451 90.0531 31.5752 88.7069C31.7212 88.3337 31.8707 87.9618 32.0259 87.5886C34.9016 80.6443 39.1399 73.7657 45.1731 67.259C45.2858 67.1367 45.3997 67.017 45.5112 66.8961C48.5054 63.6955 51.4627 60.9093 54.381 58.4911C54.4891 58.4023 54.596 58.3135 54.7018 58.226C86.7374 31.9392 113.816 49.7773 128.186 48.789C131.013 48.5959 133.496 47.3373 135.937 45.3477C140.41 41.6993 144.736 35.5838 150.773 29.0191C159.823 19.1793 172.713 8.33047 195.686 3.25997C224.111 -3.01381 263.161 -1.25458 280.056 17.6015C290.276 29.0076 292.388 46.6694 279.136 72.5946C278.331 74.1698 277.468 75.7784 276.547 77.4167C275.773 78.7924 275.098 80.1064 274.518 81.3599C273.06 84.5103 272.198 87.2875 271.834 89.7635C270.96 95.7117 272.967 99.9238 276.567 103.387C277.542 104.325 278.631 105.207 279.812 106.056C279.888 106.11 279.963 106.164 280.039 106.218C284.244 109.192 289.558 111.747 294.858 114.742C297.783 116.397 300.704 118.183 303.43 120.25C305.962 122.171 308.327 124.33 310.373 126.846C311.71 128.488 312.91 130.286 313.931 132.266C313.99 132.378 314.046 132.488 314.103 132.6C315.42 135.235 316.429 138.193 317.024 141.547C317.054 141.717 317.084 141.888 317.112 142.06C317.905 146.93 317.85 152.627 316.654 159.367Z" fill="#EBF3FA"/>
<path d="M279.136 72.5943L119.467 102.983L108.011 87.6089L280.056 17.6025C290.276 29.0073 292.387 46.6691 279.136 72.5943Z" fill="#F8FBFF"/>
<path d="M219.158 14.6182L135.938 45.3475C140.41 41.699 144.738 35.5835 150.775 29.0189L219.158 14.6182Z" fill="#F8FBFF"/>
<path d="M216.589 24.8711C214.568 24.8711 212.93 26.705 212.93 28.9661C212.93 31.2285 214.568 33.0611 216.589 33.0611C218.61 33.0611 220.248 31.2272 220.248 28.9661C220.248 26.7037 218.609 24.8711 216.589 24.8711Z" fill="#F8FBFF"/>
<path d="M170.426 40.0791H151.425V143.495H170.426V40.0791Z" fill="#C4D9ED"/>
<path d="M174.695 40.0781H155.694V143.494H174.695V40.0781Z" fill="#D5E7F7"/>
<path d="M155.697 46.0264H174.694V40.0499H155.697V46.0264Z" fill="#C4D9ED"/>
<path d="M155.697 58.9873H174.694V53.0108H155.697V58.9873Z" fill="#C4D9ED"/>
<path d="M155.697 71.9492H174.694V65.9727H155.697V71.9492Z" fill="#C4D9ED"/>
<path d="M155.697 84.9092H174.694V78.934H155.697V84.9092Z" fill="#C4D9ED"/>
<path d="M155.697 97.8711H174.694V91.8946H155.697V97.8711Z" fill="#C4D9ED"/>
<path d="M155.697 110.832H174.694V104.855H155.697V110.832Z" fill="#C4D9ED"/>
<path d="M155.697 123.792H174.694V117.815H155.697V123.792Z" fill="#C4D9ED"/>
<path d="M155.697 136.754H174.694V130.777H155.697V136.754Z" fill="#C4D9ED"/>
<path d="M200.802 54.709H181.801V143.492H200.802V54.709Z" fill="#C4D9ED"/>
<path d="M205.069 54.71H186.068V143.493H205.069V54.71Z" fill="#D5E7F7"/>
<path d="M186.073 59.8184H205.069V54.6874H186.073V59.8184Z" fill="#C4D9ED"/>
<path d="M186.073 70.9463H205.069V65.8166H186.073V70.9463Z" fill="#C4D9ED"/>
<path d="M186.073 82.0732H205.069V76.9436H186.073V82.0732Z" fill="#C4D9ED"/>
<path d="M186.073 93.2002H205.069V88.0692H186.073V93.2002Z" fill="#C4D9ED"/>
<path d="M186.073 104.328H205.069V99.1971H186.073V104.328Z" fill="#C4D9ED"/>
<path d="M186.073 115.453H205.069V110.323H186.073V115.453Z" fill="#C4D9ED"/>
<path d="M186.073 126.581H205.069V121.451H186.073V126.581Z" fill="#C4D9ED"/>
<path d="M186.073 137.708H205.069V132.577H186.073V137.708Z" fill="#C4D9ED"/>
<path d="M141.141 153.309H149.098V140.322H141.141V153.309Z" fill="#DCEAF9"/>
<path d="M143.572 122.606V158.66H59.2878L58.714 158.654L37.204 158.428C37.1856 158.393 37.1638 158.35 37.1385 158.303C37.1028 158.233 37.0614 158.152 37.0132 158.058C36.9971 158.026 36.9798 157.991 36.9603 157.955C36.897 157.828 36.8246 157.684 36.7441 157.518C36.6452 157.317 36.536 157.089 36.4141 156.834V156.833C35.9622 155.883 35.362 154.568 34.6801 152.932C34.4559 152.396 34.2248 151.823 33.9845 151.219C33.889 150.978 33.7936 150.733 33.697 150.482V150.481C33.6027 150.238 33.5085 149.99 33.4142 149.738C33.4107 149.73 33.4084 149.721 33.405 149.714C33.3406 149.54 33.2739 149.365 33.2083 149.185C33.1394 149.002 33.0715 148.817 33.0025 148.629C32.6507 147.661 32.2908 146.633 31.932 145.549C31.9228 145.521 31.9136 145.491 31.9033 145.464C31.9033 145.464 31.9033 145.464 31.9033 145.463C31.6687 144.754 31.4353 144.022 31.2042 143.266C31.0766 142.852 30.9512 142.431 30.8247 142.002C30.8178 141.977 30.8086 141.951 30.8017 141.923C30.7465 141.732 30.6914 141.543 30.6362 141.351C30.5902 141.189 30.5442 141.028 30.4993 140.865C30.405 140.53 30.3108 140.19 30.2176 139.848C30.098 139.408 29.9796 138.963 29.8635 138.511C29.7059 137.898 29.5519 137.274 29.4024 136.64C29.3575 136.449 29.3127 136.259 29.2679 136.067C29.1356 135.494 29.0057 134.914 28.8804 134.327C28.8401 134.138 28.7999 133.95 28.7608 133.76C28.7355 133.643 28.7113 133.525 28.6872 133.408C28.4975 132.479 28.3181 131.532 28.1502 130.567C27.9651 129.505 27.7938 128.422 27.6408 127.321C27.4994 126.305 27.3718 125.272 27.2614 124.226C27.1568 123.238 27.0682 122.238 26.9958 121.228C26.8245 118.861 26.7451 116.431 26.7785 113.958C26.8371 109.649 27.2407 105.204 28.1077 100.704C28.1387 100.54 28.1709 100.377 28.2043 100.212C28.4193 99.1413 28.6584 98.068 28.9275 96.9934C29.1322 96.1737 29.3529 95.3539 29.5898 94.5328C29.7623 93.9383 29.944 93.3437 30.1348 92.7479C30.566 91.4004 31.0444 90.0517 31.5744 88.7056H32.0252V87.5873C34.9009 80.643 39.1392 73.7644 45.1724 67.2577C45.2851 67.1354 45.3989 67.0157 45.5104 66.8947H45.8634V80.6855H56.7685V58.2144H68.8015V72.803H71.545V55.3857H83.5781V88.039H98.7973V107.08H104.483V111.878H117.544V103.617H125.043V81.1719H134.307V122.607H143.572V122.606Z" fill="#D5E7F7"/>
<path d="M71.5468 60.918H83.5867V57.5912H71.5468V60.918Z" fill="#C4D9ED"/>
<path d="M71.5468 67.168H83.5867V63.8412H71.5468V67.168Z" fill="#C4D9ED"/>
<path d="M71.5468 72.791H83.5867V69.4643H71.5468V72.791Z" fill="#C4D9ED"/>
<path d="M56.7735 72.791H68.8135V69.4643H56.7735V72.791Z" fill="#C4D9ED"/>
<path d="M56.7735 67.168H68.8135V63.8412H56.7735V67.168Z" fill="#C4D9ED"/>
<path d="M56.7735 61.5527H68.8135V58.226H56.7735V61.5527Z" fill="#C4D9ED"/>
<path d="M56.7707 78.2432H83.5872V74.9164H56.7707V78.2432Z" fill="#C4D9ED"/>
<path d="M56.7707 83.6963H83.5872V80.3696H56.7707V83.6963Z" fill="#C4D9ED"/>
<path d="M124.959 86.3096H134.304V81.1734H124.959V86.3096Z" fill="#C4D9ED"/>
<path d="M124.959 93.9473H134.304V88.8111H124.959V93.9473Z" fill="#C4D9ED"/>
<path d="M124.959 101.586H134.304V96.4498H124.959V101.586Z" fill="#C4D9ED"/>
<path d="M124.959 109.592H134.304V104.456H124.959V109.592Z" fill="#C4D9ED"/>
<path d="M124.959 117.35H134.304V112.214H124.959V117.35Z" fill="#C4D9ED"/>
<path d="M124.959 125.106H134.304V119.97H124.959V125.106Z" fill="#C4D9ED"/>
<path d="M124.959 133.224H134.304V128.087H124.959V133.224Z" fill="#C4D9ED"/>
<path d="M56.7707 87.8096H83.5872V85.6977H56.7707V87.8096Z" fill="#C4D9ED"/>
<path d="M125.088 81.1748H121.643V103.618H125.088V81.1748Z" fill="#C4D9ED"/>
<path d="M117.546 103.618H110.615V111.878H117.546V103.618Z" fill="#C4D9ED"/>
<path d="M56.773 58.2266V61.5546L56.7707 74.9167L56.7696 78.2447V80.6886H54.3813V58.4917C54.4894 58.4029 54.5964 58.3141 54.7021 58.2266H56.773Z" fill="#C4D9ED"/>
<path d="M71.5474 55.3857H70.0791V72.7901H71.5474V55.3857Z" fill="#C4D9ED"/>
<g opacity="0.8">
<g opacity="0.8">
<g opacity="0.8">
<g opacity="0.8">
<path opacity="0.8" d="M94.2715 94.5352H96.3113V91.3166H94.2715V94.5352Z" fill="#C4D9ED"/>
<path opacity="0.8" d="M90.4572 94.5352H92.4971V91.3166H90.4572V94.5352Z" fill="#C4D9ED"/>
<path opacity="0.8" d="M86.7278 94.5352H88.7676V91.3166H86.7278V94.5352Z" fill="#C4D9ED"/>
<path opacity="0.8" d="M83.1916 94.5352H85.2314V91.3166H83.1916V94.5352Z" fill="#C4D9ED"/>
<path opacity="0.8" d="M79.5888 94.5352H81.6287V91.3166H79.5888V94.5352Z" fill="#C4D9ED"/>
</g>
<g opacity="0.8">
<path opacity="0.8" d="M75.9438 94.5352H77.9836V91.3166H75.9438V94.5352Z" fill="#C4D9ED"/>
<path opacity="0.8" d="M72.1286 94.5352H74.1685V91.3166H72.1286V94.5352Z" fill="#C4D9ED"/>
<path opacity="0.8" d="M68.4001 94.5352H70.4399V91.3166H68.4001V94.5352Z" fill="#C4D9ED"/>
<path opacity="0.8" d="M64.8642 94.5352H66.9041V91.3166H64.8642V94.5352Z" fill="#C4D9ED"/>
<path opacity="0.8" d="M61.26 94.5352H63.2998V91.3166H61.26V94.5352Z" fill="#C4D9ED"/>
</g>
</g>
<g opacity="0.8">
<g opacity="0.8">
<path opacity="0.8" d="M57.5044 94.5352H59.5442V91.3166H57.5044V94.5352Z" fill="#C4D9ED"/>
<path opacity="0.8" d="M53.6892 94.5352H55.729V91.3166H53.6892V94.5352Z" fill="#C4D9ED"/>
<path opacity="0.8" d="M49.9609 94.5352H52.0007V91.3166H49.9609V94.5352Z" fill="#C4D9ED"/>
<path opacity="0.8" d="M46.4248 94.5352H48.4646V91.3166H46.4248V94.5352Z" fill="#C4D9ED"/>
<path opacity="0.8" d="M42.8208 94.5352H44.8606V91.3166H42.8208V94.5352Z" fill="#C4D9ED"/>
</g>
<g opacity="0.8">
<path opacity="0.8" d="M39.1758 94.5352H41.2156V91.3166H39.1758V94.5352Z" fill="#C4D9ED"/>
<path opacity="0.8" d="M35.3613 94.5352H37.4011V91.3166H35.3613V94.5352Z" fill="#C4D9ED"/>
<path opacity="0.8" d="M31.6318 94.5352H33.6716V91.3166H31.6318V94.5352Z" fill="#C4D9ED"/>
<path opacity="0.8" d="M30.1358 92.75V94.535H29.5908C29.7644 93.9404 29.9461 93.3458 30.1358 92.75Z" fill="#C4D9ED"/>
</g>
</g>
</g>
<g opacity="0.8">
<g opacity="0.8">
<g opacity="0.8">
<path opacity="0.8" d="M94.2715 100.213H96.3113V96.9943H94.2715V100.213Z" fill="#C4D9ED"/>
<path opacity="0.8" d="M90.4572 100.213H92.4971V96.9943H90.4572V100.213Z" fill="#C4D9ED"/>
<path opacity="0.8" d="M86.7278 100.213H88.7676V96.9943H86.7278V100.213Z" fill="#C4D9ED"/>
<path opacity="0.8" d="M83.1917 100.213H85.2314V96.9943H83.1917V100.213Z" fill="#C4D9ED"/>
<path opacity="0.8" d="M79.5889 100.213H81.6287V96.9943H79.5889V100.213Z" fill="#C4D9ED"/>
</g>
<g opacity="0.8">
<path opacity="0.8" d="M75.9438 100.213H77.9836V96.9943H75.9438V100.213Z" fill="#C4D9ED"/>
<path opacity="0.8" d="M72.1287 100.213H74.1685V96.9943H72.1287V100.213Z" fill="#C4D9ED"/>
<path opacity="0.8" d="M68.4001 100.213H70.4399V96.9943H68.4001V100.213Z" fill="#C4D9ED"/>
<path opacity="0.8" d="M64.864 100.213H66.9038V96.9943H64.864V100.213Z" fill="#C4D9ED"/>
<path opacity="0.8" d="M61.26 100.213H63.2998V96.9943H61.26V100.213Z" fill="#C4D9ED"/>
</g>
</g>
<g opacity="0.8">
<g opacity="0.8">
<path opacity="0.8" d="M57.5044 100.213H59.5442V96.9943H57.5044V100.213Z" fill="#C4D9ED"/>
<path opacity="0.8" d="M53.6892 100.213H55.729V96.9943H53.6892V100.213Z" fill="#C4D9ED"/>
<path opacity="0.8" d="M49.9609 100.213H52.0007V96.9943H49.9609V100.213Z" fill="#C4D9ED"/>
<path opacity="0.8" d="M46.4248 100.213H48.4646V96.9943H46.4248V100.213Z" fill="#C4D9ED"/>
<path opacity="0.8" d="M42.8208 100.213H44.8606V96.9943H42.8208V100.213Z" fill="#C4D9ED"/>
</g>
<g opacity="0.8">
<path opacity="0.8" d="M39.1758 100.213H41.2156V96.9943H39.1758V100.213Z" fill="#C4D9ED"/>
<path opacity="0.8" d="M35.3613 100.213H37.4011V96.9943H35.3613V100.213Z" fill="#C4D9ED"/>
<path opacity="0.8" d="M31.6318 100.213H33.6716V96.9943H31.6318V100.213Z" fill="#C4D9ED"/>
<path opacity="0.8" d="M30.1308 96.9941V100.213H28.2002C28.4152 99.142 28.6544 98.0687 28.9234 96.9941H30.1308Z" fill="#C4D9ED"/>
</g>
</g>
</g>
<g opacity="0.8">
<g opacity="0.8">
<g opacity="0.8">
<path opacity="0.8" d="M94.2715 105.805H96.3113V102.586H94.2715V105.805Z" fill="#C4D9ED"/>
<path opacity="0.8" d="M90.4572 105.805H92.4971V102.586H90.4572V105.805Z" fill="#C4D9ED"/>
<path opacity="0.8" d="M86.7278 105.805H88.7676V102.586H86.7278V105.805Z" fill="#C4D9ED"/>
<path opacity="0.8" d="M83.1916 105.805H85.2314V102.586H83.1916V105.805Z" fill="#C4D9ED"/>
<path opacity="0.8" d="M79.5888 105.805H81.6287V102.586H79.5888V105.805Z" fill="#C4D9ED"/>
</g>
<g opacity="0.8">
<path opacity="0.8" d="M75.9438 105.805H77.9836V102.586H75.9438V105.805Z" fill="#C4D9ED"/>
<path opacity="0.8" d="M72.1286 105.805H74.1685V102.586H72.1286V105.805Z" fill="#C4D9ED"/>
<path opacity="0.8" d="M68.4001 105.805H70.4399V102.586H68.4001V105.805Z" fill="#C4D9ED"/>
<path opacity="0.8" d="M64.8642 105.805H66.9041V102.586H64.8642V105.805Z" fill="#C4D9ED"/>
<path opacity="0.8" d="M61.26 105.805H63.2998V102.586H61.26V105.805Z" fill="#C4D9ED"/>
</g>
</g>
<g opacity="0.8">
<g opacity="0.8">
<path opacity="0.8" d="M57.5044 105.805H59.5442V102.586H57.5044V105.805Z" fill="#C4D9ED"/>
<path opacity="0.8" d="M53.6892 105.805H55.729V102.586H53.6892V105.805Z" fill="#C4D9ED"/>
<path opacity="0.8" d="M49.9609 105.805H52.0007V102.586H49.9609V105.805Z" fill="#C4D9ED"/>
<path opacity="0.8" d="M46.4248 105.805H48.4646V102.586H46.4248V105.805Z" fill="#C4D9ED"/>
<path opacity="0.8" d="M42.8208 105.805H44.8606V102.586H42.8208V105.805Z" fill="#C4D9ED"/>
</g>
<g opacity="0.8">
<path opacity="0.8" d="M39.1758 105.805H41.2156V102.586H39.1758V105.805Z" fill="#C4D9ED"/>
<path opacity="0.8" d="M35.3616 105.805H37.4014V102.586H35.3616V105.805Z" fill="#C4D9ED"/>
<path opacity="0.8" d="M31.6318 105.805H33.6716V102.586H31.6318V105.805Z" fill="#C4D9ED"/>
<path opacity="0.8" d="M28.0959 105.805H30.1357V102.586H28.0959V105.805Z" fill="#C4D9ED"/>
</g>
</g>
</g>
<g opacity="0.8">
<g opacity="0.8">
<g opacity="0.8">
<g opacity="0.8">
<path opacity="0.8" d="M94.2715 111.746H96.3113V108.527H94.2715V111.746Z" fill="#C4D9ED"/>
<path opacity="0.8" d="M90.4572 111.746H92.4971V108.527H90.4572V111.746Z" fill="#C4D9ED"/>
<path opacity="0.8" d="M86.7278 111.746H88.7676V108.527H86.7278V111.746Z" fill="#C4D9ED"/>
<path opacity="0.8" d="M83.1916 111.746H85.2314V108.527H83.1916V111.746Z" fill="#C4D9ED"/>
<path opacity="0.8" d="M79.5888 111.746H81.6287V108.527H79.5888V111.746Z" fill="#C4D9ED"/>
</g>
<g opacity="0.8">
<path opacity="0.8" d="M75.9438 111.746H77.9836V108.527H75.9438V111.746Z" fill="#C4D9ED"/>
<path opacity="0.8" d="M72.1286 111.746H74.1685V108.527H72.1286V111.746Z" fill="#C4D9ED"/>
<path opacity="0.8" d="M68.4001 111.746H70.4399V108.527H68.4001V111.746Z" fill="#C4D9ED"/>
<path opacity="0.8" d="M64.8642 111.746H66.9041V108.527H64.8642V111.746Z" fill="#C4D9ED"/>
<path opacity="0.8" d="M61.26 111.746H63.2998V108.527H61.26V111.746Z" fill="#C4D9ED"/>
</g>
</g>
<g opacity="0.8">
<g opacity="0.8">
<path opacity="0.8" d="M57.5044 111.746H59.5442V108.527H57.5044V111.746Z" fill="#C4D9ED"/>
<path opacity="0.8" d="M53.6892 111.746H55.729V108.527H53.6892V111.746Z" fill="#C4D9ED"/>
<path opacity="0.8" d="M49.9609 111.746H52.0007V108.527H49.9609V111.746Z" fill="#C4D9ED"/>
<path opacity="0.8" d="M46.4248 111.746H48.4646V108.527H46.4248V111.746Z" fill="#C4D9ED"/>
<path opacity="0.8" d="M42.8208 111.746H44.8606V108.527H42.8208V111.746Z" fill="#C4D9ED"/>
</g>
<g opacity="0.8">
<path opacity="0.8" d="M39.1758 111.746H41.2156V108.527H39.1758V111.746Z" fill="#C4D9ED"/>
<path opacity="0.8" d="M35.3616 111.746H37.4014V108.527H35.3616V111.746Z" fill="#C4D9ED"/>
<path opacity="0.8" d="M31.6318 111.746H33.6716V108.527H31.6318V111.746Z" fill="#C4D9ED"/>
<path opacity="0.8" d="M28.0959 111.746H30.1357V108.527H28.0959V111.746Z" fill="#C4D9ED"/>
</g>
</g>
</g>
<g opacity="0.8">
<g opacity="0.8">
<g opacity="0.8">
<path opacity="0.8" d="M94.2715 117.425H96.3113V114.207H94.2715V117.425Z" fill="#C4D9ED"/>
<path opacity="0.8" d="M90.4572 117.425H92.4971V114.207H90.4572V117.425Z" fill="#C4D9ED"/>
<path opacity="0.8" d="M86.7278 117.425H88.7676V114.207H86.7278V117.425Z" fill="#C4D9ED"/>
<path opacity="0.8" d="M83.1916 117.425H85.2314V114.207H83.1916V117.425Z" fill="#C4D9ED"/>
<path opacity="0.8" d="M79.5888 117.425H81.6287V114.207H79.5888V117.425Z" fill="#C4D9ED"/>
</g>
<g opacity="0.8">
<path opacity="0.8" d="M75.9438 117.425H77.9836V114.207H75.9438V117.425Z" fill="#C4D9ED"/>
<path opacity="0.8" d="M72.1286 117.425H74.1685V114.207H72.1286V117.425Z" fill="#C4D9ED"/>
<path opacity="0.8" d="M68.4001 117.425H70.4399V114.207H68.4001V117.425Z" fill="#C4D9ED"/>
<path opacity="0.8" d="M64.8642 117.425H66.9041V114.207H64.8642V117.425Z" fill="#C4D9ED"/>
<path opacity="0.8" d="M61.26 117.425H63.2998V114.207H61.26V117.425Z" fill="#C4D9ED"/>
</g>
</g>
<g opacity="0.8">
<g opacity="0.8">
<path opacity="0.8" d="M57.5044 117.425H59.5442V114.207H57.5044V117.425Z" fill="#C4D9ED"/>
<path opacity="0.8" d="M53.6892 117.425H55.729V114.207H53.6892V117.425Z" fill="#C4D9ED"/>
<path opacity="0.8" d="M49.9609 117.425H52.0007V114.207H49.9609V117.425Z" fill="#C4D9ED"/>
<path opacity="0.8" d="M46.4248 117.425H48.4646V114.207H46.4248V117.425Z" fill="#C4D9ED"/>
<path opacity="0.8" d="M42.8208 117.425H44.8606V114.207H42.8208V117.425Z" fill="#C4D9ED"/>
</g>
<g opacity="0.8">
<path opacity="0.8" d="M39.1758 117.425H41.2156V114.207H39.1758V117.425Z" fill="#C4D9ED"/>
<path opacity="0.8" d="M35.3616 117.425H37.4014V114.207H35.3616V117.425Z" fill="#C4D9ED"/>
<path opacity="0.8" d="M31.6318 117.425H33.6716V114.207H31.6318V117.425Z" fill="#C4D9ED"/>
<path opacity="0.8" d="M28.0959 117.425H30.1357V114.207H28.0959V117.425Z" fill="#C4D9ED"/>
</g>
</g>
</g>
<g opacity="0.8">
<g opacity="0.8">
<g opacity="0.8">
<path opacity="0.8" d="M94.2715 123.016H96.3113V119.797H94.2715V123.016Z" fill="#C4D9ED"/>
<path opacity="0.8" d="M90.4572 123.016H92.4971V119.797H90.4572V123.016Z" fill="#C4D9ED"/>
<path opacity="0.8" d="M86.7278 123.016H88.7676V119.797H86.7278V123.016Z" fill="#C4D9ED"/>
<path opacity="0.8" d="M83.1916 123.016H85.2314V119.797H83.1916V123.016Z" fill="#C4D9ED"/>
<path opacity="0.8" d="M79.5888 123.016H81.6287V119.797H79.5888V123.016Z" fill="#C4D9ED"/>
</g>
<g opacity="0.8">
<path opacity="0.8" d="M75.9438 123.016H77.9836V119.797H75.9438V123.016Z" fill="#C4D9ED"/>
<path opacity="0.8" d="M72.1286 123.016H74.1685V119.797H72.1286V123.016Z" fill="#C4D9ED"/>
<path opacity="0.8" d="M68.4001 123.016H70.4399V119.797H68.4001V123.016Z" fill="#C4D9ED"/>
<path opacity="0.8" d="M64.8642 123.016H66.9041V119.797H64.8642V123.016Z" fill="#C4D9ED"/>
<path opacity="0.8" d="M61.26 123.016H63.2998V119.797H61.26V123.016Z" fill="#C4D9ED"/>
</g>
</g>
<g opacity="0.8">
<g opacity="0.8">
<path opacity="0.8" d="M57.5044 123.016H59.5442V119.797H57.5044V123.016Z" fill="#C4D9ED"/>
<path opacity="0.8" d="M53.6892 123.016H55.729V119.797H53.6892V123.016Z" fill="#C4D9ED"/>
<path opacity="0.8" d="M49.9609 123.016H52.0007V119.797H49.9609V123.016Z" fill="#C4D9ED"/>
<path opacity="0.8" d="M46.4248 123.016H48.4646V119.797H46.4248V123.016Z" fill="#C4D9ED"/>
<path opacity="0.8" d="M42.8208 123.016H44.8606V119.797H42.8208V123.016Z" fill="#C4D9ED"/>
</g>
<g opacity="0.8">
<path opacity="0.8" d="M39.1758 123.016H41.2156V119.797H39.1758V123.016Z" fill="#C4D9ED"/>
<path opacity="0.8" d="M35.3616 123.016H37.4014V119.797H35.3616V123.016Z" fill="#C4D9ED"/>
<path opacity="0.8" d="M31.6318 123.016H33.6716V119.797H31.6318V123.016Z" fill="#C4D9ED"/>
<path opacity="0.8" d="M28.0959 123.016H30.1357V119.797H28.0959V123.016Z" fill="#C4D9ED"/>
</g>
</g>
</g>
</g>
</g>
<path d="M63.2686 159.025L110.615 159.051V129.88H63.3352L63.2686 159.025Z" fill="#C4D9ED"/>
<path d="M99.1871 158.428H146.467V144.153H99.1871V158.428Z" fill="#C4D9ED"/>
<path d="M59.5442 134.328V159.026L37.4811 159.06C37.4627 159.026 37.1638 158.351 37.1385 158.304C37.1028 158.234 37.0615 158.153 37.0132 158.059C36.9971 158.027 36.9798 157.992 36.9603 157.956C36.897 157.829 36.8246 157.685 36.7441 157.519C36.6452 157.318 36.536 157.09 36.4141 156.835V156.834C35.9622 155.884 35.362 154.569 34.6801 152.933C34.4559 152.397 34.2248 151.824 33.9845 151.22C33.8891 150.978 33.7936 150.734 33.697 150.483V150.482C33.6027 150.238 33.5085 149.991 33.4142 149.739C33.4107 149.731 33.4084 149.722 33.405 149.715C33.3406 149.541 33.2739 149.366 33.2084 149.186C33.1394 149.003 33.0715 148.818 33.0025 148.63C32.6507 147.662 32.2908 146.634 31.932 145.55C31.9228 145.522 31.9136 145.492 31.9033 145.465C31.9033 145.465 31.9033 145.465 31.9033 145.464C31.6687 144.755 31.4353 144.023 31.2042 143.267C31.0766 142.853 30.9512 142.432 30.8247 142.003C30.8178 141.978 30.8086 141.952 30.8017 141.924C30.7466 141.733 30.6914 141.544 30.6362 141.352C30.5902 141.19 30.5442 141.029 30.4993 140.866C30.4051 140.531 30.3108 140.191 30.2176 139.849C30.098 139.409 29.9796 138.964 29.8635 138.512C29.706 137.899 29.5519 137.275 29.4024 136.641C29.3576 136.45 29.3127 136.26 29.2679 136.068C29.1356 135.495 29.0057 134.915 28.8804 134.328H59.5442Z" fill="#C4D9ED"/>
<path d="M98.6478 138.511H107.457V133.224H98.6478V138.511Z" fill="#D5E7F7"/>
<path d="M87.3395 138.511H96.1484V133.224H87.3395V138.511Z" fill="#D5E7F7"/>
<path d="M76.2477 138.511H85.0566V133.224H76.2477V138.511Z" fill="#D5E7F7"/>
<path d="M65.3691 138.511H74.178V133.224H65.3691V138.511Z" fill="#D5E7F7"/>
<path d="M63.8262 129.88H59.2878V159.025H63.8262V129.88Z" fill="#ADC9E0"/>
<path d="M132.202 81.1748H132.444V78.9395H132.202V81.1748Z" fill="#DCEAF9"/>
<path d="M123.373 81.1748H123.615V78.9395H123.373V81.1748Z" fill="#DCEAF9"/>
<path d="M27.2625 124.228C27.3728 125.274 27.5005 126.307 27.6419 127.323C27.7948 128.423 27.965 129.507 28.1513 130.568C28.3192 131.532 28.4985 132.479 28.6882 133.41C28.7124 133.527 28.7365 133.644 28.7618 133.761C28.8009 133.95 28.84 134.139 28.8814 134.329C29.0068 134.916 29.1367 135.496 29.2689 136.069C29.3126 136.259 29.3575 136.451 29.4034 136.641C29.5529 137.276 29.707 137.899 29.8645 138.512C29.9807 138.964 30.0991 139.411 30.2187 139.85C30.3118 140.192 30.4061 140.53 30.5004 140.866C30.5452 141.03 30.5912 141.191 30.6372 141.353C30.6924 141.544 30.7476 141.735 30.8028 141.924C30.8097 141.952 30.8189 141.978 30.8258 142.004C30.9511 142.431 31.0776 142.852 31.2052 143.268C31.4364 144.023 31.6698 144.755 31.9043 145.464C31.9043 145.466 31.9043 145.466 31.9043 145.466C31.9135 145.494 31.9227 145.524 31.9331 145.551C32.2918 146.634 32.6517 147.663 33.0036 148.63C33.0726 148.818 33.1404 149.004 33.2094 149.186C33.2749 149.365 33.3416 149.541 33.406 149.715C33.4095 149.723 33.4118 149.732 33.4152 149.74V124.228H27.2625Z" fill="#D5E7F7"/>
<path d="M33.4141 133.762V149.739C33.4107 149.732 33.4084 149.722 33.4049 149.715C33.3405 149.541 33.2738 149.366 33.2083 149.186C33.1393 149.003 33.0715 148.818 33.0025 148.63C32.6506 147.662 32.2907 146.634 31.932 145.55C31.9228 145.522 31.9136 145.492 31.9032 145.465C31.9032 145.465 31.9032 145.465 31.9032 145.464C31.6687 144.755 31.4353 144.023 31.2041 143.267C31.0765 142.853 30.9512 142.432 30.8247 142.004C30.8178 141.978 30.8086 141.952 30.8017 141.924C30.7465 141.733 30.6913 141.544 30.6361 141.352C30.5901 141.19 30.5441 141.029 30.4993 140.866C30.405 140.531 30.3107 140.192 30.2176 139.849C30.098 139.409 29.9796 138.964 29.8634 138.512C29.7059 137.9 29.5518 137.275 29.4023 136.641C29.3575 136.45 29.3127 136.26 29.2678 136.068C29.1356 135.496 29.0057 134.915 28.8803 134.328C28.8401 134.139 28.7998 133.951 28.7607 133.761H33.4141V133.762Z" fill="#D5E7F7"/>
<path d="M33.4141 130.569V138.512H29.8634C29.7059 137.899 29.5518 137.275 29.4023 136.64C29.3575 136.45 29.3126 136.259 29.2678 136.068C29.1356 135.495 29.0056 134.915 28.8803 134.328C28.84 134.139 28.7998 133.951 28.7607 133.76C28.7354 133.643 28.7113 133.526 28.6871 133.409C28.4974 132.48 28.318 131.533 28.1501 130.567H33.4141V130.569Z" fill="#C4D9ED"/>
<path d="M31.2029 140.865V143.267C31.0753 142.852 30.9499 142.431 30.8235 142.003C30.8166 141.977 30.8074 141.951 30.8005 141.923C30.7453 141.733 30.6901 141.543 30.6349 141.352C30.5889 141.19 30.5429 141.029 30.498 140.865H31.2029Z" fill="#C4D9ED"/>
<path d="M29.537 135.513H30.9375V132.8H29.537V135.513Z" fill="#ADC9E0"/>
<path d="M137.517 158.196H169.98V133.761H137.517V158.196Z" fill="#D5E7F7"/>
<path d="M137.517 138.511H169.98V130.569H137.517V138.511Z" fill="#C4D9ED"/>
<path d="M166.103 143.496H167.77V140.866H166.103V143.496Z" fill="#C4D9ED"/>
<path d="M162.985 143.496H164.652V140.866H162.985V143.496Z" fill="#C4D9ED"/>
<path d="M159.938 143.496H161.605V140.866H159.938V143.496Z" fill="#C4D9ED"/>
<path d="M157.047 143.496H158.714V140.866H157.047V143.496Z" fill="#C4D9ED"/>
<path d="M154.102 143.496H155.769V140.866H154.102V143.496Z" fill="#C4D9ED"/>
<path d="M151.123 143.496H152.79V140.866H151.123V143.496Z" fill="#C4D9ED"/>
<path d="M148.004 143.496H149.672V140.866H148.004V143.496Z" fill="#C4D9ED"/>
<path d="M144.957 143.496H146.624V140.866H144.957V143.496Z" fill="#C4D9ED"/>
<path d="M142.066 143.496H143.733V140.866H142.066V143.496Z" fill="#C4D9ED"/>
<path d="M139.121 143.496H140.788V140.866H139.121V143.496Z" fill="#C4D9ED"/>
<path d="M166.102 148.138H167.77V145.507H166.102V148.138Z" fill="#C4D9ED"/>
<path d="M162.985 148.138H164.652V145.507H162.985V148.138Z" fill="#C4D9ED"/>
<path d="M159.937 148.138H161.604V145.507H159.937V148.138Z" fill="#C4D9ED"/>
<path d="M157.047 148.138H158.714V145.507H157.047V148.138Z" fill="#C4D9ED"/>
<path d="M154.102 148.138H155.769V145.507H154.102V148.138Z" fill="#C4D9ED"/>
<path d="M151.123 148.138H152.79V145.507H151.123V148.138Z" fill="#C4D9ED"/>
<path d="M148.005 148.138H149.672V145.507H148.005V148.138Z" fill="#C4D9ED"/>
<path d="M144.957 148.138H146.624V145.507H144.957V148.138Z" fill="#C4D9ED"/>
<path d="M142.066 148.138H143.733V145.507H142.066V148.138Z" fill="#C4D9ED"/>
<path d="M139.121 148.138H140.788V145.507H139.121V148.138Z" fill="#C4D9ED"/>
<path d="M166.102 152.708H167.77V150.078H166.102V152.708Z" fill="#C4D9ED"/>
<path d="M162.985 152.708H164.652V150.078H162.985V152.708Z" fill="#C4D9ED"/>
<path d="M159.937 152.708H161.604V150.078H159.937V152.708Z" fill="#C4D9ED"/>
<path d="M157.047 152.708H158.714V150.078H157.047V152.708Z" fill="#C4D9ED"/>
<path d="M154.102 152.708H155.769V150.078H154.102V152.708Z" fill="#C4D9ED"/>
<path d="M151.123 152.708H152.79V150.078H151.123V152.708Z" fill="#C4D9ED"/>
<path d="M148.005 152.708H149.672V150.078H148.005V152.708Z" fill="#C4D9ED"/>
<path d="M144.957 152.708H146.624V150.078H144.957V152.708Z" fill="#C4D9ED"/>
<path d="M142.066 152.708H143.733V150.078H142.066V152.708Z" fill="#C4D9ED"/>
<path d="M139.121 152.708H140.788V150.078H139.121V152.708Z" fill="#C4D9ED"/>
<path d="M166.103 135.513H167.503V132.8H166.103V135.513Z" fill="#ADC9E0"/>
<path d="M152.193 135.513H153.594V132.8H152.193V135.513Z" fill="#ADC9E0"/>
<path d="M141.128 135.513H142.53V132.8H141.128V135.513Z" fill="#ADC9E0"/>
<path d="M172.019 158.196H204.483V133.761H172.019V158.196Z" fill="#D5E7F7"/>
<path d="M172.019 138.511H204.483V130.569H172.019V138.511Z" fill="#C4D9ED"/>
<path d="M200.605 143.496H202.272V140.866H200.605V143.496Z" fill="#C4D9ED"/>
<path d="M197.487 143.496H199.154V140.866H197.487V143.496Z" fill="#C4D9ED"/>
<path d="M194.439 143.496H196.106V140.866H194.439V143.496Z" fill="#C4D9ED"/>
<path d="M191.549 143.496H193.217V140.866H191.549V143.496Z" fill="#C4D9ED"/>
<path d="M188.604 143.496H190.271V140.866H188.604V143.496Z" fill="#C4D9ED"/>
<path d="M185.624 143.496H187.292V140.866H185.624V143.496Z" fill="#C4D9ED"/>
<path d="M182.507 143.496H184.174V140.866H182.507V143.496Z" fill="#C4D9ED"/>
<path d="M179.459 143.496H181.126V140.866H179.459V143.496Z" fill="#C4D9ED"/>
<path d="M176.569 143.496H178.236V140.866H176.569V143.496Z" fill="#C4D9ED"/>
<path d="M173.624 143.496H175.291V140.866H173.624V143.496Z" fill="#C4D9ED"/>
<path d="M200.605 148.138H202.272V145.507H200.605V148.138Z" fill="#C4D9ED"/>
<path d="M197.487 148.138H199.154V145.507H197.487V148.138Z" fill="#C4D9ED"/>
<path d="M194.439 148.138H196.106V145.507H194.439V148.138Z" fill="#C4D9ED"/>
<path d="M191.549 148.138H193.217V145.507H191.549V148.138Z" fill="#C4D9ED"/>
<path d="M188.604 148.138H190.271V145.507H188.604V148.138Z" fill="#C4D9ED"/>
<path d="M185.624 148.138H187.292V145.507H185.624V148.138Z" fill="#C4D9ED"/>
<path d="M182.507 148.138H184.174V145.507H182.507V148.138Z" fill="#C4D9ED"/>
<path d="M179.459 148.138H181.126V145.507H179.459V148.138Z" fill="#C4D9ED"/>
<path d="M176.569 148.138H178.236V145.507H176.569V148.138Z" fill="#C4D9ED"/>
<path d="M173.624 148.138H175.291V145.507H173.624V148.138Z" fill="#C4D9ED"/>
<path d="M200.605 152.708H202.272V150.078H200.605V152.708Z" fill="#C4D9ED"/>
<path d="M197.487 152.708H199.154V150.078H197.487V152.708Z" fill="#C4D9ED"/>
<path d="M194.439 152.708H196.106V150.078H194.439V152.708Z" fill="#C4D9ED"/>
<path d="M191.549 152.708H193.217V150.078H191.549V152.708Z" fill="#C4D9ED"/>
<path d="M188.604 152.708H190.271V150.078H188.604V152.708Z" fill="#C4D9ED"/>
<path d="M185.624 152.708H187.292V150.078H185.624V152.708Z" fill="#C4D9ED"/>
<path d="M182.507 152.708H184.174V150.078H182.507V152.708Z" fill="#C4D9ED"/>
<path d="M179.459 152.708H181.126V150.078H179.459V152.708Z" fill="#C4D9ED"/>
<path d="M176.569 152.708H178.236V150.078H176.569V152.708Z" fill="#C4D9ED"/>
<path d="M173.624 152.708H175.291V150.078H173.624V152.708Z" fill="#C4D9ED"/>
<path d="M200.606 135.513H202.006V132.8H200.606V135.513Z" fill="#ADC9E0"/>
<path d="M186.696 135.513H188.097V132.8H186.696V135.513Z" fill="#ADC9E0"/>
<path d="M175.632 135.513H177.032V132.8H175.632V135.513Z" fill="#ADC9E0"/>
<path d="M239.061 133.762H206.598V159.02H239.061V133.762Z" fill="#D5E7F7"/>
<path d="M206.598 138.511H239.062V130.569H206.598V138.511Z" fill="#C4D9ED"/>
<path d="M235.183 143.496H236.851V140.866H235.183V143.496Z" fill="#C4D9ED"/>
<path d="M232.066 143.496H233.733V140.866H232.066V143.496Z" fill="#C4D9ED"/>
<path d="M229.017 143.496H230.685V140.866H229.017V143.496Z" fill="#C4D9ED"/>
<path d="M226.128 143.496H227.795V140.866H226.128V143.496Z" fill="#C4D9ED"/>
<path d="M223.182 143.496H224.849V140.866H223.182V143.496Z" fill="#C4D9ED"/>
<path d="M220.203 143.496H221.87V140.866H220.203V143.496Z" fill="#C4D9ED"/>
<path d="M217.085 143.496H218.753V140.866H217.085V143.496Z" fill="#C4D9ED"/>
<path d="M214.038 143.496H215.705V140.866H214.038V143.496Z" fill="#C4D9ED"/>
<path d="M211.147 143.496H212.814V140.866H211.147V143.496Z" fill="#C4D9ED"/>
<path d="M208.202 143.496H209.869V140.866H208.202V143.496Z" fill="#C4D9ED"/>
<path d="M235.183 148.138H236.851V145.507H235.183V148.138Z" fill="#C4D9ED"/>
<path d="M232.066 148.138H233.733V145.507H232.066V148.138Z" fill="#C4D9ED"/>
<path d="M229.017 148.138H230.685V145.507H229.017V148.138Z" fill="#C4D9ED"/>
<path d="M226.128 148.138H227.795V145.507H226.128V148.138Z" fill="#C4D9ED"/>
<path d="M223.182 148.138H224.849V145.507H223.182V148.138Z" fill="#C4D9ED"/>
<path d="M220.203 148.138H221.87V145.507H220.203V148.138Z" fill="#C4D9ED"/>
<path d="M217.085 148.138H218.753V145.507H217.085V148.138Z" fill="#C4D9ED"/>
<path d="M214.038 148.138H215.705V145.507H214.038V148.138Z" fill="#C4D9ED"/>
<path d="M211.147 148.138H212.814V145.507H211.147V148.138Z" fill="#C4D9ED"/>
<path d="M208.202 148.138H209.869V145.507H208.202V148.138Z" fill="#C4D9ED"/>
<path d="M235.183 152.708H236.851V150.078H235.183V152.708Z" fill="#C4D9ED"/>
<path d="M232.066 152.708H233.733V150.078H232.066V152.708Z" fill="#C4D9ED"/>
<path d="M229.017 152.708H230.685V150.078H229.017V152.708Z" fill="#C4D9ED"/>
<path d="M226.128 152.708H227.795V150.078H226.128V152.708Z" fill="#C4D9ED"/>
<path d="M223.182 152.708H224.849V150.078H223.182V152.708Z" fill="#C4D9ED"/>
<path d="M220.203 152.708H221.87V150.078H220.203V152.708Z" fill="#C4D9ED"/>
<path d="M217.085 152.708H218.753V150.078H217.085V152.708Z" fill="#C4D9ED"/>
<path d="M214.038 152.708H215.705V150.078H214.038V152.708Z" fill="#C4D9ED"/>
<path d="M211.147 152.708H212.814V150.078H211.147V152.708Z" fill="#C4D9ED"/>
<path d="M208.202 152.708H209.869V150.078H208.202V152.708Z" fill="#C4D9ED"/>
<path d="M235.184 135.513H236.585V132.8H235.184V135.513Z" fill="#ADC9E0"/>
<path d="M221.275 135.513H222.676V132.8H221.275V135.513Z" fill="#ADC9E0"/>
<path d="M210.21 135.513H211.611V132.8H210.21V135.513Z" fill="#ADC9E0"/>
<path d="M310.871 158.954H293.413C292.477 158.066 294.06 156.048 295.714 155.913C296.432 155.852 297.341 156.02 298.378 156.265C298.618 152.694 299.99 136.64 305.161 137.285C310.974 138.006 305.161 144.355 303.518 148.113C302.3 150.896 301.016 154.888 300.429 156.772C300.901 156.887 301.389 156.999 301.889 157.102C302.66 154.453 305.528 145.547 309.174 146.065C313.455 146.673 311.734 150.244 308.7 152.365C306.474 153.923 303.741 156.139 302.441 157.21C303.542 157.411 304.69 157.547 305.855 157.516C308.846 157.437 310.305 158.422 310.871 158.954Z" fill="#A8D29F"/>
<path d="M232.265 52.0433C232.265 52.0433 231.703 49.028 230.301 48.3369C228.898 47.6458 228.056 44.8828 227.495 45.6357C226.934 46.3898 227.663 51.414 228.73 52.042C229.796 52.67 230.302 53.3186 230.302 53.3186L232.265 52.0433Z" fill="#9C5F33"/>
<path d="M256.349 40.0439C256.349 40.0439 247.406 57.5024 244.161 60.7159L232.264 50.7885C232.264 50.7885 230.538 51.3805 229.781 53.3212C229.781 53.3212 237.005 69.7952 244.118 70.4927C251.231 71.1915 261.215 50.7473 261.215 50.7473L256.349 40.0439Z" fill="#E58638"/>
<path d="M284.027 148.067C284.027 148.067 286.094 150.213 285.69 151.737C285.287 153.26 283.421 154.277 283.169 156.139C282.917 158.001 281.909 159.018 281 159.018C280.093 159.018 276.672 159.018 276.672 159.018C276.672 159.018 276.004 157.707 277.617 157.311C279.231 156.916 279.84 154.727 279.739 152.695C279.638 150.663 279.891 147.954 279.891 147.954L283.321 147.051L284.027 148.067Z" fill="#233862"/>
<path d="M258.255 158.941C258.195 158.975 258.091 159.006 257.948 159.034H246.535C246.624 158.589 246.974 157.67 248.371 157.416C250.179 157.088 253.312 155.913 254.01 153.325C254.032 153.241 254.053 153.158 254.07 153.07C254.624 150.303 258.659 153.917 258.659 153.917C258.659 153.917 258.671 154.028 258.689 154.216C258.782 155.23 259.021 158.511 258.255 158.941Z" fill="#233862"/>
<path d="M248.85 84.9619C248.85 84.9619 249.463 93.5187 250.183 103.804C251.161 117.776 252.338 134.938 252.455 138.189C252.656 143.835 253.464 152.865 253.464 152.865C253.464 152.865 255.38 155.011 259.213 154.106C259.213 154.106 262.629 141.215 263.606 127.575C263.621 127.351 263.636 127.126 263.651 126.9C264.558 113.014 265.97 83.7754 265.97 83.7754L248.85 84.9619Z" fill="#2B478B"/>
<path d="M248.85 84.9616C248.85 84.9616 249.463 93.5184 250.183 103.804L263.606 127.576C263.621 127.352 263.636 127.127 263.651 126.901C264.558 113.015 265.97 83.7764 265.97 83.7764L248.85 84.9616Z" fill="#233862"/>
<path d="M251.648 85.9785C251.648 85.9785 262.694 116.966 269.955 131.531C277.216 146.095 279.487 150.158 279.487 150.158C279.487 150.158 283.647 148.295 284.025 147.025C284.025 147.025 281.249 118.911 276.385 112.057C273.637 108.184 270.409 96.5622 270.257 92.498C270.106 88.4339 269.274 80.3906 269.274 80.3906L251.648 85.9785Z" fill="#2B478B"/>
<path d="M257.313 38.1443C256.822 34.8986 256.807 32.976 256.807 32.976L262.411 27.9209C262.203 34.8716 266.182 38.2138 266.182 38.2138C266.182 38.2138 258.714 42.3281 254.399 40.8043C254.398 40.8031 255.46 39.2832 257.313 38.1443Z" fill="#9C5F33"/>
<path d="M255.487 32.861C255.487 32.861 262.616 34.1865 263.285 29.2048C263.954 24.2231 265.325 21.0392 260.801 19.9827C256.278 18.9261 255.136 20.6776 254.552 22.2798C253.968 23.8808 253.649 32.3887 255.487 32.861Z" fill="#AB7041"/>
<path d="M248.374 85.6745C248.504 85.7955 248.654 85.8675 248.828 85.8675C250.448 85.8431 255.175 86.8508 259.174 86.3913C262.546 86.0284 265.529 84.9114 268.734 83.304C269.159 83.0904 270.139 82.5048 270.117 81.9733C270.104 81.3903 270.051 80.5448 269.986 79.4805C269.76 75.778 269.364 69.4116 269.749 62.0658C269.818 60.6978 269.855 59.3414 269.86 58.0055C269.893 48.0499 268.129 39.2923 264.584 36.3285C264.282 36.0853 262.423 37.102 260.715 38.0453C259.137 38.9165 257.56 39.013 256.069 38.6746L254.578 40.1494C252.763 42.036 250.775 44.6009 249.91 48.4951C249.174 51.809 248.743 57.7842 248.505 63.9769C248.397 66.7824 248.311 69.6136 248.288 72.2995V72.396C248.267 72.6624 248.267 72.9532 248.267 73.2196C248.179 80.1111 248.266 85.5767 248.374 85.6745Z" fill="#EE9849"/>
<path d="M269.985 79.4798C269.758 75.7773 269.363 69.4109 269.748 62.0651C269.817 60.6971 269.854 59.3407 269.858 58.0048C268.382 53.996 267.175 51.0889 267.175 51.0889H263.453C263.454 51.0889 260.725 71.9474 269.985 79.4798Z" fill="#E58638"/>
<path d="M294.373 98.0665L293.382 90.2793C293.086 87.9589 291.148 86.331 289.074 86.6617L283.62 87.5317L283.408 85.8715C283.31 85.1032 282.672 84.5679 281.987 84.6773L277.246 85.434C276.915 85.4867 276.621 85.6824 276.419 85.9822C276.217 86.2834 276.132 86.654 276.179 87.0246L276.391 88.6848L273.231 89.1892C273.106 89.2098 272.983 89.2369 272.862 89.269L271.128 89.5457C269.062 89.8752 267.613 92.0359 267.907 94.3485L268.887 102.047C269.181 104.358 271.112 105.981 273.178 105.652L274.474 105.444C274.743 105.468 275.019 105.46 275.297 105.415L291.141 102.887C293.213 102.557 294.668 100.388 294.373 98.0665ZM277.356 86.3052L282.097 85.5485C282.146 85.5408 282.193 85.5421 282.238 85.5498C282.435 85.5858 282.597 85.7609 282.627 85.9938L282.839 87.6539L277.169 88.5587L276.957 86.8985C276.922 86.6128 277.1 86.3464 277.356 86.3052Z" fill="#233862"/>
<path d="M277.225 80.7769L277.931 82.1398C277.931 82.1398 276.547 85.4202 279.831 86.6453C279.831 86.6453 281.244 87.0443 281.365 85.9478C281.485 84.8514 281.277 85.2825 281.482 83.7356C281.687 82.1887 281.147 80.8104 280.128 80.4423L279.323 79.5801L277.225 80.7769Z" fill="#AB7041"/>
<path d="M279.099 81.1489C277.758 81.4411 276.306 81.3227 276.306 81.3227C276.306 81.3227 272.327 67.5667 271.816 66.3106C271.304 65.0546 259.998 50.1816 259.998 50.1816L264.707 36.9893C264.707 36.9893 276.936 59.8503 278.176 63.0624C280.228 68.371 280.941 80.2713 280.941 80.2713C280.941 80.2713 280.152 80.9199 279.099 81.1489Z" fill="#EE9849"/>
<path d="M263.291 28.7257C263.291 28.7257 262.559 28.5893 262.677 27.4606C262.794 26.332 262.793 24.8585 261.974 25.1339C261.154 25.408 261.114 26.1428 260.777 25.7143C260.44 25.2857 260.435 23.4789 257.997 23.354C255.559 23.2279 254.568 24.1777 253.434 23.6204C252.301 23.0632 252.241 21.1418 252.241 21.1418C252.241 21.1418 252.563 21.8278 253.05 22.0452C253.05 22.0452 251.159 19.1497 253.348 17.1652C255.537 15.1795 257.77 16.4793 259.037 16.5655C261.829 16.7547 263.632 16.9426 264.545 18.9952C265.459 21.0479 265.082 26.749 263.291 28.7257Z" fill="#2B478B"/>
<path d="M231.787 49.395L228.887 42.8098C228.831 42.6824 228.692 42.6296 228.578 42.6927L226.964 43.5832C226.85 43.6463 226.803 43.802 226.859 43.9294L229.759 50.5146C229.815 50.642 229.954 50.6948 230.068 50.6317L231.683 49.7412C231.796 49.6794 231.844 49.5224 231.787 49.395Z" fill="#2B478B"/>
<path d="M230.285 50.2931L227.335 43.5972C227.293 43.5007 227.187 43.4595 227.099 43.5072L226.153 44.0296C226.066 44.0773 226.03 44.1957 226.073 44.2935L229.022 50.9893C229.065 51.0859 229.17 51.127 229.258 51.0794L230.204 50.5569C230.291 50.5093 230.327 50.3909 230.285 50.2931Z" fill="#233862"/>
<path d="M218.816 111.009C206.229 114.433 196.163 131.027 190.443 142.822C189.748 141.983 189.116 141.002 188.506 139.934C190.92 133.82 195.601 120.686 191.068 121.123C187.124 121.504 186.75 130.635 186.935 136.989C183.731 130.767 180.112 123.557 169.85 124.016C152.872 124.776 147.634 144.538 135.844 144.155C124.052 143.772 88.0338 138.73 80.9417 159.026H205.069C204.663 157.779 203.95 152.753 200.633 149.106C201.24 148.875 201.871 148.64 202.525 148.401C213.045 144.567 209.113 140.6 209.113 140.6C204.179 140.6 199.666 143.08 196.065 145.993C195.554 145.801 195.013 145.637 194.44 145.507C193.793 145.359 193.202 145.113 192.653 144.786C198.878 136.779 207.852 126.571 214.871 123.991C219.674 122.225 222.083 119.808 223.228 117.499C224.922 114.089 222.205 110.088 218.816 111.009Z" fill="#A8D29F"/>
<path d="M73.1858 39.209C64.1447 39.209 56.8145 47.4132 56.8145 57.5323C56.8145 67.6514 73.1858 90.1495 73.1858 90.1495C73.1858 90.1495 89.5572 67.6514 89.5572 57.5323C89.5572 47.4119 82.2281 39.209 73.1858 39.209ZM73.1858 65.9102C68.9602 65.9102 65.5337 62.0752 65.5337 57.3457C65.5337 52.6162 68.9602 48.7812 73.1858 48.7812C77.4115 48.7812 80.838 52.6149 80.838 57.3457C80.838 62.0752 77.4126 65.9102 73.1858 65.9102Z" fill="#C94C43"/>
<path d="M40.771 137.806C37.2548 137.806 30.4006 142.636 30.4006 148.595C30.4006 154.554 33.2511 159.385 36.7684 159.385C37.2571 159.385 40.771 159.385 40.771 159.385C44.2872 159.385 47.1388 154.554 47.1388 148.595C47.1388 142.636 44.2884 137.806 40.771 137.806Z" fill="#661717"/>
<path d="M116.242 150.751H81.3901C81.5603 149.63 81.6454 148.468 81.6454 147.263C81.6454 138.437 76.9115 131.279 71.0807 131.279C65.2487 131.279 60.5263 138.437 60.5263 147.263C60.5263 148.468 60.6114 149.63 60.7828 150.751H45.9315C45.9315 150.751 41.3149 137.906 45.9315 133.466C50.5481 129.039 76.3159 125.999 76.3159 125.999C76.3159 125.999 86.0918 111.753 92.0733 107.327C93.0966 106.57 94.9628 106.025 97.3717 105.618C109.877 107.439 110.336 122.147 117.479 124.598C124.941 127.161 116.242 150.751 116.242 150.751Z" fill="#661717"/>
<path d="M83.0447 145.736C83.0447 152.227 80.054 159.384 80.054 159.384C80.054 159.384 75.6088 159.384 74.9901 159.384C70.5414 159.384 66.9355 153.273 66.9355 145.736C66.9355 138.198 75.6053 132.088 80.054 132.088C84.5016 132.087 83.0447 138.198 83.0447 145.736Z" fill="#631818"/>
<path d="M80.0529 159.384C84.5013 159.384 88.1075 153.273 88.1075 145.736C88.1075 138.198 84.5013 132.088 80.0529 132.088C75.6045 132.088 71.9983 138.198 71.9983 145.736C71.9983 153.273 75.6045 159.384 80.0529 159.384Z" fill="#822121"/>
<path d="M86.0195 145.736C86.0195 151.414 83.3024 156.018 79.9518 156.018C76.6011 156.018 73.884 151.414 73.884 145.736C73.884 140.058 76.6011 135.455 79.9518 135.455C83.3024 135.455 86.0195 140.058 86.0195 145.736Z" fill="#661717"/>
<path d="M126.152 150.751H91.3005C91.4707 149.63 91.5569 148.468 91.5569 147.263C91.5569 138.437 86.823 131.28 80.9922 131.28C75.1602 131.28 70.4379 138.437 70.4379 147.263C70.4379 148.468 70.5229 149.63 70.6943 150.751H17.9409C17.9409 150.751 13.314 137.906 17.9409 133.466C22.5575 129.039 49.3959 124.725 49.3959 124.725C49.3959 124.725 61.6301 114.565 67.6219 110.139C73.6137 105.699 105.533 105.452 105.533 105.452C106.141 105.48 106.727 105.536 107.282 105.621C119.788 107.442 120.246 122.15 127.389 124.6C134.852 127.161 126.152 150.751 126.152 150.751Z" fill="#C94C43"/>
<path d="M126.152 150.751H91.3005C91.4707 149.63 91.5569 148.468 91.5569 147.263C91.5569 138.437 86.823 131.279 80.9922 131.279C75.1603 131.279 70.4379 138.437 70.4379 147.263C70.4379 148.468 70.523 149.63 70.6943 150.751H55.8419C55.8419 150.751 51.2253 137.906 55.8419 133.466C60.4584 129.039 86.2263 125.999 86.2263 125.999C86.2263 125.999 96.0022 111.753 101.984 107.327C103.007 106.57 104.873 106.025 107.282 105.618C119.788 107.439 120.246 122.147 127.389 124.598C134.852 127.161 126.152 150.751 126.152 150.751Z" fill="#A8302D"/>
<path d="M91.3892 124.598C91.3892 124.598 101.524 107.479 107.815 108.446C118.076 110.022 121.409 122.466 121.409 122.466C121.409 122.466 112.445 123.11 91.3892 124.598Z" fill="#A2C2DD"/>
<path d="M99.315 107.743C99.315 107.743 99.2897 107.772 99.2402 107.814C98.4261 108.528 91.043 115.098 85.8987 122.62L53.7964 123.237C54.7105 122.425 55.8235 121.444 57.0251 120.38C61.8441 116.15 68.1509 110.728 69.3399 110.294C70.7162 109.804 75.9986 108.837 80.9417 108.404C81.3545 108.361 81.78 108.333 82.2054 108.292C86.7737 107.942 91.4915 107.815 94.8087 107.773H95.1215C97.6626 107.729 99.315 107.743 99.315 107.743Z" fill="#C4D9ED"/>
<path d="M51.0952 138.855V139.303C51.0952 140.788 50.0351 141.992 48.7289 141.992H36.6659C35.3724 141.992 34.2996 140.788 34.2996 139.303V138.855C34.2996 137.37 35.3712 136.165 36.6659 136.165H48.73C50.0351 136.165 51.0952 137.37 51.0952 138.855Z" fill="#A2C2DD"/>
<path d="M51.0953 138.855V139.303C51.0953 140.788 50.0351 141.992 48.7289 141.992H38.0331C36.7269 141.992 35.6667 140.788 35.6667 139.303V138.855C35.6667 137.37 36.7269 136.165 38.0331 136.165H48.7289C50.0351 136.165 51.0953 137.37 51.0953 138.855Z" fill="#C4D9ED"/>
<path d="M26.7729 138.855V139.303C26.7729 140.788 26.1831 141.992 25.4564 141.992H18.7448C18.025 141.992 17.4282 140.788 17.4282 139.303V138.855C17.4282 137.37 18.025 136.165 18.7448 136.165H25.4564C26.1831 136.165 26.7729 137.37 26.7729 138.855Z" fill="#A2C2DD"/>
<path d="M26.773 138.855V139.303C26.773 140.788 26.1831 141.992 25.4564 141.992H19.506C18.7793 141.992 18.1895 140.788 18.1895 139.303V138.855C18.1895 137.37 18.7793 136.165 19.506 136.165H25.4564C26.1831 136.165 26.773 137.37 26.773 138.855Z" fill="#C4D9ED"/>
<path d="M99.239 107.814C98.4249 108.528 91.0418 115.098 85.8975 122.62L53.7952 123.236C54.7093 122.424 55.8223 121.444 57.0239 120.379C64.3081 118.334 76.0595 114.3 82.2053 108.291C86.7736 107.941 91.4914 107.815 94.8087 107.772H95.1215C96.5611 107.784 97.9374 107.799 99.239 107.814Z" fill="#A2C2DD"/>
<path d="M171.547 159.019H107.261C105.246 159.019 103.597 157.173 103.597 154.917V11.0311C103.597 8.77514 105.246 6.92969 107.261 6.92969H171.547C173.563 6.92969 175.212 8.77514 175.212 11.0311V154.917C175.212 157.173 173.563 159.019 171.547 159.019Z" fill="#D3671E"/>
<path d="M178.49 159.019H114.203C112.187 159.019 110.538 157.173 110.538 154.917V11.0311C110.538 8.77514 112.187 6.92969 114.203 6.92969H178.489C180.505 6.92969 182.154 8.77514 182.154 11.0311V154.917C182.155 157.173 180.506 159.019 178.49 159.019Z" fill="#F99746"/>
<path opacity="0.4" d="M156.842 12.6875H138.225C137.828 12.6875 137.501 13.0517 137.501 13.4983C137.501 13.9435 137.828 14.309 138.225 14.309H156.842C157.24 14.309 157.567 13.9448 157.567 13.4983C157.567 13.0517 157.24 12.6875 156.842 12.6875Z" fill="#D3671E"/>
<path opacity="0.4" d="M134.919 12.6875C134.522 12.6875 134.195 13.0517 134.195 13.4983C134.195 13.9435 134.52 14.309 134.919 14.309C135.318 14.309 135.644 13.9448 135.644 13.4983C135.644 13.0517 135.317 12.6875 134.919 12.6875Z" fill="#D3671E"/>
<path opacity="0.4" d="M142.562 150.616C142.562 147.729 144.654 145.388 147.234 145.388C149.814 145.388 151.906 147.729 151.906 150.616C151.906 153.504 149.814 155.845 147.234 155.845C144.654 155.845 142.562 153.503 142.562 150.616Z" fill="#D86713"/>
<path d="M176.042 18.9893H116.5V142.005H176.042V18.9893Z" fill="#D5E7F7"/>
<path d="M176.042 127.734H116.5V142.014H176.042V127.734Z" fill="#D5E7F7"/>
<path d="M177.82 103.501L165.459 80.8287C168.223 78.7079 170.018 75.8084 170.803 72.1831C173.075 61.7037 166.045 48.236 163.708 44.1474C165.274 42.4461 166.249 40.0665 166.249 37.4361C166.249 32.2768 162.499 28.0801 157.89 28.0801C153.28 28.0801 149.53 32.2768 149.53 37.4361C149.53 38.4 149.661 39.3291 149.904 40.2042C140.912 46.0366 131.205 52.1714 127.774 54.0863L117.49 34.8815C116.998 33.9626 115.933 33.6641 115.112 34.2149C114.291 34.7657 114.024 35.9574 114.517 36.8762L129.927 65.652C131.633 68.8384 135.258 69.9542 138.181 68.1924L147.987 62.2815C149.38 61.4424 151.115 61.9675 151.939 63.4783L160.634 79.4272C143.145 89.8025 118.02 104.601 116.084 105.446C115.212 105.74 114.684 106.745 114.896 107.75C115.085 108.643 115.796 109.245 116.582 109.245C116.714 109.245 116.847 109.229 116.981 109.193C117.421 109.077 118.087 108.9 141.17 95.317C150.114 90.0521 159.041 84.7641 162.443 82.7462L174.86 105.521C175.187 106.121 175.757 106.451 176.341 106.451C176.649 106.451 176.961 106.36 177.242 106.167C178.06 105.61 178.319 104.416 177.82 103.501ZM157.891 31.9602C160.588 31.9602 162.783 34.4169 162.783 37.4361C162.783 40.4552 160.588 42.9119 157.891 42.9119C155.193 42.9119 152.998 40.4552 152.998 37.4361C152.998 34.4169 155.193 31.9602 157.891 31.9602ZM146.342 58.866L136.536 64.7769C135.248 65.5529 133.652 65.0613 132.9 63.6572L129.559 57.4169C131.305 56.4324 134.609 54.4402 141.076 50.3388C145.389 47.6028 149.613 44.8758 151.599 43.5889C153.133 45.5501 155.384 46.792 157.891 46.792C158.903 46.792 159.873 46.59 160.772 46.2193C161.638 47.7418 163.264 50.7673 164.726 54.4209C166.61 59.1259 168.607 65.8695 167.433 71.2746C166.864 73.8935 165.621 75.9461 163.65 77.511L154.899 61.4591C153.115 58.1878 149.357 57.0488 146.342 58.866Z" fill="#F99746"/>
<path d="M163.339 34.4392C163.161 34.4392 162.987 34.3337 162.893 34.147C162.756 33.8716 162.843 33.5242 163.089 33.371L176.857 24.7628C177.104 24.6096 177.414 24.7074 177.551 24.9828C177.688 25.2582 177.6 25.6057 177.354 25.7588L163.586 34.3671C163.508 34.416 163.423 34.4392 163.339 34.4392Z" fill="#F99746"/>
<path d="M154.372 31.8808C154.208 31.8808 154.047 31.792 153.949 31.6286L148.913 23.2584C148.755 22.9972 148.817 22.642 149.051 22.4657C149.284 22.2894 149.602 22.3588 149.759 22.6201L154.795 30.9903C154.953 31.2515 154.891 31.6067 154.657 31.783C154.569 31.8487 154.47 31.8808 154.372 31.8808Z" fill="#F99746"/>
<path d="M153.062 128.859C152.89 128.859 152.722 128.762 152.626 128.586L135.409 97.0859C135.262 96.8169 135.338 96.4656 135.578 96.3008C135.819 96.1361 136.133 96.221 136.28 96.49L153.496 127.99C153.643 128.259 153.568 128.611 153.327 128.775C153.244 128.832 153.152 128.859 153.062 128.859Z" fill="#F99746"/>
<path d="M157.891 40.1417C159.226 40.1417 160.308 38.9306 160.308 37.4366C160.308 35.9426 159.226 34.7314 157.891 34.7314C156.556 34.7314 155.474 35.9426 155.474 37.4366C155.474 38.9306 156.556 40.1417 157.891 40.1417Z" fill="#F99746"/>
<path d="M146.167 127.587L138.484 113.491C136.475 109.805 132.259 108.49 128.836 110.482L116.58 117.613V127.791L146.167 127.587Z" fill="#C4D9ED"/>
<path d="M116.583 98.5017C116.514 97.8145 140.559 83.9234 149.175 78.9687C150.793 78.0382 151.336 75.7475 150.344 74.041L149.882 73.2457C149.26 72.175 148.018 71.8005 147 72.3745L135.408 78.9121C133.121 80.2016 130.333 79.3406 128.961 76.9199L116.5 53.835L116.583 98.5017Z" fill="#C4D9ED"/>
<path d="M122.814 30.7953L128.568 41.796C129.749 44.0533 132.326 44.8396 134.366 43.5642L140.425 39.7781C141.669 39.0008 142.483 37.5826 142.61 35.9933C142.734 34.4399 143.068 32.404 143.926 30.6705C144.67 29.1661 144.621 27.3271 143.819 25.86L143.818 25.8574C143.037 24.4315 141.651 23.5615 140.156 23.5615H126.521C123.203 23.5615 121.139 27.5922 122.814 30.7953Z" fill="#C4D9ED"/>
<path d="M176.042 35.1318V61.5769C174.696 56.0418 172.341 51.0576 170.859 48.2495C170.125 46.8583 170.028 45.1712 170.554 43.6667C171.053 42.2395 171.298 40.7621 171.417 39.5421C171.583 37.8189 172.647 36.3686 174.119 35.8319L176.042 35.1318Z" fill="#C4D9ED"/>
<path d="M173.817 80.3811C174.799 79.0646 175.527 77.6413 176.042 76.1484V90.9932L173.337 84.6512C172.737 83.2471 172.926 81.578 173.817 80.3811Z" fill="#C4D9ED"/>
<path d="M176.042 115.888V127.791H163.433L150.011 104.725C148.288 101.763 149.163 97.7889 151.918 96.0618L155.698 93.6913C158.987 91.6284 163.142 92.8188 165.142 96.3951L176.042 115.888Z" fill="#C4D9ED"/>
<path d="M136.079 57.1683L148.674 49.5677C149.295 49.1932 150.034 49.1584 150.68 49.4737C152.299 50.2613 155.576 51.6782 158.177 51.6628C159.063 51.6576 159.87 52.22 160.257 53.1106C161.2 55.2829 162.828 59.3123 163.716 63.128C164.357 65.8821 161.109 67.5808 159.625 65.2708L153.975 56.472C153.349 55.4978 152.205 55.1375 151.217 55.6034L138.06 61.8012C136.984 62.3083 135.739 61.8308 135.167 60.6932C134.537 59.441 134.947 57.8516 136.079 57.1683Z" fill="#C4D9ED"/>
<path d="M161.712 131.325H130.982C130.627 131.325 130.336 131.651 130.336 132.048C130.336 132.446 130.627 132.772 130.982 132.772H161.712C162.067 132.772 162.358 132.446 162.358 132.048C162.357 131.651 162.067 131.325 161.712 131.325Z" fill="#699FF0"/>
<path d="M161.712 134.492H130.982C130.627 134.492 130.336 134.818 130.336 135.215C130.336 135.613 130.627 135.939 130.982 135.939H161.712C162.067 135.939 162.358 135.613 162.358 135.215C162.357 134.818 162.067 134.492 161.712 134.492Z" fill="#699FF0"/>
<path d="M122.701 129.269C121.183 129.269 119.952 130.646 119.952 132.346C119.952 134.044 122.701 137.823 122.701 137.823C122.701 137.823 125.449 134.046 125.449 132.346C125.45 130.647 124.22 129.269 122.701 129.269ZM122.701 133.752C121.992 133.752 121.417 133.109 121.417 132.315C121.417 131.521 121.992 130.877 122.701 130.877C123.411 130.877 123.986 131.521 123.986 132.315C123.987 133.109 123.411 133.752 122.701 133.752Z" fill="#D3671E"/>
<path d="M143.05 71.4014C141.532 71.4014 140.301 72.7784 140.301 74.4784C140.301 76.1772 143.05 79.9556 143.05 79.9556C143.05 79.9556 145.799 76.1784 145.799 74.4784C145.798 72.7784 144.568 71.4014 143.05 71.4014ZM143.05 75.8837C142.34 75.8837 141.765 75.2403 141.765 74.4462C141.765 73.6522 142.34 73.0087 143.05 73.0087C143.759 73.0087 144.334 73.6522 144.334 74.4462C144.334 75.2403 143.759 75.8837 143.05 75.8837Z" fill="#D3671E"/>
<path d="M145.798 69.3033C145.726 69.3033 145.652 69.275 145.593 69.2158C145.468 69.0897 145.457 68.8735 145.57 68.7319C145.672 68.6058 145.773 68.4809 145.873 68.3548C145.987 68.2146 146.18 68.2043 146.305 68.3304C146.43 68.4578 146.44 68.674 146.327 68.8143C146.227 68.9391 146.126 69.0639 146.026 69.1888C145.966 69.2647 145.882 69.3033 145.798 69.3033ZM147.141 67.6573C147.066 67.6573 146.992 67.6264 146.933 67.5659C146.809 67.4372 146.802 67.221 146.917 67.0821C147.268 66.6599 147.624 66.2365 147.977 65.826C148.094 65.6896 148.287 65.6845 148.409 65.8157C148.531 65.947 148.536 66.1632 148.419 66.2996C148.068 66.7088 147.714 67.1297 147.365 67.5492C147.304 67.6213 147.223 67.6573 147.141 67.6573ZM149.272 65.1697C149.193 65.1697 149.116 65.1362 149.057 65.0706C148.937 64.938 148.935 64.7205 149.054 64.5867C149.417 64.1762 149.785 63.7656 150.148 63.3667C150.269 63.2341 150.462 63.2367 150.58 63.3706C150.699 63.5057 150.696 63.7219 150.577 63.8544C150.216 64.2508 149.85 64.6601 149.49 65.0667C149.429 65.1362 149.35 65.1697 149.272 65.1697ZM151.468 62.7554C151.387 62.7554 151.306 62.7194 151.246 62.6486C151.13 62.5122 151.134 62.2947 151.256 62.1647C151.63 61.767 152.009 61.3694 152.384 60.9833C152.508 60.8546 152.702 60.8636 152.817 61.0026C152.932 61.1416 152.924 61.3578 152.799 61.4865C152.427 61.87 152.05 62.2651 151.679 62.6602C151.62 62.7245 151.544 62.7554 151.468 62.7554ZM153.733 60.4209C153.649 60.4209 153.565 60.3823 153.504 60.3064C153.392 60.1648 153.403 59.9486 153.53 59.8225C153.914 59.439 154.305 59.0568 154.692 58.6836C154.82 58.56 155.013 58.5767 155.123 58.7196C155.234 58.8624 155.219 59.0786 155.091 59.2022C154.707 59.5728 154.318 59.9525 153.937 60.3334C153.878 60.3926 153.805 60.4209 153.733 60.4209ZM156.067 58.1739C155.98 58.1739 155.892 58.1315 155.831 58.0504C155.723 57.905 155.742 57.6888 155.872 57.5678C156.267 57.1997 156.67 56.8317 157.069 56.4752C157.201 56.3568 157.393 56.3812 157.499 56.528C157.605 56.676 157.583 56.8909 157.452 57.0093C157.056 57.3645 156.656 57.7299 156.263 58.0942C156.205 58.1482 156.136 58.1739 156.067 58.1739ZM158.469 56.0196C158.377 56.0196 158.288 55.9733 158.227 55.8858C158.123 55.7365 158.148 55.5216 158.282 55.4058C158.69 55.0531 159.104 54.7018 159.513 54.3621C159.649 54.2488 159.841 54.281 159.941 54.4328C160.042 54.5847 160.013 54.7996 159.878 54.9116C159.472 55.2488 159.06 55.5975 158.656 55.9476C158.6 55.9965 158.535 56.0196 158.469 56.0196ZM160.941 53.9644C160.846 53.9644 160.752 53.9142 160.692 53.8203C160.594 53.6658 160.625 53.4522 160.763 53.3428C161.182 53.0082 161.607 52.6749 162.029 52.3519C162.168 52.2451 162.359 52.285 162.455 52.4407C162.55 52.5964 162.514 52.81 162.375 52.9168C161.957 53.2373 161.534 53.5693 161.118 53.9001C161.064 53.9438 161.002 53.9644 160.941 53.9644ZM163.481 52.0173C163.381 52.0173 163.285 51.9632 163.225 51.8628C163.132 51.7046 163.171 51.4922 163.312 51.3893C163.742 51.074 164.179 50.7587 164.613 50.4537C164.755 50.3533 164.945 50.4009 165.035 50.5618C165.124 50.7213 165.082 50.9337 164.938 51.0341C164.508 51.3365 164.075 51.6479 163.648 51.9619C163.597 51.9993 163.539 52.0173 163.481 52.0173ZM166.088 50.1847C165.985 50.1847 165.883 50.1255 165.826 50.0187C165.738 49.8565 165.786 49.6468 165.931 49.5489C166.371 49.253 166.82 48.9583 167.264 48.6738C167.412 48.5799 167.598 48.6365 167.682 48.8012C167.766 48.966 167.715 49.1745 167.568 49.2684C167.127 49.5502 166.683 49.8424 166.246 50.1358C166.196 50.1692 166.142 50.1847 166.088 50.1847ZM168.76 48.4731C168.652 48.4731 168.546 48.4087 168.491 48.2942C168.411 48.1282 168.465 47.9197 168.613 47.8296C169.065 47.5542 169.524 47.2814 169.979 47.0188C170.13 46.9313 170.314 46.9983 170.392 47.1656C170.47 47.3329 170.41 47.5401 170.261 47.6263C169.81 47.8875 169.355 48.1578 168.906 48.4306C168.86 48.4602 168.81 48.4731 168.76 48.4731ZM171.496 46.8914C171.383 46.8914 171.274 46.8207 171.221 46.6997C171.146 46.5298 171.209 46.3252 171.361 46.2415C171.822 45.9893 172.291 45.7384 172.757 45.4977C172.91 45.4179 173.093 45.4926 173.163 45.665C173.234 45.8362 173.168 46.0408 173.014 46.1193C172.552 46.3574 172.087 46.6057 171.629 46.8567C171.587 46.8799 171.541 46.8914 171.496 46.8914ZM174.29 45.4449C174.171 45.4449 174.06 45.3677 174.009 45.239C173.941 45.0653 174.013 44.8645 174.168 44.7886C174.641 44.5582 175.119 44.3317 175.593 44.1155C175.749 44.0435 175.927 44.1284 175.992 44.3034C176.056 44.4785 175.981 44.6779 175.825 44.75C175.356 44.9649 174.881 45.1888 174.413 45.4179C174.371 45.4359 174.33 45.4449 174.29 45.4449ZM223.747 44.5171C223.702 44.5171 223.656 44.5055 223.613 44.4823C223.609 44.4797 223.118 44.2146 222.215 43.8118C222.059 43.7423 221.982 43.5429 222.044 43.3666C222.106 43.1915 222.284 43.1053 222.442 43.1748C223.367 43.5879 223.859 43.8543 223.88 43.8659C224.032 43.9482 224.095 44.1529 224.021 44.3227C223.969 44.4463 223.859 44.5171 223.747 44.5171ZM177.139 44.1413C177.016 44.1413 176.9 44.0576 176.853 43.9212C176.792 43.7449 176.871 43.5467 177.03 43.4785C177.511 43.2726 177.999 43.0706 178.481 42.8788C178.64 42.8157 178.816 42.9084 178.872 43.086C178.928 43.2636 178.845 43.4605 178.687 43.5236C178.21 43.714 177.726 43.9135 177.25 44.1181C177.213 44.1336 177.176 44.1413 177.139 44.1413ZM220.886 43.2276C220.851 43.2276 220.817 43.2211 220.782 43.207C220.313 43.0191 219.826 42.8338 219.332 42.6549C219.171 42.597 219.084 42.4039 219.136 42.2238C219.188 42.0436 219.36 41.9445 219.521 42.0037C220.02 42.1839 220.513 42.3718 220.988 42.5622C221.147 42.6266 221.23 42.8222 221.173 42.9998C221.13 43.1413 221.011 43.2276 220.886 43.2276ZM180.04 42.9843C179.911 42.9843 179.792 42.893 179.749 42.7488C179.696 42.5699 179.784 42.3756 179.944 42.3164C180.432 42.1362 180.928 41.9599 181.418 41.7926C181.58 41.7373 181.75 41.8403 181.799 42.0204C181.849 42.2019 181.758 42.3923 181.596 42.4477C181.111 42.6124 180.62 42.7874 180.136 42.9663C180.103 42.9792 180.071 42.9843 180.04 42.9843ZM217.955 42.1646C217.926 42.1646 217.897 42.1594 217.869 42.1504C217.383 41.9908 216.887 41.8364 216.392 41.6897C216.229 41.6408 216.131 41.4542 216.175 41.2714C216.219 41.0887 216.385 40.9793 216.549 41.0282C217.048 41.1762 217.55 41.3332 218.04 41.4941C218.202 41.5468 218.295 41.7373 218.247 41.9188C218.21 42.068 218.087 42.1646 217.955 42.1646ZM182.985 41.9818C182.852 41.9818 182.728 41.8827 182.691 41.7309C182.646 41.5481 182.74 41.3602 182.903 41.3088C183.398 41.1543 183.9 41.005 184.398 40.8648C184.561 40.8184 184.728 40.9291 184.769 41.1131C184.811 41.2959 184.712 41.4825 184.548 41.5288C184.054 41.6691 183.556 41.8171 183.067 41.9689C183.04 41.978 183.012 41.9818 182.985 41.9818ZM214.977 41.2817C214.954 41.2817 214.93 41.2792 214.906 41.2727C214.411 41.1415 213.909 41.0153 213.41 40.8969C213.244 40.8583 213.138 40.6756 213.174 40.4916C213.208 40.3062 213.37 40.1878 213.536 40.2277C214.04 40.3474 214.548 40.4748 215.047 40.6074C215.211 40.6511 215.313 40.8364 215.273 41.0205C215.241 41.1762 215.116 41.2817 214.977 41.2817ZM185.97 41.1363C185.831 41.1363 185.704 41.0282 185.672 40.8699C185.634 40.6859 185.738 40.5018 185.902 40.4607C186.403 40.3333 186.912 40.2097 187.414 40.0965C187.58 40.0591 187.741 40.1788 187.775 40.3641C187.808 40.5495 187.702 40.7296 187.536 40.7682C187.038 40.8815 186.534 41.0025 186.038 41.1286C186.016 41.1337 185.993 41.1363 185.97 41.1363ZM211.964 40.5675C211.946 40.5675 211.926 40.5662 211.908 40.5623C211.409 40.4581 210.901 40.359 210.398 40.2689C210.231 40.2393 210.118 40.063 210.145 39.8764C210.172 39.6898 210.329 39.5624 210.496 39.5933C211.004 39.6846 211.517 39.785 212.021 39.8906C212.186 39.9253 212.297 40.1042 212.265 40.2895C212.237 40.4529 212.108 40.5675 211.964 40.5675ZM188.988 40.4529C188.842 40.4529 188.713 40.3358 188.687 40.1698C188.657 39.9832 188.769 39.8056 188.934 39.7734C189.44 39.6731 189.954 39.5778 190.46 39.4916C190.627 39.4633 190.783 39.592 190.808 39.7786C190.834 39.9652 190.719 40.1402 190.552 40.1685C190.049 40.2548 189.541 40.3487 189.04 40.4478C189.024 40.4517 189.005 40.4529 188.988 40.4529ZM208.923 40.018C208.909 40.018 208.895 40.0167 208.882 40.0141C208.378 39.9369 207.866 39.8648 207.36 39.8018C207.192 39.7812 207.072 39.6113 207.09 39.4234C207.108 39.2355 207.26 39.1004 207.428 39.121C207.939 39.1853 208.455 39.2574 208.963 39.3359C209.131 39.3616 209.247 39.5341 209.225 39.722C209.205 39.8944 209.074 40.018 208.923 40.018ZM192.032 39.9317C191.88 39.9317 191.749 39.8056 191.728 39.6332C191.706 39.4453 191.825 39.2741 191.993 39.2497C192.503 39.1763 193.02 39.1094 193.53 39.0502C193.699 39.0309 193.849 39.1673 193.866 39.3552C193.883 39.5431 193.761 39.7117 193.593 39.731C193.089 39.7902 192.577 39.8558 192.071 39.9292C192.057 39.9305 192.044 39.9317 192.032 39.9317ZM205.862 39.6319C205.853 39.6319 205.844 39.6319 205.834 39.6306C205.327 39.5804 204.813 39.5367 204.306 39.4993C204.137 39.4877 204.01 39.3243 204.021 39.1351C204.032 38.946 204.178 38.8031 204.347 38.816C204.858 38.8533 205.377 38.897 205.89 38.9485C206.058 38.9653 206.182 39.1313 206.168 39.3205C206.153 39.498 206.018 39.6319 205.862 39.6319ZM195.095 39.5765C194.937 39.5765 194.803 39.4401 194.79 39.2612C194.776 39.0734 194.903 38.9073 195.071 38.8932C195.584 38.8481 196.102 38.8083 196.615 38.7761C196.784 38.7658 196.928 38.9099 196.937 39.0991C196.946 39.2883 196.817 39.4491 196.648 39.4594C196.141 39.4903 195.627 39.5289 195.119 39.5753C195.111 39.5753 195.103 39.5765 195.095 39.5765ZM202.789 39.4105C202.784 39.4105 202.78 39.4105 202.776 39.4105C202.268 39.3874 201.753 39.3706 201.244 39.3616C201.075 39.3591 200.941 39.2021 200.943 39.0129C200.945 38.8263 201.082 38.6757 201.249 38.6757C201.25 38.6757 201.252 38.6757 201.255 38.6757C201.769 38.6847 202.288 38.7014 202.801 38.7246C202.97 38.7323 203.101 38.8919 203.094 39.0811C203.087 39.2664 202.952 39.4105 202.789 39.4105ZM198.17 39.3861C198.005 39.3861 197.87 39.2394 197.864 39.0541C197.858 38.8649 197.991 38.7066 198.16 38.7014C198.672 38.6834 199.193 38.6718 199.707 38.668C199.875 38.6667 200.014 38.8185 200.015 39.0077C200.016 39.1969 199.881 39.3513 199.712 39.3526C199.202 39.3565 198.686 39.3681 198.179 39.3861C198.175 39.3861 198.173 39.3861 198.17 39.3861Z" fill="#699FF0"/>
<path d="M77.676 89.525C77.5852 89.525 77.4944 89.48 77.4346 89.3925C77.3311 89.2432 77.3552 89.0283 77.4886 88.9124C77.507 88.897 77.9371 88.5238 78.7534 87.8842C78.8914 87.7761 79.0823 87.8134 79.18 87.9678C79.2766 88.1223 79.2433 88.3359 79.1053 88.4453C78.3027 89.0746 77.8692 89.4504 77.8646 89.4542C77.8071 89.5018 77.7416 89.525 77.676 89.525ZM80.2034 87.5316C80.1045 87.5316 80.0079 87.4775 79.9493 87.3784C79.855 87.2214 79.8941 87.0091 80.0344 86.9035C80.454 86.5908 80.891 86.2717 81.3325 85.9564C81.4751 85.8547 81.6637 85.901 81.7545 86.0606C81.8454 86.2202 81.804 86.4312 81.6614 86.5329C81.2233 86.8456 80.7898 87.1609 80.3736 87.4724C80.3207 87.5135 80.262 87.5316 80.2034 87.5316ZM82.8043 85.6745C82.7008 85.6745 82.6008 85.6166 82.5433 85.5111C82.4548 85.3502 82.5008 85.1392 82.6445 85.0401C83.0803 84.7415 83.5264 84.4416 83.9714 84.1495C84.1174 84.053 84.3049 84.1083 84.3899 84.2705C84.475 84.4326 84.4267 84.6437 84.2819 84.7389C83.8403 85.0298 83.3965 85.3271 82.9641 85.6243C82.9136 85.6578 82.8584 85.6745 82.8043 85.6745ZM85.4616 83.9243C85.3547 83.9243 85.2512 83.8612 85.1948 83.7506C85.112 83.5858 85.1638 83.3774 85.3098 83.2834C85.7548 83.0016 86.2101 82.7197 86.662 82.443C86.8103 82.353 86.9966 82.4134 87.0771 82.5807C87.1576 82.7468 87.1036 82.9552 86.9541 83.0453C86.5045 83.3194 86.0526 83.6 85.6111 83.8793C85.5651 83.9101 85.5133 83.9243 85.4616 83.9243ZM88.1706 82.2757C88.0602 82.2757 87.9544 82.2088 87.8992 82.0917C87.8211 81.9244 87.8785 81.7172 88.0292 81.6297C88.4822 81.3646 88.9456 81.0995 89.4055 80.8408C89.5562 80.7559 89.7401 80.8241 89.816 80.9927C89.8919 81.1613 89.831 81.3672 89.6803 81.4521C89.2239 81.7095 88.7639 81.9733 88.3132 82.2359C88.266 82.2629 88.2177 82.2757 88.1706 82.2757ZM90.9245 80.7276C90.8106 80.7276 90.7014 80.6568 90.6485 80.5332C90.5749 80.3634 90.6393 80.1587 90.7911 80.0764C91.2522 79.828 91.7225 79.5796 92.1893 79.3377C92.3434 79.2592 92.525 79.3338 92.5952 79.505C92.6665 79.6761 92.5986 79.8808 92.4457 79.9593C91.9823 80.1986 91.5143 80.4457 91.0567 80.6928C91.0141 80.716 90.9693 80.7276 90.9245 80.7276ZM93.7232 79.2823C93.6059 79.2823 93.4932 79.2064 93.4426 79.0777C93.3748 78.9053 93.4438 78.7032 93.599 78.626C94.0681 78.3944 94.5453 78.164 95.019 77.9414C95.1743 77.868 95.3536 77.9491 95.4192 78.1241C95.4847 78.2978 95.4123 78.4986 95.2559 78.572C94.7856 78.7933 94.3107 79.0224 93.8462 79.2528C93.806 79.2733 93.7646 79.2823 93.7232 79.2823ZM96.5621 77.9439C96.4414 77.9439 96.3264 77.8629 96.2781 77.729C96.2149 77.554 96.2908 77.3545 96.4483 77.2838C96.9232 77.0701 97.4084 76.8578 97.8879 76.6532C98.0454 76.5862 98.2225 76.6737 98.2823 76.8513C98.3421 77.0276 98.2627 77.2258 98.1052 77.2928C97.628 77.4961 97.1474 77.7072 96.676 77.9182C96.6392 77.9349 96.6001 77.9439 96.5621 77.9439ZM99.4413 76.7149C99.316 76.7149 99.1987 76.6287 99.1538 76.4884C99.0964 76.3108 99.1791 76.1139 99.3378 76.0496C99.8208 75.8553 100.311 75.6622 100.797 75.4769C100.957 75.4164 101.13 75.5117 101.186 75.6905C101.24 75.8694 101.155 76.0637 100.995 76.1255C100.513 76.3095 100.025 76.5013 99.5459 76.6943C99.5114 76.7085 99.4758 76.7149 99.4413 76.7149ZM102.358 75.603C102.229 75.603 102.109 75.5104 102.068 75.3649C102.016 75.1848 102.104 74.9917 102.265 74.9338C102.755 74.7575 103.253 74.5851 103.742 74.4216C103.904 74.3676 104.074 74.4705 104.122 74.6507C104.171 74.8322 104.079 75.0226 103.918 75.0767C103.431 75.2401 102.938 75.4113 102.452 75.585C102.421 75.5979 102.388 75.603 102.358 75.603ZM105.309 74.6134C105.176 74.6134 105.053 74.5143 105.015 74.3624C104.969 74.1797 105.064 73.9918 105.227 73.9403C105.723 73.7859 106.225 73.634 106.721 73.4912C106.884 73.4436 107.051 73.5542 107.093 73.737C107.136 73.9197 107.037 74.1076 106.874 74.1539C106.383 74.2955 105.884 74.4461 105.392 74.5992C105.364 74.6095 105.335 74.6134 105.309 74.6134ZM108.292 73.7524C108.152 73.7524 108.027 73.6469 107.994 73.4886C107.955 73.3046 108.057 73.1205 108.221 73.0768C108.722 72.9442 109.23 72.8155 109.73 72.6946C109.896 72.6547 110.058 72.7718 110.093 72.9571C110.129 73.1424 110.024 73.3239 109.859 73.3638C109.363 73.4835 108.86 73.6109 108.363 73.7421C108.339 73.7498 108.315 73.7524 108.292 73.7524ZM137.284 73.293C137.261 73.293 137.238 73.2904 137.215 73.284C136.72 73.1553 136.217 73.033 135.719 72.9198C135.553 72.8825 135.446 72.701 135.479 72.5157C135.513 72.3304 135.675 72.2107 135.841 72.248C136.344 72.3625 136.854 72.4861 137.353 72.6161C137.517 72.6585 137.619 72.8426 137.581 73.0266C137.549 73.1862 137.423 73.293 137.284 73.293ZM111.302 73.0266C111.158 73.0266 111.031 72.9133 111.002 72.7486C110.97 72.5633 111.078 72.3831 111.244 72.3471C111.751 72.2377 112.263 72.1322 112.766 72.0357C112.932 72.0035 113.09 72.1283 113.119 72.3149C113.147 72.5015 113.036 72.6778 112.869 72.71C112.37 72.8052 111.863 72.9095 111.361 73.0189C111.341 73.0253 111.321 73.0266 111.302 73.0266ZM134.268 72.6071C134.25 72.6071 134.232 72.6058 134.215 72.6019C133.714 72.5041 133.206 72.4114 132.703 72.3278C132.536 72.3008 132.42 72.1257 132.445 71.9391C132.469 71.7512 132.626 71.6226 132.792 71.6509C133.301 71.7345 133.815 71.8285 134.32 71.9276C134.487 71.9597 134.599 72.1373 134.569 72.3239C134.542 72.4899 134.412 72.6071 134.268 72.6071ZM114.337 72.4449C114.188 72.4449 114.058 72.3226 114.035 72.1528C114.01 71.9662 114.126 71.7911 114.293 71.7628C114.802 71.6779 115.318 71.5981 115.825 71.526C115.993 71.5029 116.146 71.6354 116.167 71.8233C116.188 72.0112 116.069 72.1824 115.901 72.2055C115.399 72.2763 114.888 72.3561 114.382 72.4398C114.368 72.4436 114.352 72.4449 114.337 72.4449ZM131.222 72.1026C131.209 72.1026 131.198 72.1013 131.185 72.1C130.68 72.0318 130.168 71.97 129.662 71.9173C129.495 71.8992 129.37 71.7319 129.387 71.544C129.403 71.3562 129.552 71.2172 129.72 71.2352C130.232 71.2892 130.749 71.351 131.258 71.4205C131.426 71.4437 131.546 71.6135 131.525 71.8014C131.507 71.9752 131.375 72.1026 131.222 72.1026ZM117.393 72.0112C117.237 72.0112 117.105 71.8799 117.089 71.7036C117.072 71.5157 117.194 71.3471 117.362 71.3278C117.873 71.2686 118.392 71.2146 118.902 71.1696C119.07 71.1554 119.218 71.2944 119.231 71.4836C119.245 71.6715 119.12 71.8375 118.951 71.8529C118.445 71.898 117.932 71.9507 117.425 72.0099C117.414 72.0112 117.404 72.0112 117.393 72.0112ZM128.156 71.7796C128.149 71.7796 128.142 71.7796 128.135 71.7783C127.63 71.7397 127.114 71.7075 126.606 71.6843C126.437 71.6766 126.306 71.517 126.313 71.3278C126.32 71.1387 126.461 70.9894 126.632 70.9997C127.145 71.0241 127.665 71.0563 128.177 71.0949C128.346 71.1078 128.472 71.2712 128.461 71.4604C128.451 71.6406 128.316 71.7796 128.156 71.7796ZM120.463 71.7358C120.302 71.7358 120.167 71.5955 120.158 71.4128C120.149 71.2236 120.278 71.0627 120.447 71.0512C120.961 71.019 121.48 70.9932 121.992 70.9739C122.163 70.9688 122.302 71.1155 122.308 71.3047C122.314 71.4939 122.18 71.6522 122.013 71.6586C121.506 71.6766 120.99 71.7023 120.482 71.7345C120.474 71.7358 120.468 71.7358 120.463 71.7358ZM125.08 71.6328C125.078 71.6328 125.077 71.6328 125.075 71.6328C124.568 71.6226 124.052 71.6213 123.543 71.6251C123.542 71.6251 123.542 71.6251 123.541 71.6251C123.373 71.6251 123.236 71.4733 123.235 71.2854C123.234 71.0962 123.369 70.9418 123.538 70.9405C124.052 70.9366 124.573 70.9379 125.086 70.9482C125.255 70.9508 125.39 71.1078 125.386 71.297C125.383 71.4836 125.247 71.6328 125.08 71.6328Z" fill="#699FF0"/>
<path d="M227.895 50.549C227.895 50.549 229.934 47.6599 228.871 45.9894C228.637 45.6214 227.3 47.2944 227.3 47.2944C227.3 47.2944 227.691 49.9802 227.895 50.549Z" fill="#9C5F33"/>
<path d="M327.629 159.999H0.371397C0.166726 159.999 0 159.813 0 159.584V159.442C0 159.213 0.167876 159.026 0.371397 159.026H327.629C327.833 159.026 328 159.213 328 159.442V159.584C328 159.811 327.833 159.999 327.629 159.999Z" fill="#2E3552"/>
</svg>
