<svg width="244" height="140" viewBox="0 0 244 140" fill="none" xmlns="http://www.w3.org/2000/svg">
<path d="M230.941 44.9061C231.838 45.8338 232.227 47.1809 232.17 48.4747C232.114 49.7685 231.647 51.0161 231.025 52.15C229.824 54.3466 227.574 56.1309 225.422 57.3927C224.186 54.9047 224.949 51.7661 225.436 50.2022C226.207 47.7283 229.089 43.7225 230.941 44.9061Z" fill="#1D6EA5"/>
<path d="M226.111 62.1234C226.334 60.6945 227.457 59.4896 228.814 59.0098C230.171 58.5299 231.711 58.729 232.997 59.3759C233.59 59.678 234.18 60.1294 234.325 60.7834C234.46 61.3948 234.152 62.0417 233.675 62.4433C233.198 62.845 232.584 63.0369 231.969 63.1435C229.867 63.5096 227.768 63.4741 226.111 62.1234Z" fill="#1D6EA5"/>
<path d="M220.755 68.1629C220.745 68.1558 220.84 67.9994 221.017 67.7186C221.215 67.4094 221.466 67.0149 221.773 66.535C222.423 65.554 223.32 64.1358 224.755 62.9913C226.175 61.8468 227.761 61.2248 228.941 61.079C229.531 60.9973 230.015 61.0044 230.344 61.0399C230.51 61.0506 230.637 61.0826 230.722 61.0932C230.807 61.1075 230.852 61.1217 230.852 61.1252C230.852 61.1679 230.118 61.0115 228.959 61.2034C227.804 61.3776 226.26 62.0032 224.864 63.1299C223.462 64.2495 222.554 65.6393 221.875 66.6026C221.54 67.0895 221.268 67.4841 221.073 67.7542C220.879 68.0243 220.766 68.1701 220.755 68.1629Z" fill="#E0E0E0"/>
<path d="M229.015 48.1515C229.022 48.155 229.001 48.2297 228.955 48.3683C228.902 48.5247 228.832 48.7273 228.747 48.9761C228.563 49.5022 228.288 50.2628 227.941 51.1976C227.245 53.0672 226.253 55.6371 225.09 58.4486C223.928 61.2601 222.815 63.7838 221.988 65.5965C221.575 66.5029 221.232 67.2351 220.992 67.7362C220.876 67.9744 220.784 68.1628 220.709 68.3121C220.642 68.4436 220.607 68.5111 220.6 68.5076C220.593 68.504 220.621 68.4329 220.678 68.2978C220.741 68.145 220.826 67.9495 220.929 67.7078C221.162 67.1747 221.483 66.4424 221.875 65.5432C222.674 63.7162 223.765 61.189 224.928 58.3775C226.09 55.566 227.104 53.0068 227.828 51.1479C228.185 50.2344 228.475 49.488 228.687 48.9477C228.786 48.7024 228.863 48.5069 228.927 48.3505C228.976 48.219 229.008 48.1479 229.015 48.1515Z" fill="#E0E0E0"/>
<path d="M222.204 62.1451C222.904 59.1772 222.066 55.8858 220.035 53.6217C219.519 53.0459 218.759 52.4949 218.032 52.758C217.304 53.021 217.067 53.938 217.053 54.7164C216.993 57.9545 219.088 61.1215 222.077 62.3158" fill="#1D6EA5"/>
<path d="M219.455 55.9358C219.466 55.9287 219.583 56.0531 219.791 56.2842C219.897 56.4015 220.024 56.5436 220.151 56.7214C220.278 56.9026 220.445 57.0946 220.589 57.3363C220.738 57.5744 220.907 57.8303 221.056 58.1253C221.218 58.4132 221.36 58.7367 221.504 59.0779C221.776 59.7675 222.017 60.553 222.147 61.3989C222.271 62.2484 222.275 63.0695 222.211 63.8088C222.169 64.1785 222.126 64.5268 222.052 64.8503C221.995 65.1773 221.904 65.4687 221.826 65.7389C221.755 66.009 221.649 66.24 221.572 66.4497C221.497 66.6595 221.413 66.8301 221.342 66.9687C221.204 67.2495 221.123 67.3988 221.109 67.3952C221.073 67.3774 221.398 66.7661 221.702 65.6998C221.773 65.4332 221.854 65.1417 221.904 64.8183C221.974 64.5019 222.006 64.1536 222.045 63.7911C222.098 63.0624 222.091 62.2556 221.967 61.4238C221.84 60.5921 221.61 59.8172 221.349 59.1383C221.211 58.8007 221.077 58.4808 220.921 58.1929C220.784 57.8979 220.621 57.6419 220.48 57.4038C219.897 56.469 219.427 55.9607 219.455 55.9358Z" fill="#E0E0E0"/>
<path d="M15.5183 17.9138C15.5183 17.9138 12.268 18.9694 15.4194 25.9787C18.5707 32.9916 20.8176 36.4926 20.8176 36.4926C20.8176 36.4926 21.3582 38.1099 20.0192 38.2947C18.6767 38.4796 15.7726 37.8717 15.1014 39.4783C14.4089 41.1489 15.5571 42.8088 17.9807 44.3301C20.4007 45.8514 25.5835 49.3845 26.0499 49.7079C26.5091 50.0243 26.9472 50.7849 26.0534 51.0586C25.1596 51.3323 18.5389 51.7126 18.9063 54.8618C19.2737 58.011 26.7105 61.1389 27.516 61.4979C28.3215 61.8568 28.5017 62.2158 28.4134 62.6637C28.325 63.1151 26.0887 63.0298 24.2092 63.2182C22.3297 63.403 20.1852 63.9504 20.5491 65.7489C20.913 67.5475 25.2196 71.4964 36.048 73.0816L41.1142 73.4869L44.0783 69.3033C49.8758 59.9624 49.6673 54.1083 48.5368 52.6652C47.4063 51.2221 45.6045 52.5159 44.2514 53.8381C42.8947 55.1604 41.5134 56.9305 41.1142 56.7065C40.7149 56.4826 40.5595 56.1129 40.8103 55.2634C41.0612 54.4139 43.4953 46.6831 41.3438 44.3656C39.1923 42.0482 34.6242 46.8822 33.8399 47.394C33.0556 47.9023 32.7624 47.0741 32.8189 46.5196C32.879 45.9545 33.5502 39.6916 33.96 36.8516C34.3698 34.0081 33.854 32.0532 32.1406 31.5058C30.4872 30.9798 29.0705 33.6029 28.0636 34.5128C27.0567 35.4228 26.1806 33.9619 26.1806 33.9619C26.1806 33.9619 24.9759 29.9703 21.6973 23.0179C18.4188 16.0655 15.4547 17.9387 15.4547 17.9387" fill="#1D6EA5"/>
<path d="M41.3225 74.7027C38.9342 69.5879 34.8431 60.4211 31.289 52.573C27.7349 44.7249 24.5129 37.6232 22.1494 32.4978C20.9694 29.9386 20.012 27.8664 19.3443 26.4269C19.0157 25.716 18.7613 25.1579 18.5847 24.7776C18.4999 24.5928 18.4363 24.4506 18.3904 24.3475C18.348 24.2516 18.3303 24.1982 18.3303 24.1982C18.3303 24.1982 18.3586 24.2444 18.4045 24.3404C18.454 24.4399 18.5246 24.5821 18.613 24.7634C18.7967 25.1437 19.0616 25.6946 19.4008 26.402C20.0826 27.8237 21.0577 29.8924 22.2483 32.4516C24.6366 37.5663 27.8762 44.6609 31.4303 52.5091C34.9844 60.3572 39.0614 69.5311 41.4214 74.6565" fill="#1D6EA5"/>
<path d="M19.1361 40.4987C19.1396 40.488 19.2632 40.5307 19.4858 40.616C19.7084 40.6977 20.0228 40.8292 20.4114 40.9927C21.1887 41.3233 22.2521 41.8067 23.4179 42.3612C24.5626 42.9121 25.6013 43.4097 26.3927 43.7901C26.7495 43.9607 27.0533 44.1029 27.2971 44.2166C27.5126 44.3161 27.6256 44.3765 27.6221 44.3872C27.6186 44.3979 27.4949 44.3552 27.2723 44.2735C27.0498 44.1882 26.7353 44.0602 26.3467 43.8896C25.573 43.5519 24.5131 43.0543 23.3508 42.4998C22.2026 41.956 21.164 41.4655 20.369 41.0923C20.0087 40.9252 19.7049 40.783 19.4611 40.6693C19.2491 40.5698 19.1325 40.5093 19.1361 40.4987Z" fill="#1D6EA5"/>
<path d="M27.9858 44.0778C27.947 44.06 28.8373 41.8101 29.9819 39.0519C31.1231 36.2937 32.084 34.0722 32.1229 34.0899C32.1617 34.1077 31.2714 36.3577 30.1268 39.1159C28.9821 41.8705 28.0247 44.092 27.9858 44.0778Z" fill="#1D6EA5"/>
<path d="M32.9001 56.3756C32.893 56.3685 32.9708 56.2583 33.1227 56.07C33.2958 55.8567 33.5078 55.5866 33.7621 55.2702C34.3027 54.5949 35.041 53.6601 35.8218 52.5973C36.6026 51.5346 37.2774 50.55 37.7614 49.8355C37.9875 49.4979 38.1818 49.2135 38.3337 48.986C38.4715 48.787 38.5492 48.6768 38.5598 48.6839C38.5704 48.691 38.5068 48.8083 38.3867 49.018C38.2666 49.2277 38.0864 49.5299 37.8568 49.896C37.3975 50.6317 36.7368 51.627 35.949 52.6933C35.1682 53.7596 34.4122 54.6873 33.8469 55.3449C33.5643 55.6719 33.3346 55.9349 33.1686 56.1126C33.0026 56.2868 32.9107 56.3828 32.9001 56.3756Z" fill="#1D6EA5"/>
<path d="M24.188 54.912C24.188 54.9014 24.3116 54.9085 24.5342 54.9334C24.7886 54.9653 25.0995 55.0044 25.4704 55.0542C26.2583 55.1608 27.3464 55.3208 28.5476 55.5056C29.7488 55.6904 30.8334 55.8682 31.6177 56.0032C31.9816 56.0708 32.2925 56.1276 32.5468 56.1738C32.7659 56.2165 32.886 56.2449 32.8825 56.2556C32.8825 56.2663 32.7588 56.2592 32.5362 56.2343C32.2819 56.2023 31.971 56.1632 31.6 56.1134C30.8122 56.0068 29.724 55.8468 28.5229 55.662C27.3217 55.4772 26.2371 55.2995 25.4528 55.1644C25.0889 55.0969 24.778 55.04 24.5236 54.9938C24.3081 54.9511 24.188 54.9227 24.188 54.912Z" fill="#1D6EA5"/>
<path d="M27.1592 66.3243C27.1592 66.3136 27.3182 66.3243 27.6009 66.3563C27.9117 66.3954 28.318 66.4452 28.802 66.5056C29.8124 66.6371 31.2115 66.8326 32.7518 67.0565C34.2922 67.2804 35.6877 67.4901 36.6945 67.6501C37.175 67.7318 37.5778 67.7958 37.8887 67.8491C38.1713 67.8989 38.3232 67.9309 38.3232 67.9416C38.3232 67.9522 38.1642 67.9415 37.8816 67.9096C37.5707 67.8705 37.1644 67.8207 36.6804 67.7603C35.67 67.6288 34.271 67.4333 32.7306 67.2094C31.1903 66.9854 29.7948 66.7757 28.7879 66.6158C28.3074 66.534 27.9047 66.47 27.5973 66.4167C27.3112 66.367 27.1557 66.335 27.1592 66.3243Z" fill="#1D6EA5"/>
<path d="M38.0653 67.828C38.0582 67.8209 38.1536 67.6823 38.3338 67.4335C38.5352 67.1633 38.7931 66.815 39.1075 66.392C39.7611 65.5105 40.6585 64.2914 41.6123 62.9158C42.5662 61.5403 43.4 60.2749 43.9971 59.3543C44.2832 58.9136 44.5199 58.5439 44.7036 58.2631C44.8732 58.0072 44.9686 57.8686 44.9792 57.8721C44.9898 57.8792 44.9085 58.0285 44.7566 58.2951C44.6047 58.5617 44.3786 58.9456 44.0924 59.4147C43.5201 60.3531 42.7005 61.6291 41.7431 63.0082C40.7892 64.3873 39.8742 65.5958 39.1994 66.4631C38.8602 66.8932 38.5811 67.2415 38.3833 67.4761C38.1854 67.7107 38.0724 67.8351 38.0653 67.828Z" fill="#1D6EA5"/>
<path d="M116.478 64.8006C107.427 60.219 104.021 49.7619 102.962 40.0762C102.785 38.4589 102.364 36.7883 102.923 35.2635C103.481 33.7422 105.117 32.5195 106.646 32.9887C107.915 33.3797 108.632 34.6948 109.462 35.7469C110.564 37.1473 112.066 38.2208 113.733 38.8072C114.829 39.1911 116.136 39.3333 117.061 38.6295C118.33 37.6627 118.217 35.722 117.98 34.1225C117.531 31.1404 117.086 28.1618 116.637 25.1797C116.397 23.5802 116.157 21.9487 116.436 20.3563C116.712 18.764 117.602 17.1965 119.054 16.5496C120.506 15.9027 122.506 16.5105 123.05 18.0282C123.276 18.6609 123.24 19.3576 123.382 20.0151C123.523 20.6727 123.936 21.3622 124.59 21.4582C125.251 21.5542 125.823 21.0068 126.233 20.4701C127.642 18.6147 128.458 16.3719 129.2 14.1504C129.946 11.9289 130.649 9.66115 131.889 7.68135C133.125 5.70155 134.987 4.0061 137.245 3.54402C139.506 3.08195 142.134 4.14472 143.035 6.3129C143.936 8.48464 142.958 10.9656 141.795 12.9987C140.071 16.0164 137.916 18.7746 135.418 21.1667C134.97 21.5968 134.479 22.0625 134.373 22.6845C134.182 23.8006 135.337 24.714 136.436 24.9131C137.679 25.137 138.948 24.8278 140.209 24.7922C141.47 24.7603 142.894 25.1121 143.533 26.2247C144.42 27.7673 143.307 29.6795 142.131 30.9947C139.774 33.632 136.969 35.8535 133.878 37.5348C132.769 38.1355 131.592 38.6935 130.769 39.6567C129.946 40.62 129.582 42.1413 130.313 43.1863C131.045 44.2313 132.56 44.3805 133.754 43.9718C134.948 43.5666 135.948 42.7349 137.054 42.1235C139.121 40.9754 141.965 40.716 143.639 42.415C144.738 43.531 145.07 45.2585 144.819 46.8153C144.569 48.3721 143.809 49.7939 142.975 51.1232C140.064 55.7688 136.058 59.7533 131.239 62.2592C126.416 64.7615 121.785 65.9238 116.478 64.8006Z" fill="#1D6EA5"/>
<path d="M118.082 58.3991C118.792 53.3269 120.032 47.8354 121.523 42.1341C121.901 40.7088 122.276 39.3048 122.643 37.9186C123.014 36.5359 123.382 35.1639 123.823 33.8453C124.696 31.2008 125.735 28.7269 126.794 26.4095C127.854 24.092 128.942 21.9274 129.974 19.9156C131.013 17.9038 132.013 16.0448 132.998 14.392C134.959 11.0758 136.849 8.5948 138.216 6.94556C138.898 6.11739 139.449 5.49181 139.827 5.07595C140.011 4.8769 140.152 4.72051 140.262 4.60321C140.361 4.49658 140.414 4.44682 140.417 4.45037C140.421 4.45393 140.375 4.51435 140.283 4.62454C140.181 4.74539 140.043 4.90889 139.873 5.1186C139.509 5.54868 138.972 6.18492 138.305 7.02376C136.966 8.69433 135.107 11.186 133.175 14.5058C132.203 16.1621 131.214 18.0211 130.19 20.0329C129.169 22.0518 128.087 24.2128 127.038 26.5268C125.989 28.8407 124.961 31.3074 124.095 33.9377C123.657 35.2493 123.293 36.6106 122.926 37.9968C122.558 39.383 122.188 40.787 121.809 42.2123C120.319 47.91 119.079 53.3874 118.354 58.4417" fill="#52658D"/>
<path d="M123.905 33.8204C123.887 33.8276 123.795 33.5894 123.65 33.1593C123.502 32.7292 123.311 32.1001 123.085 31.3181C122.633 29.7578 122.078 27.5789 121.478 25.1761C120.877 22.7734 120.294 20.6087 119.817 19.059C119.58 18.2842 119.383 17.6586 119.241 17.2285C119.103 16.7949 119.033 16.5532 119.054 16.5461C119.072 16.539 119.178 16.7664 119.351 17.1894C119.527 17.6088 119.754 18.2273 120.015 18.995C120.545 20.5341 121.163 22.6987 121.764 25.1015C122.35 27.4758 122.884 29.6191 123.29 31.2613C123.477 32.0006 123.636 32.6226 123.763 33.1238C123.873 33.5645 123.926 33.8133 123.905 33.8204Z" fill="#52658D"/>
<path d="M143.809 26.9992C143.813 27.0205 143.526 27.0951 143.007 27.216C142.488 27.3404 141.739 27.5146 140.817 27.7598C138.972 28.2361 136.446 28.9825 133.698 29.9315C130.949 30.8841 128.497 31.8509 126.745 32.6045C125.865 32.9741 125.162 33.294 124.675 33.5108C124.187 33.7312 123.915 33.8414 123.905 33.8236C123.894 33.8058 124.152 33.6566 124.625 33.4042C125.099 33.1554 125.791 32.8071 126.66 32.409C128.395 31.6057 130.843 30.6033 133.602 29.6472C136.362 28.6982 138.905 27.9802 140.767 27.5572C141.696 27.3368 142.456 27.1947 142.982 27.1058C143.512 27.0134 143.802 26.9778 143.809 26.9992Z" fill="#52658D"/>
<path d="M118.28 57.9832C118.273 57.9903 118.21 57.9086 118.104 57.7522C117.98 57.5638 117.828 57.3363 117.648 57.059C117.252 56.4548 116.708 55.5662 116.044 54.4572C114.719 52.2428 112.984 49.1256 111.115 45.6636C109.247 42.1981 107.54 39.0702 106.265 36.831C105.639 35.7433 105.127 34.8476 104.742 34.1829C104.58 33.895 104.442 33.6569 104.332 33.4614C104.24 33.2943 104.198 33.2055 104.205 33.1984C104.212 33.1948 104.276 33.273 104.382 33.4294C104.505 33.6178 104.657 33.8453 104.837 34.1225C105.233 34.7267 105.777 35.6154 106.441 36.7243C107.766 38.9387 109.501 42.0559 111.373 45.5215C113.242 48.987 114.945 52.1149 116.224 54.3541C116.849 55.4418 117.362 56.3375 117.743 57.0022C117.906 57.2901 118.043 57.5282 118.153 57.7237C118.245 57.8872 118.291 57.9761 118.28 57.9832Z" fill="#52658D"/>
<path d="M144.194 45.2157C144.198 45.2264 144.109 45.2761 143.94 45.3686C143.738 45.4716 143.487 45.596 143.187 45.7489C142.491 46.0937 141.555 46.5557 140.414 47.1209C138.071 48.2796 134.853 49.9182 131.302 51.7345C127.748 53.5508 124.516 55.1609 122.149 56.2735C120.965 56.828 120.004 57.2687 119.333 57.5602C119.022 57.6917 118.768 57.8019 118.559 57.8907C118.379 57.9618 118.284 57.9974 118.28 57.9867C118.277 57.976 118.365 57.9263 118.535 57.8339C118.736 57.7308 118.983 57.6064 119.287 57.4535C119.983 57.1088 120.919 56.6467 122.06 56.0815C124.403 54.9228 127.621 53.2842 131.172 51.4679C134.722 49.6516 137.958 48.0415 140.325 46.9325C141.509 46.378 142.47 45.9373 143.141 45.6458C143.452 45.5143 143.706 45.4041 143.915 45.3152C144.095 45.2406 144.19 45.2051 144.194 45.2157Z" fill="#52658D"/>
<path d="M189.168 21.0811C189.168 15.2803 183.112 11.6086 176.937 14.5161C175.541 15.1736 174.39 16.2826 173.687 17.6475C172.132 20.6759 172.817 24.1307 174.227 27.0027L179.032 39.2547C179.724 41.0213 182.211 41.0106 182.89 39.2369L187.603 26.9209C189.238 23.1711 189.168 21.0811 189.168 21.0811ZM183.367 26.1283C179.216 28.556 175.008 24.0668 177.283 19.638C177.587 19.0479 178.05 18.5539 178.601 18.2304C182.752 15.8028 186.96 20.292 184.684 24.7208C184.384 25.3108 183.921 25.8049 183.367 26.1283Z" fill="#E8505B"/>
<path d="M102.944 139.244L55.9844 139.027C50.3353 139.002 45.7779 134.374 45.8026 128.691L46.3007 10.2475C46.3255 4.56043 50.9253 -0.0283038 56.5779 0.000131443L103.537 0.21695C109.186 0.241831 113.744 4.86966 113.719 10.5531L113.221 129C113.196 134.68 108.596 139.269 102.944 139.244Z" fill="#455A64"/>
<path d="M103.47 4.30478L94.3661 4.26213C93.1437 4.25502 92.1509 5.29291 92.1474 6.57604L92.1403 8.23595C92.1368 9.51909 91.1405 10.557 89.9217 10.5499L72.1759 10.4681C70.9535 10.461 69.9678 9.41601 69.9749 8.13287L69.982 6.47297C69.9855 5.18983 69.0034 4.14128 67.781 4.13773L64.5802 4.12351L56.6099 4.08796C52.6531 4.07019 49.4311 7.28337 49.4134 11.2643L48.9259 126.875C48.9082 130.856 52.1019 134.094 56.0553 134.112L102.923 134.328C106.88 134.346 110.102 131.133 110.119 127.152L110.607 11.5415C110.617 7.56061 107.427 4.32255 103.47 4.30478Z" fill="#FAFAFA"/>
<path d="M49.3496 25.1367H57.0301L63.8875 32.0323L56.7581 39.2015L49.4309 31.8297L49.3496 25.1367Z" fill="#EBEBEB"/>
<path d="M65.4489 29.0075L61.6016 25.1367H70.2607L65.4489 29.0075Z" fill="#EBEBEB"/>
<path d="M68.8159 32.1672L75.5602 25.3818H99.1247C99.1247 25.3818 102.732 41.5899 88.5401 51.9936L68.8159 32.1672Z" fill="#EBEBEB"/>
<path d="M65.9295 34.332L58.7153 41.5937L78.6798 61.6796L85.8939 54.1763L65.9295 34.332Z" fill="#EBEBEB"/>
<path d="M49.2612 45.7064L53.7834 40.9862L49.3496 36.5254L49.2612 45.7064Z" fill="#EBEBEB"/>
<path d="M56.4896 43.7686L49.5439 50.7565V60.4671L63.8875 75.2321L76.0336 63.8545L56.4896 43.7686Z" fill="#EBEBEB"/>
<path d="M91.2217 54.0342C91.2217 54.0342 106.099 43.0582 101.29 25.3857H110.543L110.43 75.2753L91.2217 54.0342Z" fill="#EBEBEB"/>
<path d="M88.4341 56.9131L81.2375 64.4733L103.301 86.667L110.048 79.4729L88.4341 56.9131Z" fill="#EBEBEB"/>
<path d="M78.2311 66.542L66.9258 77.8379L89.5399 100.433L100.828 89.4537L78.2311 66.542Z" fill="#EBEBEB"/>
<path d="M72.3064 123.139L89.5929 105.107L106.039 121.973L72.3064 123.139Z" fill="#EBEBEB"/>
<path d="M92.2886 102.782L110.292 84.8398C110.292 85.636 110.137 122.062 110.137 122.062L92.2886 102.782Z" fill="#EBEBEB"/>
<path d="M76.8744 92.6992L87.088 102.975L66.9258 123.914L57.606 112.668L76.8744 92.6992Z" fill="#EBEBEB"/>
<path d="M49.2791 114.128C50.2435 114.032 74.9421 90.7618 74.9421 90.7618L49.2791 64.0078V114.128Z" fill="#EBEBEB"/>
<path d="M48.9221 119.431L54.868 114.128L63.1032 123.913H48.9221V120.17" fill="#EBEBEB"/>
<path d="M56.6167 18.0917C56.5814 18.1273 55.7935 17.4377 54.8538 16.5491C54.8538 16.279 54.8538 16.4745 54.8538 16.4141L54.8573 16.4105L54.8644 16.407L54.875 16.3963L54.8962 16.375L54.9386 16.3323L55.0269 16.2506C55.0834 16.1972 55.1399 16.1439 55.1965 16.0906C55.306 15.9875 55.4155 15.888 55.5215 15.792C55.7158 15.6179 55.8995 15.4544 56.0761 15.2944C56.3941 15.0136 56.6025 14.8537 56.6202 14.8715C56.6379 14.8892 56.4612 15.0883 56.1645 15.3904C55.9949 15.5575 55.8218 15.7316 55.6381 15.9165C55.5356 16.016 55.4296 16.1191 55.3236 16.2221C55.2671 16.2754 55.2106 16.3288 55.1541 16.3821L55.0693 16.4638L55.0269 16.5065L55.0057 16.5278L54.9951 16.5385L54.988 16.542L54.9845 16.5456C54.9845 16.4852 54.9845 16.6806 54.9845 16.4105C55.9172 17.3027 56.652 18.0526 56.6167 18.0917Z" fill="#263238"/>
<path d="M105.448 15.38C105.448 15.5932 105.275 15.7638 105.067 15.7638C104.858 15.7638 104.685 15.5897 104.685 15.38C104.685 15.1667 104.858 14.9961 105.067 14.9961C105.275 14.9961 105.448 15.1667 105.448 15.38Z" fill="#263238"/>
<path d="M105.339 16.4323C105.487 16.5816 105.487 16.8268 105.339 16.9761C105.19 17.1254 104.947 17.1254 104.798 16.9761C104.65 16.8268 104.65 16.5816 104.798 16.4323C104.947 16.283 105.187 16.283 105.339 16.4323Z" fill="#263238"/>
<path d="M105.448 18.0313C105.448 18.2446 105.275 18.4152 105.067 18.4152C104.858 18.4152 104.685 18.241 104.685 18.0313C104.685 17.8181 104.858 17.6475 105.067 17.6475C105.275 17.6475 105.448 17.8181 105.448 18.0313Z" fill="#263238"/>
<path d="M88.8934 16.9541H72.3665V18.3403H88.8934V16.9541Z" fill="#263238"/>
<path d="M87.0986 41.8391C87.0986 35.3629 80.3331 31.2576 73.4369 34.5063C71.8789 35.2385 70.5894 36.479 69.8086 38.0074C68.0739 41.3877 68.8406 45.2513 70.4127 48.4574L75.7792 62.1454C76.5529 64.118 79.3333 64.1074 80.0893 62.1276L85.3533 48.3685C87.1728 44.1743 87.0986 41.8391 87.0986 41.8391ZM80.6193 47.4763C75.9841 50.1884 71.2854 45.1766 73.8255 40.2289C74.1647 39.5714 74.6805 39.0169 75.2987 38.6579C79.9339 35.9459 84.6362 40.9576 82.0925 45.9053C81.7533 46.5629 81.234 47.1138 80.6193 47.4763Z" fill="#E8505B"/>
<path d="M47.1407 63.5519C45.7311 55.7749 44.7807 54.5806 43.9788 51.9042C43.1909 49.2597 41.912 47.4896 40.3328 46.8783C39.2659 46.4659 33.9524 44.5359 32.0976 45.1757C30.0379 45.8866 28.2397 46.9209 26.9643 47.7704C25.7243 48.5986 24.7845 49.8071 24.2864 51.2182L21.4424 59.2405L26.4167 64.2344L28.9109 58.9028L31.6171 65.2865L31.2179 71.7377L46.7415 75.939C48.1547 73.6607 47.9427 67.9665 47.1407 63.5519Z" fill="#93CEFF"/>
<g opacity="0.2">
<g opacity="0.2">
<path opacity="0.2" d="M43.0993 55.0713C42.4139 59.1198 42.3044 59.6778 41.619 63.7263C41.3823 65.116 40.6969 67.2842 39.7112 68.2866C38.9834 69.0294 38.2698 69.7474 37.2559 69.9891C36.3126 70.213 34.8853 70.2379 33.9985 69.8469C33.1118 69.4524 32.3593 67.725 32.7231 66.8221C34.0374 67.1065 34.4472 67.5472 35.5813 66.8221C36.5705 66.1895 37.9766 64.789 38.5136 63.7405C40.7852 59.3295 41.407 59.1731 43.0993 55.0713Z" fill="black"/>
</g>
</g>
<path d="M31.8646 62.9125C31.8434 62.9267 31.5855 62.5108 31.1793 61.8355C30.7447 61.121 30.19 60.2147 29.5789 59.2123C28.9535 58.2171 28.3847 57.3214 27.9396 56.614C27.5192 55.9494 27.2613 55.5371 27.2825 55.5228C27.2931 55.5157 27.3708 55.6082 27.505 55.7859C27.6393 55.96 27.823 56.2195 28.0491 56.543C28.5013 57.1899 29.1019 58.0962 29.7343 59.1163C30.3667 60.14 30.9108 61.0819 31.2888 61.7715C31.4796 62.1163 31.6279 62.4006 31.7269 62.5961C31.8293 62.7952 31.8788 62.9053 31.8646 62.9125Z" fill="#263238"/>
<path d="M42.6964 70.1735C42.7 70.1842 42.5692 70.2339 42.3325 70.3121C42.2124 70.3512 42.0676 70.3974 41.8909 70.4365C41.7178 70.4756 41.52 70.5289 41.2974 70.5609C40.8558 70.6427 40.3223 70.6924 39.7253 70.7031C39.1317 70.7031 38.4746 70.6569 37.7998 70.536C37.125 70.4081 36.4962 70.2197 35.938 70.0064C35.3868 69.7861 34.9028 69.5479 34.5177 69.3133C34.3199 69.2067 34.1539 69.0859 34.0055 68.9863C33.8571 68.8904 33.7334 68.7944 33.6381 68.7162C33.4402 68.5598 33.3378 68.4674 33.3448 68.4567C33.366 68.4283 33.8006 68.7731 34.5813 69.1996C34.97 69.4164 35.4504 69.6368 35.998 69.8465C36.5492 70.0455 37.1674 70.2268 37.8316 70.3512C38.4958 70.4685 39.1388 70.5183 39.7253 70.5289C40.3117 70.5289 40.8381 70.4934 41.2762 70.4259C42.1559 70.3086 42.6858 70.1415 42.6964 70.1735Z" fill="#263238"/>
<path d="M36.468 58.0564C36.4397 58.195 34.7722 61.5362 34.7722 61.5362L26.9009 57.3669L26.0989 53.9546C25.9717 53.4215 25.6467 52.9594 25.1909 52.6608C24.7069 52.3445 24.1134 52.245 23.5517 52.38L21.2306 53.3362C21.0362 53.4144 20.8879 53.5814 20.849 53.7876C20.8172 53.9618 20.8596 54.1288 21.1564 54.1039C21.7322 54.0577 22.9334 53.9298 22.9334 53.9298L22.3858 55.874C22.241 56.3823 22.2975 56.9297 22.5413 57.3989L22.891 58.0706L23.6577 59.3182L23.6435 59.3289C23.6435 59.3289 31.2958 67.2375 35.5918 67.7493C38.1744 68.0585 41.0996 60.7755 41.0996 60.7755L36.468 58.0564Z" fill="#B78876"/>
<path d="M22.8626 54.0612C22.8555 54.0506 22.9226 53.9795 23.0533 53.8906C23.1841 53.8053 23.3925 53.6951 23.6504 53.7058C23.9154 53.72 24.1097 53.8942 24.1768 54.047C24.2475 54.207 24.2015 54.3136 24.1909 54.31C24.1697 54.31 24.1839 54.207 24.1062 54.0861C24.032 53.9688 23.8588 53.8338 23.6433 53.8231C23.4243 53.8124 23.23 53.8977 23.0922 53.9653C22.958 54.0292 22.8732 54.0754 22.8626 54.0612Z" fill="#AA6550"/>
<path d="M23.8554 55.273C23.8377 55.2801 23.8059 55.209 23.7282 55.113C23.654 55.0206 23.5304 54.9033 23.3643 54.8393C23.1983 54.7718 23.0287 54.7718 22.9121 54.7896C22.792 54.8073 22.7213 54.8322 22.7107 54.818C22.7037 54.8073 22.7673 54.7505 22.8944 54.7078C23.0181 54.6687 23.2124 54.6545 23.4067 54.7291C23.601 54.8073 23.7317 54.9495 23.7953 55.0668C23.8625 55.1877 23.8695 55.2694 23.8554 55.273Z" fill="#AA6550"/>
<path d="M38.1001 47.5109L35.9697 57.6729L41.6188 61.0887L43.788 54.8436C43.788 54.8436 42.8907 47.2621 38.1001 47.5109Z" fill="#93CEFF"/>
<path d="M41.1455 47.6919C41.149 47.699 41.0995 47.7274 41.0006 47.7843C40.9017 47.8376 40.7604 47.9158 40.5696 48.0118C40.1951 48.2037 39.6475 48.4738 38.9586 48.7831C37.5843 49.3944 35.6235 50.1764 33.3413 50.5638C31.059 50.9548 28.9252 50.7735 27.4696 50.3648C26.7383 50.1657 26.166 49.9418 25.7844 49.757C25.5901 49.6717 25.4488 49.5864 25.3499 49.5366C25.2509 49.4833 25.2015 49.4513 25.205 49.4477C25.2121 49.4335 25.4241 49.533 25.8127 49.693C26.2013 49.8565 26.7736 50.0591 27.5014 50.2404C28.9499 50.61 31.052 50.77 33.3095 50.3825C35.567 49.9987 37.5207 49.2451 38.9056 48.6658C39.5981 48.3743 40.1563 48.1219 40.5378 47.9513C40.9264 47.7701 41.1419 47.6776 41.1455 47.6919Z" fill="#EBEBEB"/>
<path d="M42.6327 48.8118C42.6363 48.8189 42.5833 48.858 42.4773 48.9291C42.3536 49.0109 42.1982 49.1104 42.0074 49.2312C41.8025 49.3628 41.5517 49.5191 41.2443 49.6755C40.9405 49.8355 40.6013 50.0345 40.2021 50.2087C40.0043 50.3011 39.7994 50.3935 39.5838 50.4931C39.3683 50.5926 39.1352 50.6743 38.8985 50.7667C38.4286 50.9658 37.9057 51.1257 37.3617 51.3035C36.2629 51.6269 35.0299 51.9042 33.7157 52.0677C32.4015 52.2169 31.1367 52.2383 29.992 52.1814C29.4197 52.1352 28.8756 52.1032 28.374 52.0215C28.1231 51.9824 27.8758 51.9575 27.6462 51.9148C27.4165 51.8686 27.194 51.826 26.9785 51.7833C26.551 51.7087 26.1765 51.5949 25.8444 51.5096C25.5088 51.4279 25.2297 51.3355 25 51.2537C24.7881 51.1791 24.615 51.1186 24.4736 51.0689C24.3535 51.0262 24.2935 50.9978 24.2935 50.9942C24.297 50.9871 24.3606 51.0013 24.4842 51.0333C24.6255 51.0724 24.8022 51.1222 25.0177 51.1826C25.2473 51.2537 25.53 51.3354 25.8656 51.4065C26.1977 51.4812 26.5757 51.5878 26.9997 51.6518C27.2116 51.6909 27.4342 51.73 27.6638 51.7726C27.8935 51.8117 28.1373 51.8331 28.3881 51.8686C28.8898 51.9433 29.4303 51.9717 29.9956 52.0108C31.1296 52.057 32.3838 52.0321 33.6874 51.8828C34.9911 51.7193 36.2135 51.4492 37.3051 51.14C37.8457 50.9658 38.365 50.813 38.8349 50.6246C39.0716 50.5322 39.3012 50.454 39.5167 50.3615C39.7322 50.2656 39.9371 50.1767 40.135 50.0879C40.5342 49.9244 40.8734 49.7324 41.1807 49.5831C41.4881 49.4338 41.746 49.2881 41.9544 49.1673C42.1487 49.0571 42.3113 48.9682 42.4384 48.8971C42.5692 48.8367 42.6292 48.8083 42.6327 48.8118Z" fill="#EBEBEB"/>
<path d="M41.6189 61.0887C41.6118 61.0994 41.4528 61.0141 41.1596 60.8541C40.8451 60.6764 40.4283 60.4418 39.916 60.1504C38.8385 59.5248 37.3652 58.6717 35.6659 57.6872L35.6094 57.6552L35.62 57.5948C35.7719 56.8341 35.9344 56.0202 36.1004 55.1813C36.3584 53.916 36.6021 52.7146 36.8247 51.6163C36.9413 51.0689 37.0367 50.5464 37.1427 50.0594C37.2557 49.5725 37.397 49.1211 37.5949 48.7372C37.9835 47.9588 38.6053 47.5358 39.054 47.3901C39.2836 47.3154 39.4708 47.2977 39.5945 47.3012C39.7181 47.3048 39.7853 47.3154 39.7853 47.3225C39.7888 47.3474 39.5168 47.2977 39.0787 47.4612C38.6512 47.6211 38.0683 48.0441 37.7115 48.7976C37.5277 49.1708 37.3935 49.6116 37.291 50.0914C37.1957 50.5819 37.0967 51.1009 36.9907 51.6482C36.7717 52.7466 36.5315 53.9515 36.2806 55.2169C36.111 56.0557 35.945 56.8697 35.7931 57.6303L35.7507 57.5379C37.4359 58.5438 38.8985 59.4182 39.9655 60.058C40.4671 60.3672 40.8769 60.616 41.1843 60.8044C41.474 60.9785 41.6224 61.0816 41.6189 61.0887Z" fill="#263238"/>
<path d="M43.3501 54.5449C43.3713 54.5449 43.3783 54.9075 43.3218 55.494C43.2653 56.0769 43.1416 56.8802 42.9155 57.7439C42.6894 58.6112 42.4032 59.3683 42.1665 59.905C41.9298 60.4417 41.7496 60.7545 41.7285 60.7438C41.7037 60.7332 41.8415 60.3991 42.0464 59.8552C42.2513 59.3114 42.5128 58.5543 42.7389 57.6977C42.9614 56.8411 43.1063 56.052 43.1946 55.4762C43.2794 54.9004 43.3218 54.5414 43.3501 54.5449Z" fill="#263238"/>
<path d="M12.7 111.067L12.6364 116.495C12.6364 116.495 7.13211 118.254 7.02612 119.257L17.48 119.758L17.9216 111.306L12.7 111.067Z" fill="#455A64"/>
<path d="M15.8889 116.193C16.0903 116.257 16.2175 116.495 16.1609 116.698C16.1044 116.9 15.8677 117.036 15.6663 116.975C15.465 116.915 15.3024 116.634 15.3802 116.438C15.4579 116.243 15.7476 116.101 15.9278 116.207" fill="#E0E0E0"/>
<path d="M17.4787 119.754L17.4893 118.901L7.46291 118.741C7.46291 118.741 6.9895 118.922 7.02483 119.257L17.4787 119.754Z" fill="#E0E0E0"/>
<path d="M12.469 116.431C12.469 116.481 12.7234 116.516 12.9672 116.694C13.2145 116.865 13.3346 117.092 13.3805 117.074C13.4264 117.067 13.3664 116.754 13.0696 116.548C12.7728 116.338 12.4584 116.385 12.469 116.431Z" fill="#263238"/>
<path d="M11.3527 116.836C11.3386 116.886 11.5541 116.982 11.7201 117.209C11.8897 117.43 11.9215 117.668 11.9745 117.668C12.0204 117.679 12.0699 117.38 11.865 117.103C11.653 116.822 11.3562 116.786 11.3527 116.836Z" fill="#263238"/>
<path d="M10.6673 118.127C10.7133 118.141 10.7981 117.885 10.6779 117.6C10.5614 117.313 10.3282 117.188 10.3035 117.231C10.2717 117.27 10.42 117.43 10.5119 117.668C10.6108 117.903 10.6144 118.119 10.6673 118.127Z" fill="#263238"/>
<path d="M12.6208 115.198C12.6385 115.244 12.8787 115.187 13.1649 115.219C13.4546 115.248 13.6737 115.354 13.7019 115.312C13.7337 115.276 13.5217 115.077 13.1826 115.041C12.8434 115.002 12.5961 115.155 12.6208 115.198Z" fill="#263238"/>
<g opacity="0.3">
<path opacity="0.3" d="M12.688 112.141L12.6738 113.107L17.8142 113.306L17.8637 112.439L12.688 112.141Z" fill="black"/>
</g>
<path d="M12.6528 114.103C12.6528 114.124 12.8507 114.167 13.1757 114.124C13.3382 114.103 13.529 114.06 13.7304 113.982C13.8328 113.943 13.9353 113.893 14.0377 113.836C14.0872 113.808 14.1472 113.779 14.2002 113.719C14.2603 113.669 14.2992 113.534 14.2356 113.445C14.1861 113.364 14.0943 113.321 14.0165 113.317C13.9388 113.31 13.8752 113.324 13.8187 113.335C13.7021 113.356 13.5891 113.392 13.4866 113.431C13.2817 113.513 13.1156 113.619 12.9885 113.726C12.7341 113.939 12.6422 114.128 12.6599 114.138C12.6811 114.156 12.8083 114 13.0626 113.826C13.1898 113.74 13.3523 113.651 13.5431 113.584C13.6385 113.552 13.741 113.523 13.847 113.506C13.96 113.481 14.0519 113.484 14.0801 113.538C14.0907 113.555 14.0907 113.566 14.066 113.595C14.0413 113.623 13.9953 113.651 13.9459 113.68C13.8505 113.737 13.7551 113.783 13.6632 113.826C13.476 113.907 13.2994 113.961 13.1474 113.996C12.8507 114.071 12.6528 114.074 12.6528 114.103Z" fill="#263238"/>
<path d="M12.7163 114.181C12.7339 114.188 12.8435 114.01 12.8788 113.68C12.8965 113.516 12.8894 113.314 12.8329 113.1C12.8046 112.994 12.7657 112.884 12.7163 112.773C12.6597 112.667 12.5926 112.525 12.3948 112.493C12.2923 112.486 12.2005 112.56 12.1687 112.628C12.1298 112.699 12.1227 112.759 12.1051 112.82C12.0804 112.941 12.0768 113.061 12.0874 113.175C12.1086 113.399 12.1934 113.591 12.2853 113.73C12.476 114.01 12.688 114.085 12.6915 114.067C12.7092 114.042 12.5361 113.936 12.3913 113.666C12.3206 113.534 12.2605 113.36 12.2499 113.164C12.2429 113.065 12.2499 112.962 12.2747 112.862C12.2959 112.752 12.3418 112.663 12.3842 112.677C12.4372 112.677 12.522 112.766 12.5608 112.859C12.6103 112.955 12.6492 113.054 12.6774 113.15C12.7339 113.342 12.7551 113.527 12.7551 113.68C12.7516 113.982 12.688 114.17 12.7163 114.181Z" fill="#263238"/>
<path d="M34.002 71.7878C34.002 71.7878 17.6764 64.8993 12.6209 64.6043C9.45185 64.4195 7.05301 66.4668 7.48402 69.7689C7.69953 71.4181 12.211 90.7434 12.211 90.7434L19.0931 87.58L15.7863 74.219L29.1972 80.7769L34.002 71.7878Z" fill="#263238"/>
<path d="M13.7267 70.8389C13.6738 70.8851 14.2143 71.5853 14.7831 72.513C15.3554 73.4407 15.737 74.2405 15.8006 74.212C15.8606 74.1907 15.5709 73.3306 14.988 72.3851C14.4086 71.4396 13.7727 70.7963 13.7267 70.8389Z" fill="#455A64"/>
<path d="M12.3912 71.6069C12.3559 71.6673 13.1826 72.1934 14.1471 72.9114C15.1151 73.6258 15.8605 74.2585 15.9065 74.2087C15.9489 74.1625 15.2705 73.441 14.2884 72.7159C13.3098 71.9908 12.4195 71.5536 12.3912 71.6069Z" fill="#455A64"/>
<path d="M46.7418 75.9325C46.7418 75.9325 44.6892 78.5948 42.7284 79.3234C40.2695 80.2369 22.075 88.8741 22.075 88.8741C22.075 88.8741 18.7753 113.535 19.0367 112.507L11.4233 112.322L12.25 89.6063C12.349 86.6952 14.6665 83.3577 17.1537 81.8719L33.9986 71.7881L46.7418 75.9325Z" fill="#263238"/>
<path d="M12.1052 93.7615C12.1123 93.7615 12.1229 93.6548 12.137 93.4487C12.1476 93.2212 12.1653 92.9226 12.1829 92.5565C12.2253 91.7817 12.2677 90.6549 12.4832 89.29C12.7093 87.9358 13.1191 86.3008 14.1296 84.7866C14.6312 84.0331 15.3025 83.3506 16.0868 82.7535C16.8711 82.1563 17.7543 81.6303 18.6693 81.1078C22.333 78.9965 25.4949 76.8425 27.8337 75.3674C28.9995 74.621 29.9464 74.0274 30.6035 73.6222C30.9144 73.4303 31.1652 73.2739 31.3595 73.153C31.5326 73.0429 31.621 72.9824 31.6174 72.9753C31.6139 72.9682 31.5185 73.0144 31.3383 73.1104C31.1581 73.2064 30.8932 73.3485 30.5576 73.5405C29.8828 73.9208 28.9218 74.493 27.7454 75.2217C25.3819 76.6612 22.2058 78.7939 18.5527 80.8981C17.6377 81.4206 16.7439 81.9502 15.9455 82.5651C15.147 83.1764 14.4581 83.8838 13.9458 84.6622C12.9213 86.2261 12.5221 87.8931 12.3172 89.2651C12.1229 90.6478 12.1052 91.7781 12.0911 92.553C12.0911 92.9226 12.0911 93.2176 12.0911 93.4487C12.0946 93.6548 12.0981 93.7615 12.1052 93.7615Z" fill="#455A64"/>
<path d="M40.022 78.5336C40.0503 78.5016 39.8277 78.2955 39.5557 77.9009C39.2837 77.5099 38.9798 76.9128 38.835 76.2019C38.6937 75.4875 38.7396 74.8193 38.842 74.3536C38.941 73.8844 39.0646 73.6072 39.0293 73.5894C39.0081 73.5752 38.8279 73.8311 38.6795 74.311C38.5311 74.7873 38.4499 75.4946 38.6018 76.2517C38.7537 77.0052 39.0999 77.6272 39.4214 78.0076C39.7394 78.3879 40.0044 78.5514 40.022 78.5336Z" fill="#455A64"/>
<path d="M14.2214 112.322C14.225 112.322 14.232 112.28 14.2462 112.195C14.2568 112.099 14.2744 111.974 14.2921 111.821C14.3274 111.477 14.3804 110.993 14.444 110.385C14.5676 109.12 14.7443 107.318 14.9598 105.1C15.0658 103.98 15.1824 102.761 15.306 101.45C15.4332 100.138 15.5639 98.734 15.6664 97.2554C15.7794 95.7803 15.9207 94.2306 16.1857 92.6489C16.4613 91.0707 16.8711 89.4464 17.5847 87.9073C18.2843 86.3612 19.277 85.0105 20.3475 83.8304C21.4356 82.6575 22.6121 81.6516 23.7956 80.7736C26.1626 79.0213 28.4979 77.7417 30.4233 76.6114C32.3558 75.4953 33.8962 74.5428 34.9207 73.8248C35.4365 73.4693 35.8251 73.1814 36.0866 72.9788C36.2067 72.8829 36.3021 72.8082 36.3798 72.7478C36.4434 72.6945 36.4787 72.666 36.4752 72.6625C36.4717 72.6589 36.4363 72.6803 36.3657 72.73C36.2844 72.7869 36.1855 72.8544 36.0583 72.9433C35.7898 73.1317 35.3906 73.4089 34.8712 73.7501C33.8326 74.4432 32.2852 75.3674 30.3421 76.4657C28.4096 77.5747 26.0602 78.84 23.6684 80.5959C22.4743 81.4739 21.2837 82.4833 20.1779 83.6705C19.0898 84.8647 18.0829 86.2332 17.3692 87.8078C16.645 89.3753 16.2316 91.0174 15.9561 92.6098C15.6911 94.2057 15.5533 95.7625 15.4473 97.2412C15.3519 98.7198 15.2283 100.124 15.1117 101.435C14.9987 102.747 14.8927 103.97 14.7973 105.089C14.6136 107.311 14.4617 109.113 14.3557 110.382C14.3097 110.993 14.2744 111.473 14.2497 111.821C14.2391 111.974 14.232 112.099 14.2285 112.198C14.2144 112.28 14.2179 112.322 14.2214 112.322Z" fill="#455A64"/>
<path d="M32.1474 32.668C31.6775 31.328 30.116 30.4821 28.7452 30.8268C28.4308 30.905 28.1199 31.0401 27.7984 31.033C27.3992 31.0259 27.0388 30.8055 26.6467 30.7273C25.8058 30.5567 24.8873 31.1574 24.6965 31.9998C24.0288 31.8612 23.2869 31.9571 22.7534 32.3872C22.2235 32.8173 21.9762 33.6241 22.3012 34.2284C22.439 34.4879 22.6651 34.694 22.7923 34.9606C23.0007 35.3978 22.9053 35.9238 23.0502 36.3859C23.2657 37.0719 23.9864 37.4949 24.6965 37.5766C25.4066 37.6584 26.1167 37.4629 26.8056 37.271" fill="#263238"/>
<path d="M28.8725 46.7258C28.7841 46.0398 28.7241 45.5564 28.7241 45.5564C28.7241 45.5564 26.4489 45.5422 25.5303 42.7022C25.0746 41.2911 24.7708 38.9061 24.5871 36.9477C24.421 35.1847 25.7458 33.635 27.5052 33.5426L33.5536 33.2227L33.6843 34.1646L35.2776 45.8657C35.5214 47.65 34.2743 49.2921 32.4972 49.5267C30.7237 49.7613 29.1021 48.5066 28.8725 46.7258Z" fill="#B78876"/>
<path d="M25.4392 38.6258C25.4639 38.8248 25.6512 38.967 25.8561 38.9457C26.061 38.9244 26.2094 38.7466 26.1847 38.5476C26.1599 38.3486 25.9727 38.2064 25.7678 38.2277C25.5629 38.249 25.4145 38.4303 25.4392 38.6258Z" fill="#263238"/>
<path d="M25.2903 38.0996C25.3433 38.1422 25.5906 37.8863 25.9898 37.8223C26.389 37.7548 26.714 37.9148 26.7494 37.8579C26.767 37.833 26.707 37.7513 26.5656 37.6802C26.4243 37.6055 26.1982 37.5522 25.9474 37.5913C25.7001 37.634 25.5058 37.7584 25.3998 37.8721C25.2903 37.9858 25.262 38.0818 25.2903 38.0996Z" fill="#263238"/>
<path d="M29.233 37.9793C29.2577 38.1784 29.445 38.3205 29.6499 38.2992C29.8548 38.2779 30.0032 38.1002 29.9785 37.9011C29.9537 37.7021 29.7665 37.5599 29.5616 37.5812C29.3567 37.6025 29.2118 37.7803 29.233 37.9793Z" fill="#263238"/>
<path d="M29.2259 37.5488C29.2788 37.5914 29.5297 37.3355 29.9289 37.2716C30.3281 37.204 30.6532 37.364 30.6885 37.3071C30.7061 37.2822 30.6461 37.2005 30.5048 37.1294C30.3635 37.0547 30.1373 37.0014 29.8865 37.0405C29.6392 37.0832 29.4449 37.2076 29.3389 37.3213C29.2294 37.4351 29.2011 37.531 29.2259 37.5488Z" fill="#263238"/>
<path d="M28.2472 40.7576C28.2437 40.7327 27.9893 40.7327 27.5795 40.7434C27.477 40.7505 27.3746 40.7434 27.3463 40.6759C27.311 40.6048 27.3357 40.4875 27.3675 40.3595C27.424 40.0965 27.4841 39.8193 27.5442 39.5314C27.7879 38.3513 27.9469 37.3881 27.8975 37.3809C27.8515 37.3703 27.6148 38.3193 27.3711 39.4994C27.3145 39.7908 27.258 40.0681 27.205 40.3311C27.1838 40.4555 27.1379 40.5977 27.2156 40.7434C27.2545 40.8145 27.3393 40.8607 27.4064 40.8678C27.4735 40.8785 27.5336 40.8678 27.583 40.8643C27.9999 40.8181 28.2507 40.7825 28.2472 40.7576Z" fill="#263238"/>
<path d="M28.7241 45.5564C28.7241 45.5564 30.6919 45.3716 32.4337 43.8965C32.4337 43.8965 31.8083 46.0469 28.8725 46.2388L28.7241 45.5564Z" fill="#AA6550"/>
<path d="M29.4661 40.847C29.399 40.8541 29.4696 41.2913 29.1482 41.6574C28.8267 42.0271 28.3568 42.052 28.3638 42.1124C28.3638 42.1408 28.4804 42.1799 28.6747 42.1551C28.8655 42.1302 29.1376 42.0235 29.3354 41.7996C29.5332 41.5721 29.5898 41.3056 29.5756 41.1243C29.5615 40.9395 29.4944 40.8399 29.4661 40.847Z" fill="#263238"/>
<path d="M28.8723 35.9877C28.9289 36.0908 29.321 35.9735 29.798 35.9558C30.2749 35.9273 30.6741 36.0055 30.72 35.8989C30.7412 35.8491 30.66 35.7567 30.4904 35.675C30.3208 35.5932 30.0665 35.5328 29.7803 35.547C29.4941 35.5612 29.2433 35.6465 29.0843 35.746C28.9218 35.842 28.8476 35.9415 28.8723 35.9877Z" fill="#263238"/>
<path d="M25.2511 36.9121C25.3359 36.9903 25.5974 36.8517 25.9259 36.7948C26.2545 36.7273 26.5477 36.7593 26.5972 36.6526C26.6184 36.6029 26.5583 36.5176 26.4241 36.45C26.2898 36.3825 26.0778 36.347 25.8517 36.3896C25.6256 36.4323 25.4419 36.546 25.343 36.6598C25.237 36.7735 25.2158 36.873 25.2511 36.9121Z" fill="#263238"/>
<path d="M24.2831 35.6714C24.2831 35.6714 25.8835 36.2153 27.7207 34.9783C28.9254 34.1679 30.388 33.6596 30.7519 33.88C31.1158 34.0968 31.3525 35.4262 32.6773 35.6501C32.6773 35.6501 32.9105 38.2093 33.9103 37.9889C34.6204 37.8325 34.2071 35.0103 33.9068 33.4002C33.7866 32.7568 33.239 32.2805 32.5855 32.2557L30.7236 32.1846L28.399 32.8386L25.9047 33.521L24.0076 34.3137L24.2831 35.6714Z" fill="#263238"/>
<path d="M33.6877 36.9544C33.7266 36.926 35.2705 36.112 35.5566 37.8074C35.8428 39.5029 34.0905 39.4425 34.0799 39.3927C34.0658 39.3429 33.6877 36.9544 33.6877 36.9544Z" fill="#B78876"/>
<path d="M34.4861 38.6605C34.4932 38.6534 34.5179 38.6748 34.5709 38.689C34.6239 38.7032 34.7087 38.7032 34.79 38.657C34.956 38.561 35.0585 38.2518 35.0161 37.9425C34.9949 37.7862 34.9383 37.6475 34.8642 37.5338C34.7935 37.4201 34.6981 37.3454 34.6063 37.3454C34.5144 37.3383 34.4579 37.4058 34.4473 37.4556C34.4331 37.5054 34.4508 37.5373 34.4402 37.5445C34.4367 37.548 34.3978 37.5231 34.4013 37.4485C34.4013 37.4129 34.4155 37.3703 34.4508 37.3312C34.4861 37.2921 34.5427 37.2637 34.6063 37.2601C34.737 37.2459 34.8748 37.349 34.956 37.4698C35.0443 37.5942 35.1115 37.7506 35.1362 37.9248C35.1821 38.2696 35.062 38.6179 34.8324 38.7281C34.7193 38.7778 34.6133 38.7601 34.5568 38.7281C34.4932 38.6996 34.4791 38.6641 34.4861 38.6605Z" fill="#AA6550"/>
<path d="M25.0922 31.3739C25.1063 31.3668 25.1522 31.4628 25.2688 31.6014C25.3854 31.74 25.5974 31.9071 25.9047 32.0137C26.2121 32.1239 26.6043 32.1523 27.0282 32.0635C27.4522 31.9817 27.9008 31.8005 28.3884 31.6299C28.8724 31.4592 29.3705 31.3384 29.8333 31.3704C30.2961 31.3917 30.6989 31.605 30.9285 31.868C31.1688 32.1275 31.2642 32.4154 31.2642 32.6109C31.2712 32.8064 31.2218 32.9094 31.2147 32.9059C31.197 32.9023 31.2218 32.7992 31.1935 32.618C31.1688 32.4403 31.0663 32.1843 30.8367 31.9604C30.6106 31.7294 30.2537 31.5552 29.8227 31.5445C29.3952 31.5232 28.9254 31.6405 28.4484 31.8076C27.9715 31.9746 27.5087 32.1595 27.06 32.2341C26.6149 32.3194 26.1838 32.2732 25.8623 32.1381C25.5373 32.0102 25.3218 31.8111 25.2158 31.6476C25.1028 31.4841 25.0851 31.3775 25.0922 31.3739Z" fill="#455A64"/>
<path d="M30.7837 32.9986C30.7695 33.0093 30.6989 32.9098 30.5222 32.7854C30.3491 32.6609 30.0559 32.5437 29.6743 32.533C29.2928 32.5152 28.8476 32.6254 28.3884 32.8493C27.9255 33.0626 27.4415 33.3789 26.8551 33.5709C25.6716 33.9548 24.5092 33.642 23.838 33.2403C23.4918 33.0413 23.248 32.828 23.0961 32.6681C22.9442 32.5046 22.8735 32.405 22.8841 32.3979C22.9124 32.3695 23.2162 32.7676 23.9016 33.1266C24.5693 33.4856 25.6786 33.7628 26.8021 33.3967C27.3567 33.2154 27.8408 32.9098 28.3212 32.6965C28.7946 32.4761 29.2822 32.3659 29.6849 32.405C30.0877 32.4335 30.4021 32.5828 30.5682 32.732C30.7377 32.8742 30.7907 32.9951 30.7837 32.9986Z" fill="#455A64"/>
<path d="M25.5514 61.8815L17.348 54.8438L14.6418 55.4587C14.6418 55.4587 17.4929 61.4229 19.5561 63.6089C19.5561 63.6089 21.5946 66.3564 24.9579 65.1693C28.3177 63.9821 25.5514 61.8815 25.5514 61.8815Z" fill="#B78876"/>
<path d="M16.7298 47.0986H13.2428C12.7164 47.0986 12.243 47.7135 12.4337 48.2183L15.9419 55.0889C16.0762 55.3555 16.3517 55.5226 16.6485 55.5226L20.8986 55.5119C21.3861 55.4444 21.5628 54.9005 21.3614 54.6055L17.9769 47.877C17.7437 47.4008 17.2597 47.0986 16.7298 47.0986Z" fill="#455A64"/>
<path d="M16.4934 47.5107H13.0064C12.5683 47.5107 12.2857 47.9728 12.4871 48.3638L15.9104 55.0852C16.0447 55.3518 16.3203 55.5188 16.617 55.5188H20.8212C21.0791 55.5188 21.2451 55.2487 21.1285 55.0176L17.744 48.2892C17.5073 47.8164 17.0233 47.5107 16.4934 47.5107Z" fill="#263238"/>
<path d="M16.1962 50.3262L14.0729 51.1792L13.6172 52.8996L14.6382 55.4587L18.3866 56.0061L17.2879 54.8758L17.4292 53.8912C17.4292 53.8912 18.4749 53.5607 18.4997 53.4007C18.5244 53.2408 18.3689 52.7005 18.21 52.6721C18.051 52.6472 16.9522 53.0559 16.9522 53.0559C16.9522 53.0559 18.2524 52.0216 18.2135 51.8546C18.1782 51.6875 18.0368 51.2645 17.7789 51.2148C17.521 51.1686 15.4225 52.1602 15.4225 52.1602L15.0833 52.9422L14.7866 51.6946C14.7936 51.7053 16.6555 51.1792 16.1962 50.3262Z" fill="#B78876"/>
<path d="M16.4646 54.3607C16.4504 54.3642 16.4116 54.286 16.3939 54.1474C16.3727 54.0088 16.3833 53.8098 16.4575 53.6072C16.5317 53.4046 16.6554 53.2482 16.7578 53.1557C16.8638 53.0633 16.9415 53.0313 16.9486 53.042C16.9698 53.0669 16.6942 53.2659 16.56 53.6462C16.4151 54.023 16.4964 54.3536 16.4646 54.3607Z" fill="#AA6550"/>
<path d="M15.4543 53.9868C15.4402 53.9797 15.5179 53.7771 15.5391 53.4287C15.5568 53.2546 15.5639 53.0378 15.6451 52.8103C15.6875 52.6965 15.744 52.5792 15.8394 52.4797C15.9348 52.3802 16.0585 52.3127 16.1857 52.2594C16.6944 52.0745 17.1501 51.9252 17.4858 51.8151C17.8214 51.7084 18.0298 51.648 18.0334 51.6622C18.0369 51.6764 17.8391 51.7617 17.5105 51.8861C17.1855 52.0141 16.7262 52.1776 16.228 52.3589C16.1079 52.4086 15.9984 52.4691 15.9172 52.5508C15.8359 52.6326 15.7794 52.7392 15.7405 52.8423C15.6593 53.052 15.6416 53.2617 15.6169 53.4359C15.5745 53.7913 15.4685 53.9975 15.4543 53.9868Z" fill="#AA6550"/>
<path d="M14.9668 53.5996C14.9385 53.596 14.942 53.4076 14.981 53.1802C15.02 52.9527 15.0731 52.7714 15.1015 52.7785C15.1298 52.7821 15.1263 52.9705 15.0873 53.1979C15.0519 53.4254 14.9987 53.6067 14.9668 53.5996Z" fill="#AA6550"/>
<path d="M14.9104 48.8082C14.9104 49.0535 15.1082 49.2561 15.3555 49.2561C15.5993 49.2561 15.8007 49.057 15.8007 48.8082C15.8007 48.563 15.6028 48.3604 15.3555 48.3604C15.1118 48.3604 14.9104 48.563 14.9104 48.8082Z" fill="#FAFAFA"/>
<path d="M6.65096 116.236C7.76736 116.542 8.67885 117.402 9.22291 118.429C9.76698 119.456 9.97189 120.633 10.0108 121.795C10.0814 124.045 9.15579 126.462 8.06412 128.428C5.97618 127.073 5.13888 124.297 4.80325 122.865C4.27332 120.601 4.6796 116.176 6.65096 116.236Z" fill="#52658D"/>
<path d="M10.7456 131.768C10.2687 130.56 10.5867 129.113 11.4169 128.118C12.2471 127.123 13.5296 126.565 14.8155 126.476C15.4126 126.433 16.0733 126.515 16.4795 126.952C16.8611 127.361 16.9176 128.004 16.7339 128.534C16.5502 129.063 16.158 129.497 15.7341 129.86C14.2785 131.111 12.6393 132.049 10.7456 131.768Z" fill="#52658D"/>
<path d="M9.35365 138.902C9.34305 138.902 9.34305 138.735 9.35365 138.437C9.36425 138.11 9.38192 137.683 9.39958 137.175C9.45611 136.119 9.50557 134.609 10.092 133.062C10.6679 131.523 11.6112 130.315 12.4591 129.657C12.8795 129.323 13.2575 129.106 13.526 128.982C13.6603 128.915 13.7698 128.879 13.844 128.851C13.9182 128.822 13.957 128.811 13.9606 128.819C13.9782 128.854 13.3423 129.067 12.5333 129.75C11.7207 130.414 10.8127 131.609 10.2439 133.123C9.66808 134.634 9.59742 136.126 9.51263 137.182C9.47377 137.712 9.44551 138.145 9.41371 138.44C9.38898 138.739 9.36425 138.902 9.35365 138.902Z" fill="#263238"/>
<path d="M6.63693 119.634C6.64399 119.634 6.66166 119.701 6.68992 119.829C6.71818 119.975 6.75705 120.163 6.80651 120.394C6.90543 120.885 7.03615 121.599 7.19513 122.481C7.50955 124.247 7.90877 126.689 8.28679 129.398C8.66481 132.106 8.95451 134.569 9.13822 136.35C9.23008 137.242 9.30074 137.964 9.3396 138.465C9.35726 138.7 9.37139 138.892 9.38199 139.041C9.38906 139.172 9.39259 139.243 9.38553 139.243C9.37846 139.243 9.36786 139.176 9.3502 139.044C9.33253 138.895 9.3078 138.707 9.27601 138.472C9.21241 137.953 9.12762 137.239 9.02164 136.364C8.80966 134.584 8.5023 132.128 8.12428 129.419C7.74273 126.711 7.36471 124.265 7.07854 122.499C6.93722 121.628 6.82417 120.917 6.74291 120.405C6.70758 120.171 6.67932 119.982 6.65812 119.833C6.63693 119.701 6.62986 119.634 6.63693 119.634Z" fill="#263238"/>
<path d="M7.7356 133.585C6.92657 130.969 4.7821 128.812 2.18188 127.994C1.52123 127.788 0.683929 127.71 0.242316 128.247C-0.199296 128.787 0.0338751 129.601 0.376567 130.209C1.80033 132.739 4.86335 134.222 7.71794 133.77" fill="#52658D"/>
<path d="M2.78955 130.048C2.79309 130.038 2.94147 130.08 3.20643 130.162C3.34068 130.205 3.5032 130.255 3.68338 130.336C3.86355 130.418 4.08259 130.489 4.30163 130.61C4.52421 130.724 4.77151 130.845 5.01881 131.005C5.27671 131.15 5.53108 131.335 5.79958 131.534C6.32599 131.939 6.86652 132.437 7.35406 133.034C7.83453 133.635 8.21255 134.268 8.49872 134.868C8.63297 135.174 8.76016 135.462 8.84848 135.746C8.95093 136.023 9.01452 136.294 9.07812 136.539C9.14877 136.781 9.16997 137.008 9.2053 137.203C9.24416 137.399 9.25476 137.573 9.26536 137.712C9.28656 137.993 9.29009 138.145 9.27949 138.149C9.24416 138.153 9.2159 137.531 8.9686 136.567C8.90147 136.329 8.83435 136.066 8.72483 135.792C8.63297 135.515 8.50225 135.231 8.368 134.932C8.07831 134.346 7.70382 133.727 7.23041 133.137C6.75347 132.551 6.22353 132.06 5.71126 131.655C5.44983 131.46 5.20252 131.271 4.95169 131.122C4.71145 130.958 4.47121 130.834 4.25217 130.713C3.37248 130.258 2.77542 130.084 2.78955 130.048Z" fill="#263238"/>
<path d="M229.357 90.792H33.3442V119.728H229.357V90.792Z" fill="#39455C"/>
<path d="M60.9444 138.505C71.3591 137.8 79.2341 128.734 78.5337 118.256C77.8332 107.778 68.8226 99.8553 58.4079 100.56C47.9931 101.265 40.1181 110.33 40.8186 120.808C41.519 131.286 50.5296 139.209 60.9444 138.505Z" fill="#263238"/>
<path d="M40.788 119.213C40.788 119.231 40.7845 119.245 40.7845 119.263C40.6326 129.762 48.9738 138.4 59.41 138.549C69.8462 138.702 78.4311 130.31 78.5831 119.81C78.5831 119.792 78.5795 119.778 78.5831 119.76L40.788 119.213Z" fill="#263238"/>
<path d="M46.416 119.344C46.31 126.716 52.164 132.78 59.4912 132.886C66.8185 132.993 72.8456 127.103 72.9516 119.731C73.0576 112.359 67.2036 106.296 59.8763 106.189C52.5456 106.079 46.522 111.972 46.416 119.344Z" fill="#FAFAFA"/>
<path d="M59.8764 106.186C52.5491 106.079 46.522 111.969 46.416 119.341L72.9517 119.725C73.0576 112.356 67.2036 106.293 59.8764 106.186Z" fill="#E0E0E0"/>
<path d="M51.6022 119.418C51.5386 123.908 55.1033 127.601 59.5688 127.668C64.0309 127.732 67.7051 124.146 67.7687 119.653C67.8323 115.164 64.2676 111.467 59.802 111.403C55.3364 111.339 51.6657 114.926 51.6022 119.418Z" fill="#263238"/>
<path d="M205.297 138.523C215.718 137.916 223.676 128.924 223.073 118.44C222.47 107.955 213.533 99.9481 203.112 100.555C192.691 101.162 184.732 110.154 185.335 120.638C185.939 131.122 194.876 139.13 205.297 138.523Z" fill="#263238"/>
<path d="M185.319 119.213C185.319 119.231 185.315 119.245 185.315 119.263C185.163 129.762 193.505 138.4 203.941 138.549C214.377 138.702 222.962 130.31 223.114 119.81C223.114 119.792 223.11 119.778 223.11 119.76L185.319 119.213Z" fill="#263238"/>
<path d="M190.947 119.344C190.841 126.716 196.695 132.78 204.022 132.886C211.349 132.993 217.376 127.103 217.482 119.731C217.588 112.359 211.734 106.296 204.407 106.189C197.076 106.079 191.053 111.972 190.947 119.344Z" fill="#FAFAFA"/>
<path d="M204.407 106.186C197.08 106.079 191.053 111.969 190.947 119.341L217.482 119.725C217.588 112.356 211.734 106.293 204.407 106.186Z" fill="#E0E0E0"/>
<path d="M196.133 119.418C196.07 123.908 199.634 127.601 204.1 127.668C208.562 127.732 212.236 124.146 212.3 119.653C212.363 115.164 208.799 111.467 204.333 111.403C199.867 111.339 196.197 114.926 196.133 119.418Z" fill="#263238"/>
<path d="M84.4582 74.5125C84.4582 74.5125 56.6259 76.5776 46.3099 78.9058C39.0392 80.5479 25.0206 83.3772 25.1902 92.2525L26.303 98.6114C26.303 98.6114 21.1026 101 21.1026 107.099C21.1026 113.195 19.8343 122.657 31.9698 123.034C33.9694 123.098 37.7708 123.034 37.7708 123.034C37.7708 123.034 35.4391 97.0261 59.1908 96.2619C83.3524 95.487 81.7484 122.796 81.7484 122.796H182.585C182.585 122.796 178.447 96.1908 204.457 96.1553C230.466 96.1162 226.509 122.97 226.509 122.97C226.509 122.97 236.076 123.801 240.528 115.712C244.979 107.622 243.82 101.864 243.82 101.864L243.672 96.7489C243.622 95.0072 242.238 93.6032 240.51 93.5357C240.51 93.5357 242.248 80.6581 239.581 78.4295C236.913 76.2009 222.298 62.7581 222.298 62.7581L222.994 62.3174C224.16 61.5816 223.958 59.8115 222.655 59.3601C217.105 57.4407 206.131 53.6411 203.552 52.7347C203.164 52.5996 202.764 52.5143 202.355 52.4823C200.814 52.365 196.458 52.0842 188.456 51.9989C178.709 51.8959 140.01 51.9989 140.01 51.9989C140.01 51.9989 126.69 53.1008 119.271 56.3886C111.467 59.8471 84.4582 74.5125 84.4582 74.5125Z" fill="#52658D"/>
<g opacity="0.4">
<g opacity="0.4">
<g opacity="0.4">
<path opacity="0.4" d="M28.1578 106.396C27.1474 106.19 25.6 106.168 24.8298 106.858C24.2575 107.37 24.1056 108.194 24.0208 108.962C23.9007 110.011 23.8406 111.088 24.0915 112.115C24.3388 113.142 24.9358 114.123 25.8579 114.628C26.78 115.133 28.0483 115.051 28.7655 114.279C29.4226 113.576 29.4968 112.516 29.4791 111.55C29.4544 110.178 29.5639 109.015 29.3131 107.668C29.2636 107.412 29.1294 107.085 28.9669 106.886C28.6984 106.556 28.4935 106.417 28.1578 106.396Z" fill="black"/>
</g>
</g>
</g>
<path d="M26.3031 98.6109C29.2566 98.618 32.1253 98.4474 35.0717 98.2483C35.3897 98.227 35.7359 98.1915 35.9691 97.9746C36.2517 97.7116 36.2729 97.278 36.2764 96.8905C36.2906 95.2982 36.2128 93.4854 35.0117 92.4475C34.2768 91.8149 33.2699 91.6158 32.309 91.5234C29.9384 91.2995 27.4512 91.4843 25.1902 92.2449L26.3031 98.6109Z" fill="#FAFAFA"/>
<path d="M87.6555 121.982C87.6555 121.982 87.645 121.896 87.6308 121.729C87.6202 121.555 87.6026 121.306 87.5814 120.983C87.546 120.322 87.493 119.355 87.4259 118.114C87.3553 116.87 87.274 115.346 87.0974 113.583C86.9136 111.823 86.6451 109.818 86.0551 107.672C85.4616 105.528 84.5537 103.246 83.2112 101.004C81.8616 98.7785 80.0881 96.5534 77.714 94.8331C72.9445 91.4209 66.5041 89.4908 59.7703 89.4091C53.0154 89.3273 46.5997 91.4742 41.9539 95.0535C39.6081 96.8058 37.665 98.8531 36.1706 100.993C34.662 103.126 33.5597 105.319 32.786 107.401C32.0017 109.484 31.5884 111.471 31.3552 113.22C31.1008 114.972 31.1397 116.504 31.1821 117.748C31.2775 118.989 31.387 119.952 31.5283 120.592C31.5848 120.912 31.6308 121.157 31.659 121.328C31.6873 121.495 31.6979 121.58 31.6979 121.58C31.6979 121.58 31.6767 121.498 31.6414 121.331C31.606 121.161 31.5566 120.915 31.4895 120.599C31.3375 119.959 31.2174 118.996 31.1079 117.752C31.0549 116.508 31.0054 114.969 31.2492 113.209C31.4753 111.45 31.8781 109.456 32.6588 107.359C33.4325 105.265 34.5313 103.054 36.0434 100.908C37.5413 98.7536 39.4915 96.6885 41.8515 94.922C46.522 91.3143 52.9801 89.1461 59.7739 89.2278C66.5465 89.3131 73.0152 91.2538 77.8164 94.698C80.2117 96.4397 81.9923 98.6861 83.3454 100.925C84.6914 103.182 85.5994 105.482 86.1859 107.636C86.7723 109.797 87.0302 111.809 87.2033 113.572C87.3729 115.338 87.4436 116.863 87.5001 118.111C87.5531 119.355 87.592 120.318 87.6202 120.983C87.6344 121.306 87.645 121.555 87.652 121.729C87.6556 121.896 87.6555 121.982 87.6555 121.982Z" fill="white"/>
<path d="M88.7259 122.426C88.7259 122.426 88.7188 122.355 88.7153 122.213C88.7118 122.067 88.7012 121.858 88.6941 121.584C88.6764 121.026 88.6517 120.201 88.6199 119.128C88.5599 116.974 88.468 113.817 88.3549 109.808C88.2454 105.795 88.1147 100.922 87.9628 95.3417C87.9239 93.9448 87.8851 92.5053 87.8462 91.0231C87.7968 90.2838 87.8745 89.5267 87.9416 88.766C87.9946 88.3857 88.0476 88.0054 88.1041 87.6215C88.1818 87.2412 88.2596 86.8609 88.3373 86.4734C88.6941 84.945 89.2134 83.4131 89.9094 81.9202C90.6089 80.431 91.4392 78.9594 92.499 77.5945L92.5061 77.5839L92.5167 77.5768C97.9114 74.1574 103.776 70.4395 109.98 66.5084C111.531 65.5238 113.103 64.5286 114.696 63.5191C116.258 62.4528 117.947 61.5429 119.688 60.7147C121.434 59.8901 123.246 59.1685 125.108 58.5358C126.037 58.2088 126.987 57.9387 127.938 57.6543C128.899 57.4091 129.856 57.1354 130.838 56.9364C134.597 56.0975 138.384 55.6817 142.094 55.5075C145.807 55.3333 149.449 55.344 152.989 55.543L153.092 55.5501L153.071 55.6532C151.4 63.1743 149.824 70.2689 148.379 76.7699L148.375 76.7841L148.368 76.7984C147.489 78.2557 146.786 79.7876 146.263 81.3338C145.761 82.8835 145.436 84.4759 145.549 86.0291C145.669 87.5895 145.712 89.1179 145.75 90.5965C145.779 92.0787 145.807 93.5183 145.835 94.9116C145.917 100.492 145.938 105.358 145.952 109.371C145.955 113.38 145.959 116.529 145.962 118.683C145.959 119.757 145.955 120.578 145.952 121.14C145.948 121.417 145.948 121.626 145.945 121.769C145.941 121.911 145.938 121.982 145.938 121.982C145.938 121.982 145.934 121.911 145.931 121.769C145.931 121.623 145.927 121.413 145.924 121.14C145.92 120.581 145.917 119.757 145.909 118.683C145.895 116.529 145.878 113.377 145.856 109.371C145.828 105.362 145.793 100.492 145.701 94.9151C145.673 93.5218 145.641 92.0823 145.609 90.6001C145.567 89.1179 145.521 87.5966 145.401 86.0398C145.284 84.4581 145.609 82.8479 146.114 81.284C146.641 79.7236 147.34 78.1846 148.231 76.7095L148.22 76.7344C149.658 70.2298 151.23 63.1352 152.894 55.6141L152.975 55.7243C149.446 55.5253 145.803 55.5181 142.101 55.6923C138.399 55.8665 134.625 56.2823 130.877 57.1176C129.898 57.3131 128.944 57.5904 127.987 57.8321C127.04 58.1164 126.093 58.383 125.168 58.71C123.313 59.3391 121.504 60.0571 119.766 60.8782C118.031 61.7028 116.35 62.6092 114.799 63.6684C113.205 64.6778 111.633 65.6731 110.079 66.6541C103.868 70.5817 97.9998 74.2961 92.6015 77.7083L92.6192 77.6905C91.5734 79.0341 90.7432 80.502 90.0472 81.9807C89.3512 83.4629 88.8354 84.9841 88.4786 86.5019C87.6837 89.548 88.0829 92.555 88.09 95.3381C88.2278 100.919 88.3479 105.792 88.4468 109.805C88.5422 113.814 88.6164 116.97 88.6658 119.124C88.687 120.198 88.7047 121.022 88.7188 121.58C88.7224 121.858 88.7259 122.067 88.7294 122.209C88.7259 122.352 88.7259 122.426 88.7259 122.426Z" fill="#263238"/>
<path d="M152.862 56.1471C152.862 56.1471 152.919 56.14 153.028 56.1365C153.145 56.1329 153.304 56.1258 153.516 56.1187C153.95 56.108 154.579 56.0938 155.392 56.0725C157.031 56.0405 159.402 55.9943 162.348 55.9339C168.259 55.8308 176.49 55.6922 185.8 55.5322H185.842L185.87 55.5678C186.923 56.8651 188.032 58.23 189.156 59.6162C192.484 63.7216 195.656 67.635 198.539 71.1929C198.9 71.6372 199.256 72.078 199.606 72.5116C199.952 72.9523 200.249 73.4322 200.482 73.9263C200.945 74.9215 201.182 75.9878 201.185 77.0186C201.196 78.0494 200.984 79.0446 200.617 79.9261C200.246 80.7969 199.889 81.6322 199.546 82.4319C198.179 85.6131 197.073 88.1901 196.303 89.9815C195.918 90.8665 195.621 91.5561 195.413 92.0288C195.31 92.2563 195.232 92.434 195.176 92.5584C195.123 92.6793 195.091 92.7361 195.091 92.7361C195.091 92.7361 195.112 92.6722 195.158 92.5513C195.211 92.4234 195.282 92.2456 195.377 92.0146C195.575 91.5348 195.865 90.8416 196.236 89.953C196.992 88.1581 198.08 85.574 199.426 82.3822C200.034 80.7756 201.104 79.0837 201.03 77.0221C201.023 76.0127 200.79 74.9712 200.334 73.9973C200.101 73.5139 199.815 73.0483 199.472 72.6147C199.119 72.181 198.762 71.7438 198.401 71.2995C195.515 67.7451 192.339 63.8353 189.007 59.7335C187.884 58.3473 186.775 56.9824 185.722 55.6851L185.793 55.7171C176.483 55.8521 168.252 55.973 162.338 56.0583C159.391 56.0938 157.021 56.1223 155.381 56.14C154.572 56.1471 153.94 56.1507 153.505 56.1542C153.297 56.1542 153.134 56.1542 153.018 56.1542C152.919 56.1507 152.862 56.1471 152.862 56.1471Z" fill="#263238"/>
<path d="M141.023 87.5212C141.023 87.5105 141.122 87.5105 141.306 87.4785C141.486 87.4465 141.755 87.3755 142.048 87.18C142.338 86.988 142.649 86.661 142.804 86.1918C142.885 85.9573 142.91 85.6978 142.899 85.4099C142.892 85.1326 142.822 84.8376 142.68 84.5639C142.398 84.0201 141.783 83.5651 141.052 83.5687C140.306 83.5723 139.508 83.5723 138.671 83.5758C136.989 83.5794 135.148 83.5794 133.212 83.5829C132.749 83.5829 132.297 83.7642 131.969 84.0699C131.636 84.3755 131.424 84.7985 131.379 85.2322C131.333 85.68 131.393 86.1172 131.605 86.4869C131.81 86.8565 132.142 87.1373 132.509 87.2937C132.88 87.4608 133.283 87.4359 133.686 87.4394C134.081 87.4394 134.47 87.443 134.841 87.443C135.586 87.4465 136.279 87.4501 136.918 87.4537C138.172 87.4643 139.197 87.475 139.925 87.4821C140.267 87.4892 140.539 87.4963 140.741 87.4999C140.925 87.5105 141.023 87.5141 141.023 87.5212C141.023 87.5283 140.925 87.5354 140.737 87.539C140.532 87.5425 140.26 87.5496 139.921 87.5567C139.193 87.5638 138.169 87.5745 136.915 87.5852C136.279 87.5887 135.583 87.5923 134.837 87.5958C134.463 87.5958 134.078 87.5994 133.682 87.5994C133.481 87.5958 133.286 87.6065 133.071 87.5958C132.859 87.5816 132.643 87.5354 132.442 87.4501C132.039 87.2795 131.675 86.9774 131.449 86.5722C131.216 86.1705 131.149 85.6765 131.198 85.2108C131.248 84.731 131.481 84.2654 131.845 83.9312C132.209 83.5936 132.703 83.3945 133.212 83.3945C135.148 83.3981 136.992 83.3981 138.671 83.4016C139.508 83.4052 140.306 83.4087 141.055 83.4123C141.843 83.4194 142.504 83.917 142.793 84.5035C142.942 84.7985 143.012 85.1113 143.016 85.4063C143.023 85.6942 142.991 85.9821 142.899 86.2238C142.726 86.7179 142.391 87.052 142.087 87.2404C141.776 87.4323 141.497 87.4928 141.31 87.5141C141.122 87.539 141.023 87.5212 141.023 87.5212Z" fill="#263238"/>
<path d="M193.286 87.5212C193.286 87.5105 193.385 87.5105 193.568 87.4785C193.749 87.4465 194.017 87.3755 194.31 87.18C194.6 86.988 194.911 86.661 195.066 86.1918C195.148 85.9573 195.176 85.6978 195.162 85.4099C195.155 85.1326 195.084 84.8376 194.943 84.5639C194.66 84.0201 194.045 83.5651 193.314 83.5687C192.569 83.5723 191.77 83.5723 190.933 83.5758C189.251 83.5794 187.411 83.5794 185.475 83.5829C185.012 83.5829 184.56 83.7642 184.231 84.0699C183.899 84.3755 183.687 84.7985 183.641 85.2322C183.595 85.68 183.655 86.1172 183.867 86.4869C184.072 86.8565 184.404 87.1373 184.772 87.2937C185.143 87.4608 185.545 87.4359 185.948 87.4394C186.344 87.4394 186.732 87.443 187.103 87.443C187.849 87.4465 188.541 87.4501 189.181 87.4537C190.435 87.4643 191.459 87.475 192.187 87.4821C192.53 87.4892 192.802 87.4963 193.003 87.4999C193.187 87.5105 193.286 87.5141 193.286 87.5212C193.286 87.5283 193.187 87.5354 193 87.539C192.795 87.5425 192.523 87.5496 192.184 87.5567C191.456 87.5638 190.431 87.5745 189.177 87.5852C188.541 87.5887 187.845 87.5923 187.1 87.5958C186.725 87.5958 186.34 87.5994 185.944 87.5994C185.743 87.5958 185.549 87.6065 185.333 87.5958C185.121 87.5816 184.906 87.5354 184.704 87.4501C184.302 87.2795 183.938 86.9774 183.712 86.5722C183.479 86.1705 183.411 85.6765 183.461 85.2108C183.51 84.731 183.743 84.2654 184.107 83.9312C184.471 83.5936 184.966 83.3945 185.475 83.3945C187.411 83.3981 189.255 83.3981 190.933 83.4016C191.77 83.4052 192.569 83.4087 193.318 83.4123C194.105 83.4194 194.766 83.917 195.056 84.5035C195.204 84.7985 195.275 85.1113 195.278 85.4063C195.285 85.6942 195.254 85.9821 195.162 86.2238C194.989 86.7179 194.653 87.052 194.349 87.2404C194.038 87.4323 193.759 87.4928 193.572 87.5141C193.385 87.539 193.286 87.5212 193.286 87.5212Z" fill="#263238"/>
<path d="M239.115 78.9414H228.657C227.223 78.9414 225.909 79.7411 225.241 81.0172C224.693 82.0657 224.651 83.3062 225.124 84.3903L229.226 93.7633L239.698 93.6602C239.698 93.6566 241.927 81.7778 239.115 78.9414Z" fill="#FAFAFA"/>
<path d="M93.8804 77.6155L147.838 76.6167L182.955 75.9698L194.536 69.2449C195.473 68.701 195.723 67.4499 195.07 66.5826L187.863 57.0533C187.11 56.058 185.944 55.4716 184.704 55.4609L145.425 55.141C145.425 55.141 130.633 54.2773 118.982 60.8423C106.715 67.7485 93.8804 77.6155 93.8804 77.6155Z" fill="#263238"/>
<path d="M118.611 56.1221C118.611 56.1221 121.317 57.3626 119.554 58.5142C117.795 59.6623 90.4572 77.0042 90.4572 77.0042L84.1721 74.1429C95.3043 67.9014 106.546 61.8411 118.611 56.1221Z" fill="#455A64"/>
<path d="M91.3403 77.4375C91.3403 77.4375 91.2838 77.4553 91.1708 77.4802C91.0506 77.505 90.8846 77.5441 90.6726 77.5903C90.2275 77.6828 89.581 77.8178 88.7543 77.9884C87.0867 78.3225 84.6702 78.7917 81.6743 79.3071C75.6825 80.345 67.359 81.5535 58.1134 82.3603C55.8029 82.5629 53.5418 82.73 51.3585 82.8722C49.1751 83.0179 47.0695 83.1494 45.0699 83.3343C41.0707 83.6861 37.4848 84.2726 34.5736 85.1434C31.6555 85.9858 29.4227 87.0664 27.9565 87.9194C27.204 88.3175 26.6705 88.7085 26.289 88.9431C26.1053 89.0604 25.964 89.1528 25.858 89.2168C25.759 89.2772 25.7061 89.3056 25.7061 89.3056C25.7061 89.3056 25.752 89.2666 25.8438 89.2026C25.9463 89.1315 26.0841 89.0355 26.2643 88.9111C26.6387 88.6659 27.1687 88.2642 27.9177 87.8555C29.3767 86.9811 31.6095 85.8756 34.5348 85.0155C37.453 84.1233 41.0459 83.5226 45.0522 83.1636C47.0554 82.9753 49.161 82.8366 51.3443 82.6909C53.5277 82.5452 55.7852 82.3781 58.0957 82.1755C67.3378 81.3722 75.6578 80.1851 81.6531 79.1792C84.6526 78.678 87.0691 78.2301 88.7437 77.9173C89.5739 77.761 90.2204 77.6365 90.6691 77.5512C90.8846 77.5121 91.0506 77.4837 91.1708 77.4588C91.2803 77.4411 91.3403 77.4375 91.3403 77.4375Z" fill="#263238"/>
<path d="M243.294 101.747C243.294 101.796 239.698 101.839 235.264 101.839C230.826 101.839 227.23 101.796 227.23 101.747C227.23 101.697 230.826 101.654 235.264 101.654C239.698 101.654 243.294 101.697 243.294 101.747Z" fill="#263238"/>
<path d="M177.501 110.98C177.501 111.03 157.201 111.073 132.163 111.073C107.118 111.073 86.8218 111.03 86.8218 110.98C86.8218 110.93 107.118 110.888 132.163 110.888C157.201 110.888 177.501 110.927 177.501 110.98Z" fill="#263238"/>
<path d="M35.3579 102.052C35.3579 102.102 32.4856 102.145 28.9457 102.145C25.4057 102.145 22.5334 102.102 22.5334 102.052C22.5334 102.003 25.4022 101.96 28.9457 101.96C32.4856 101.96 35.3579 102.003 35.3579 102.052Z" fill="#263238"/>
<path d="M222.008 62.3887C222.008 62.3887 219.599 65.1042 220.546 67.0947C221.492 69.0852 231.279 76.0554 231.279 76.0554L238.383 77.3954L222.008 62.3887Z" fill="#455A64"/>
<path d="M154.459 57.5332L152.862 74.8894L181.451 74.0683L192.971 67.3327L185.513 57.5332H154.459Z" fill="#455A64"/>
<path d="M100.649 75.7782C100.649 75.7782 117.897 63.2454 124.701 60.7573C131.269 58.3546 134.692 57.7503 140.861 57.5762C146.757 57.4091 150.35 57.5726 150.35 57.5726L145.793 75.2202L100.649 75.7782Z" fill="#455A64"/>
<path d="M98.127 75.8335C98.127 74.7352 98.717 73.7222 99.6673 73.1819L103.628 70.9427C104.758 70.3029 106.03 69.9688 107.327 69.9688C108.132 69.9688 108.927 70.0967 109.68 70.3455C111.372 70.9036 112.499 72.5208 112.569 74.3122C112.665 76.8003 110.683 78.8725 108.206 78.8725H101.148C99.4801 78.8761 98.127 77.5147 98.127 75.8335Z" fill="#52658D"/>
<path d="M98.127 75.8345C98.1376 75.8345 98.1376 75.9695 98.1729 76.2183C98.2047 76.4672 98.2965 76.8368 98.5191 77.2598C98.7523 77.6757 99.1409 78.1377 99.7344 78.4612C100.031 78.6176 100.377 78.7349 100.752 78.7846C101.126 78.8308 101.54 78.8024 101.971 78.806C103.695 78.7988 105.744 78.7953 108.016 78.7846C108.581 78.7882 109.15 78.7171 109.697 78.5074C110.245 78.3012 110.757 77.9778 111.192 77.5512C111.623 77.1247 111.979 76.6022 112.199 76.0122C112.421 75.4222 112.509 74.7753 112.463 74.1319C112.368 72.8381 111.679 71.6438 110.679 70.9507C110.185 70.5953 109.616 70.3927 109.04 70.2576C108.468 70.119 107.892 70.055 107.33 70.055C106.203 70.055 105.14 70.3074 104.228 70.7233C103.773 70.9294 103.356 71.1889 102.942 71.4128C102.532 71.6438 102.137 71.8642 101.762 72.0739C101.01 72.4933 100.331 72.8701 99.7309 73.2078C99.1338 73.5312 98.7452 73.9969 98.5191 74.4127C98.2895 74.8321 98.2047 75.2053 98.1694 75.4542C98.134 75.703 98.1376 75.8345 98.127 75.8345C98.127 75.8345 98.1093 75.6994 98.134 75.4435C98.1588 75.1911 98.233 74.8108 98.4591 74.3736C98.6816 73.9435 99.0773 73.453 99.685 73.1118C100.282 72.7706 100.957 72.3832 101.702 71.9566C102.077 71.7434 102.469 71.5194 102.875 71.2848C103.285 71.0574 103.702 70.7943 104.168 70.5811C105.094 70.151 106.182 69.8844 107.334 69.8809C107.91 69.8809 108.5 69.9448 109.086 70.0835C109.669 70.2185 110.27 70.4282 110.785 70.8014C111.828 71.523 112.548 72.7706 112.647 74.1177C112.697 74.7895 112.605 75.4648 112.372 76.0797C112.142 76.6946 111.771 77.242 111.319 77.6828C110.867 78.1271 110.33 78.4647 109.761 78.6744C109.192 78.8913 108.588 78.9623 108.016 78.9552C105.744 78.9481 103.698 78.941 101.971 78.9339C101.54 78.9268 101.133 78.9481 100.738 78.8984C100.346 78.8451 99.9888 78.7171 99.685 78.55C99.0738 78.2053 98.6852 77.7183 98.4555 77.2918C98.2365 76.8546 98.1552 76.4743 98.134 76.2219C98.1128 75.9695 98.127 75.8345 98.127 75.8345Z" fill="#263238"/>
<path d="M231.007 122.145C231.007 122.145 231.007 122.06 231.017 121.9C231.028 121.733 231.045 121.491 231.067 121.178C231.084 120.862 231.123 120.471 231.144 120.006C231.158 119.54 231.18 119.003 231.197 118.402C231.204 117.798 231.194 117.126 231.187 116.394C231.141 115.662 231.137 114.862 231.038 114.013C230.886 112.307 230.604 110.37 230.017 108.294C229.714 107.263 229.367 106.186 228.89 105.113C228.438 104.028 227.862 102.948 227.184 101.882C225.838 99.7419 223.934 97.7727 221.662 96.0809C219.383 94.3961 216.688 93.0418 213.738 92.1532C210.791 91.2433 207.583 90.9127 204.319 90.8914C201.051 90.8843 197.857 91.3286 194.922 92.267C193.455 92.7326 192.053 93.3191 190.739 94.0051C189.428 94.6946 188.223 95.5192 187.107 96.3936C184.885 98.1566 183.009 100.133 181.511 102.166C180.772 103.19 180.175 104.256 179.652 105.308C179.158 106.374 178.709 107.409 178.366 108.432C176.936 112.506 176.487 116.007 176.328 118.406C176.271 119.611 176.278 120.549 176.307 121.182C176.324 121.495 176.338 121.737 176.349 121.904C176.356 122.067 176.356 122.149 176.356 122.149C176.356 122.149 176.346 122.067 176.328 121.904C176.314 121.737 176.293 121.495 176.268 121.182C176.225 120.546 176.208 119.607 176.254 118.399C176.391 115.993 176.822 112.477 178.243 108.386C178.585 107.359 179.031 106.318 179.525 105.244C180.048 104.185 180.649 103.111 181.39 102.074C182.892 100.023 184.771 98.0322 187.004 96.2586C188.128 95.3771 189.336 94.5454 190.657 93.8487C191.982 93.1591 193.392 92.5655 194.869 92.0964C197.822 91.1509 201.041 90.6995 204.323 90.7101C207.601 90.7315 210.823 91.0656 213.791 91.9826C216.758 92.8819 219.468 94.2468 221.761 95.9493C222.909 96.7988 223.951 97.7265 224.884 98.7076C225.817 99.685 226.64 100.723 227.311 101.803C227.993 102.877 228.569 103.968 229.018 105.059C229.495 106.14 229.834 107.224 230.137 108.262C230.72 110.348 230.992 112.296 231.137 114.006C231.233 114.859 231.229 115.662 231.272 116.394C231.272 117.13 231.275 117.802 231.264 118.406C231.236 119.01 231.215 119.543 231.194 120.013C231.166 120.478 231.123 120.869 231.098 121.186C231.07 121.498 231.049 121.737 231.031 121.907C231.017 122.06 231.007 122.145 231.007 122.145Z" fill="white"/>
<path d="M145.037 77.6151C145.037 77.6186 145.009 77.6222 144.956 77.6257C144.892 77.6293 144.811 77.6328 144.715 77.6364C144.489 77.6399 144.182 77.6471 143.793 77.6577C142.977 77.6719 141.822 77.6933 140.405 77.7181C137.544 77.7715 133.594 77.8781 129.227 77.9989C124.861 78.1198 120.907 78.2051 118.046 78.2229C116.615 78.2335 115.456 78.2335 114.654 78.2264C114.265 78.2193 113.958 78.2158 113.732 78.2122C113.637 78.2087 113.559 78.2051 113.492 78.2051C113.439 78.2016 113.41 78.198 113.41 78.1944C113.41 78.1909 113.439 78.1873 113.492 78.1838C113.555 78.1802 113.637 78.1767 113.732 78.1731C113.958 78.1696 114.265 78.1625 114.654 78.1518C115.47 78.1376 116.625 78.1162 118.042 78.0914C120.904 78.038 124.857 77.9314 129.224 77.8106C133.59 77.6897 137.544 77.6044 140.405 77.5866C141.836 77.576 142.995 77.576 143.797 77.5831C144.186 77.5902 144.493 77.5937 144.719 77.5973C144.814 77.6009 144.892 77.6044 144.959 77.6044C145.012 77.608 145.037 77.6115 145.037 77.6151Z" fill="white"/>
<path d="M140.352 82.9616C140.352 83.0113 138.967 83.054 137.257 83.054C135.548 83.054 134.163 83.0113 134.163 82.9616C134.163 82.9118 135.548 82.8691 137.257 82.8691C138.967 82.8691 140.352 82.9082 140.352 82.9616Z" fill="white"/>
<path d="M141.49 63.9385C141.507 63.9847 137.667 65.5949 132.908 67.532C128.149 69.4692 124.277 71.0011 124.256 70.9549C124.238 70.9087 128.079 69.2985 132.838 67.3614C137.596 65.4243 141.472 63.8923 141.49 63.9385Z" fill="white"/>
<path d="M133.703 65.1534C133.724 65.1996 130.064 66.8204 125.532 68.7753C120.999 70.7302 117.307 72.2728 117.289 72.2266C117.268 72.1804 120.928 70.5596 125.461 68.6047C129.994 66.6498 133.686 65.1071 133.703 65.1534Z" fill="white"/>
<path d="M183.079 63.2666C183.097 63.3129 179.256 64.923 174.498 66.8601C169.739 68.7973 165.867 70.3292 165.846 70.283C165.828 70.2368 169.668 68.6267 174.427 66.6895C179.189 64.7524 183.061 63.2204 183.079 63.2666Z" fill="white"/>
<path d="M175.296 64.4825C175.318 64.5287 171.657 66.1495 167.125 68.1044C162.592 70.0593 158.9 71.6019 158.882 71.5557C158.861 71.5095 162.521 69.8887 167.054 67.9338C171.583 65.9789 175.275 64.4362 175.296 64.4825Z" fill="white"/>
<path d="M183.832 77.612C183.832 77.6617 176.19 77.7506 166.764 77.8075C157.335 77.8643 149.697 77.8679 149.697 77.8181C149.697 77.7684 157.335 77.6795 166.764 77.6226C176.19 77.5658 183.832 77.5622 183.832 77.612Z" fill="white"/>
<path d="M192.293 82.6631C192.293 82.7128 190.152 82.7768 187.506 82.8017C184.86 82.8266 182.719 82.8053 182.719 82.7555C182.719 82.7057 184.86 82.6418 187.506 82.6169C190.148 82.592 192.293 82.6133 192.293 82.6631Z" fill="white"/>
<path d="M45.9777 80.0362C45.9777 80.0433 45.9071 80.0575 45.7693 80.0753C45.6138 80.0966 45.416 80.1215 45.1687 80.1535C44.9072 80.1819 44.5893 80.2246 44.2219 80.285C43.8544 80.3454 43.434 80.3988 42.9747 80.4912C42.0527 80.6511 40.9645 80.8964 39.7669 81.2163C38.5763 81.5504 37.2762 81.9662 35.9478 82.4852C34.6194 83.0148 33.3864 83.5942 32.2877 84.1664C31.1925 84.7493 30.2316 85.3145 29.4437 85.8299C29.0445 86.0751 28.6983 86.3239 28.3909 86.5337C28.08 86.7398 27.8186 86.9282 27.6101 87.0846C27.4088 87.2268 27.2462 87.3441 27.1191 87.4365C27.006 87.5147 26.9424 87.5538 26.9389 87.5502C26.9354 87.5467 26.9883 87.4969 27.0943 87.408C27.218 87.3085 27.3734 87.1841 27.5677 87.0277C27.7727 86.8607 28.027 86.6652 28.3344 86.4484C28.6382 86.2315 28.9809 85.9756 29.3766 85.7197C30.1574 85.1901 31.1183 84.6107 32.21 84.0171C33.3087 83.4342 34.5488 82.8442 35.8842 82.3146C37.2232 81.7921 38.5268 81.3762 39.728 81.0528C40.9327 80.74 42.0279 80.5089 42.9571 80.3632C43.4199 80.2779 43.8438 80.2317 44.2113 80.1855C44.5822 80.1322 44.9002 80.1037 45.1616 80.086C45.4089 80.0682 45.6068 80.054 45.7657 80.0398C45.9035 80.0291 45.9777 80.0291 45.9777 80.0362Z" fill="white"/>
<path d="M109.065 71.651C109.051 71.6617 108.959 71.5124 108.726 71.3204C108.493 71.1321 108.093 70.9152 107.56 70.8477C107.023 70.7766 106.376 70.869 105.677 71.0539C104.974 71.2316 104.218 71.4804 103.451 71.8145C101.914 72.4792 100.664 73.3642 99.8334 74.0787C98.9926 74.7895 98.551 75.312 98.5227 75.2872C98.5121 75.2801 98.6181 75.145 98.8195 74.9104C99.0244 74.6794 99.3317 74.3524 99.7451 73.9827C100.561 73.2363 101.819 72.3228 103.377 71.6474C104.154 71.3098 104.921 71.061 105.634 70.8904C106.341 70.7126 107.016 70.6309 107.578 70.7198C108.139 70.8086 108.546 71.0539 108.772 71.2707C108.888 71.3773 108.962 71.4768 109.008 71.5444C109.054 71.6083 109.072 71.6474 109.065 71.651Z" fill="white"/>
</svg>
