<svg width="87" height="24" viewBox="0 0 87 24" fill="none" xmlns="http://www.w3.org/2000/svg">
<path d="M0.9 18H4.3V12.025C4.3 10.425 4 8.05 3.825 6.475H3.925L5.225 10.25L7.725 16.575H9.2L11.725 10.25L13.05 6.475H13.15C12.975 8.05 12.675 10.425 12.675 12.025V18H16.125V1.7H12.225L9.575 9.025L8.6 11.875H8.5L7.525 9.025L4.8 1.7H0.9V18ZM19.9186 19.8L19.2686 22.6C19.7686 22.75 20.2686 22.85 21.0186 22.85C23.9436 22.85 25.2686 21.25 26.4436 18.125L30.7436 5.6H27.2186L25.7186 10.925C25.4186 12.1 25.1436 13.275 24.8686 14.45H24.7686C24.4436 13.225 24.1436 12.05 23.7936 10.925L22.0186 5.6H18.3186L23.0936 17.675L22.9186 18.325C22.5936 19.3 21.9686 19.95 20.7436 19.95C20.4686 19.95 20.1436 19.85 19.9186 19.8ZM32.0557 15.875C33.4807 17.35 35.4807 18.3 37.7807 18.3C41.2307 18.3 43.3807 16.225 43.3807 13.625C43.3807 11.2 41.9057 10.075 40.0057 9.25L37.6557 8.25C36.3807 7.7 34.9307 7.1 34.9307 5.525C34.9307 4.05 36.1557 3.125 38.0057 3.125C39.5057 3.125 40.7307 3.725 41.7307 4.675L42.8307 3.325C41.6807 2.125 39.9557 1.3 38.0057 1.3C35.0307 1.3 32.8307 3.15 32.8307 5.65C32.8307 8.05 34.6307 9.225 36.1557 9.875L38.5057 10.9C40.0557 11.6 41.2557 12.125 41.2557 13.8C41.2557 15.4 39.9807 16.475 37.8307 16.475C36.1057 16.475 34.4807 15.65 33.3057 14.425L32.0557 15.875ZM46.1631 13.55C46.1631 16.65 47.3131 18.3 49.8881 18.3C51.5631 18.3 52.7631 17.425 53.8881 16.1H53.9631L54.1381 18H55.8381V5.85H53.7881V14.475C52.6381 15.9 51.7631 16.525 50.5131 16.525C48.9131 16.525 48.2381 15.55 48.2381 13.275V5.85H46.1631V13.55ZM61.9367 16.9C63.0617 17.775 64.1867 18.3 65.3117 18.3C68.0867 18.3 70.5617 15.875 70.5617 11.75C70.5617 7.975 68.8867 5.55 65.7617 5.55C64.3367 5.55 62.9867 6.325 61.8867 7.25H61.8117L61.6367 5.85H59.9367V23.125H61.9867V19.025L61.9367 16.9ZM61.9867 15.3V8.925C63.1867 7.85 64.2117 7.275 65.2367 7.275C67.5367 7.275 68.4367 9.075 68.4367 11.75C68.4367 14.75 66.9617 16.575 64.9617 16.575C64.1617 16.575 63.0867 16.225 61.9867 15.3ZM74.8539 3.35C75.6539 3.35 76.2789 2.8 76.2789 2.025C76.2789 1.225 75.6539 0.699999 74.8539 0.699999C74.0539 0.699999 73.4289 1.225 73.4289 2.025C73.4289 2.8 74.0539 3.35 74.8539 3.35ZM73.8039 18H75.8539V5.85H73.8039V18ZM79.9563 18H82.0063V10.2C82.8313 8.15 84.0563 7.4 85.0813 7.4C85.5813 7.4 85.8563 7.475 86.2563 7.6L86.6563 5.8C86.2563 5.625 85.8813 5.55 85.3563 5.55C83.9813 5.55 82.7313 6.525 81.9063 8.05H81.8313L81.6563 5.85H79.9563V18Z" fill="white"/>
</svg>
